<?xml version="1.0" encoding="utf-8"?>
<svg xmlns="http://www.w3.org/2000/svg" xmlns:xlink="http://www.w3.org/1999/xlink" width="600" height="400" viewBox="0 0 2400 1600">
<defs>
  <clipPath id="clip380">
    <rect x="0" y="0" width="2400" height="1600"/>
  </clipPath>
</defs>
<path clip-path="url(#clip380)" d="M0 1600 L2400 1600 L2400 0 L0 0  Z" fill="#ffffff" fill-rule="evenodd" fill-opacity="1"/>
<defs>
  <clipPath id="clip381">
    <rect x="480" y="0" width="1681" height="1600"/>
  </clipPath>
</defs>
<path clip-path="url(#clip380)" d="M394.463 1332.46 L2352.76 1332.46 L2352.76 47.2441 L394.463 47.2441  Z" fill="#ffffff" fill-rule="evenodd" fill-opacity="1"/>
<defs>
  <clipPath id="clip382">
    <rect x="394" y="47" width="1959" height="1286"/>
  </clipPath>
</defs>
<polyline clip-path="url(#clip382)" style="stroke:#000000; stroke-linecap:round; stroke-linejoin:round; stroke-width:2; stroke-opacity:0.1; fill:none" points="449.887,1332.46 449.887,47.2441 "/>
<polyline clip-path="url(#clip382)" style="stroke:#000000; stroke-linecap:round; stroke-linejoin:round; stroke-width:2; stroke-opacity:0.1; fill:none" points="1065.7,1332.46 1065.7,47.2441 "/>
<polyline clip-path="url(#clip382)" style="stroke:#000000; stroke-linecap:round; stroke-linejoin:round; stroke-width:2; stroke-opacity:0.1; fill:none" points="1681.52,1332.46 1681.52,47.2441 "/>
<polyline clip-path="url(#clip382)" style="stroke:#000000; stroke-linecap:round; stroke-linejoin:round; stroke-width:2; stroke-opacity:0.1; fill:none" points="2297.33,1332.46 2297.33,47.2441 "/>
<polyline clip-path="url(#clip382)" style="stroke:#000000; stroke-linecap:round; stroke-linejoin:round; stroke-width:2; stroke-opacity:0.1; fill:none" points="394.463,1224.76 2352.76,1224.76 "/>
<polyline clip-path="url(#clip382)" style="stroke:#000000; stroke-linecap:round; stroke-linejoin:round; stroke-width:2; stroke-opacity:0.1; fill:none" points="394.463,939.478 2352.76,939.478 "/>
<polyline clip-path="url(#clip382)" style="stroke:#000000; stroke-linecap:round; stroke-linejoin:round; stroke-width:2; stroke-opacity:0.1; fill:none" points="394.463,654.191 2352.76,654.191 "/>
<polyline clip-path="url(#clip382)" style="stroke:#000000; stroke-linecap:round; stroke-linejoin:round; stroke-width:2; stroke-opacity:0.1; fill:none" points="394.463,368.905 2352.76,368.905 "/>
<polyline clip-path="url(#clip382)" style="stroke:#000000; stroke-linecap:round; stroke-linejoin:round; stroke-width:2; stroke-opacity:0.1; fill:none" points="394.463,83.6181 2352.76,83.6181 "/>
<polyline clip-path="url(#clip380)" style="stroke:#000000; stroke-linecap:round; stroke-linejoin:round; stroke-width:4; stroke-opacity:1; fill:none" points="394.463,1332.46 2352.76,1332.46 "/>
<polyline clip-path="url(#clip380)" style="stroke:#000000; stroke-linecap:round; stroke-linejoin:round; stroke-width:4; stroke-opacity:1; fill:none" points="449.887,1332.46 449.887,1313.56 "/>
<polyline clip-path="url(#clip380)" style="stroke:#000000; stroke-linecap:round; stroke-linejoin:round; stroke-width:4; stroke-opacity:1; fill:none" points="1065.7,1332.46 1065.7,1313.56 "/>
<polyline clip-path="url(#clip380)" style="stroke:#000000; stroke-linecap:round; stroke-linejoin:round; stroke-width:4; stroke-opacity:1; fill:none" points="1681.52,1332.46 1681.52,1313.56 "/>
<polyline clip-path="url(#clip380)" style="stroke:#000000; stroke-linecap:round; stroke-linejoin:round; stroke-width:4; stroke-opacity:1; fill:none" points="2297.33,1332.46 2297.33,1313.56 "/>
<path clip-path="url(#clip380)" d="M425.842 1449.82 L444.939 1449.82 L444.939 1383.91 L424.163 1388.07 L424.163 1377.43 L444.823 1373.26 L456.513 1373.26 L456.513 1449.82 L475.61 1449.82 L475.61 1459.66 L425.842 1459.66 L425.842 1449.82 Z" fill="#000000" fill-rule="nonzero" fill-opacity="1" /><path clip-path="url(#clip380)" d="M1052.33 1449.82 L1093.13 1449.82 L1093.13 1459.66 L1038.27 1459.66 L1038.27 1449.82 Q1044.93 1442.94 1056.38 1431.36 Q1067.9 1419.73 1070.85 1416.37 Q1076.47 1410.07 1078.66 1405.72 Q1080.92 1401.33 1080.92 1397.1 Q1080.92 1390.22 1076.06 1385.88 Q1071.26 1381.54 1063.5 1381.54 Q1058.01 1381.54 1051.87 1383.44 Q1045.79 1385.35 1038.85 1389.23 L1038.85 1377.43 Q1045.91 1374.59 1052.04 1373.14 Q1058.18 1371.7 1063.27 1371.7 Q1076.7 1371.7 1084.68 1378.41 Q1092.67 1385.12 1092.67 1396.35 Q1092.67 1401.67 1090.64 1406.48 Q1088.68 1411.22 1083.41 1417.7 Q1081.96 1419.38 1074.21 1427.43 Q1066.45 1435.41 1052.33 1449.82 Z" fill="#000000" fill-rule="nonzero" fill-opacity="1" /><path clip-path="url(#clip380)" d="M1692.14 1413.07 Q1700.53 1414.87 1705.21 1420.54 Q1709.96 1426.21 1709.96 1434.54 Q1709.96 1447.33 1701.16 1454.34 Q1692.37 1461.34 1676.16 1461.34 Q1670.72 1461.34 1664.94 1460.24 Q1659.21 1459.2 1653.07 1457.06 L1653.07 1445.77 Q1657.94 1448.61 1663.72 1450.05 Q1669.51 1451.5 1675.82 1451.5 Q1686.81 1451.5 1692.54 1447.16 Q1698.33 1442.82 1698.33 1434.54 Q1698.33 1426.91 1692.95 1422.62 Q1687.62 1418.28 1678.07 1418.28 L1668 1418.28 L1668 1408.68 L1678.54 1408.68 Q1687.16 1408.68 1691.73 1405.26 Q1696.3 1401.79 1696.3 1395.31 Q1696.3 1388.65 1691.56 1385.12 Q1686.87 1381.54 1678.07 1381.54 Q1673.27 1381.54 1667.77 1382.58 Q1662.28 1383.62 1655.68 1385.82 L1655.68 1375.4 Q1662.33 1373.55 1668.12 1372.62 Q1673.97 1371.7 1679.12 1371.7 Q1692.43 1371.7 1700.18 1377.77 Q1707.93 1383.79 1707.93 1394.09 Q1707.93 1401.27 1703.83 1406.25 Q1699.72 1411.16 1692.14 1413.07 Z" fill="#000000" fill-rule="nonzero" fill-opacity="1" /><path clip-path="url(#clip380)" d="M2304.86 1383.44 L2275.34 1429.57 L2304.86 1429.57 L2304.86 1383.44 M2301.79 1373.26 L2316.49 1373.26 L2316.49 1429.57 L2328.81 1429.57 L2328.81 1439.29 L2316.49 1439.29 L2316.49 1459.66 L2304.86 1459.66 L2304.86 1439.29 L2265.85 1439.29 L2265.85 1428 L2301.79 1373.26 Z" fill="#000000" fill-rule="nonzero" fill-opacity="1" /><path clip-path="url(#clip380)" d="M1371.9 1518.52 L1371.9 1536.93 L1393.84 1536.93 L1393.84 1545.2 L1371.9 1545.2 L1371.9 1580.39 Q1371.9 1588.31 1374.04 1590.57 Q1376.24 1592.83 1382.9 1592.83 L1393.84 1592.83 L1393.84 1601.74 L1382.9 1601.74 Q1370.57 1601.74 1365.88 1597.17 Q1361.2 1592.54 1361.2 1580.39 L1361.2 1545.2 L1353.38 1545.2 L1353.38 1536.93 L1361.2 1536.93 L1361.2 1518.52 L1371.9 1518.52 Z" fill="#000000" fill-rule="nonzero" fill-opacity="1" /><polyline clip-path="url(#clip380)" style="stroke:#000000; stroke-linecap:round; stroke-linejoin:round; stroke-width:4; stroke-opacity:1; fill:none" points="394.463,1332.46 394.463,47.2441 "/>
<polyline clip-path="url(#clip380)" style="stroke:#000000; stroke-linecap:round; stroke-linejoin:round; stroke-width:4; stroke-opacity:1; fill:none" points="394.463,1224.76 413.361,1224.76 "/>
<polyline clip-path="url(#clip380)" style="stroke:#000000; stroke-linecap:round; stroke-linejoin:round; stroke-width:4; stroke-opacity:1; fill:none" points="394.463,939.478 413.361,939.478 "/>
<polyline clip-path="url(#clip380)" style="stroke:#000000; stroke-linecap:round; stroke-linejoin:round; stroke-width:4; stroke-opacity:1; fill:none" points="394.463,654.191 413.361,654.191 "/>
<polyline clip-path="url(#clip380)" style="stroke:#000000; stroke-linecap:round; stroke-linejoin:round; stroke-width:4; stroke-opacity:1; fill:none" points="394.463,368.905 413.361,368.905 "/>
<polyline clip-path="url(#clip380)" style="stroke:#000000; stroke-linecap:round; stroke-linejoin:round; stroke-width:4; stroke-opacity:1; fill:none" points="394.463,83.6181 413.361,83.6181 "/>
<path clip-path="url(#clip380)" d="M238.267 1258.13 L279.065 1258.13 L279.065 1267.96 L224.205 1267.96 L224.205 1258.13 Q230.86 1251.24 242.318 1239.67 Q253.834 1228.03 256.785 1224.68 Q262.399 1218.37 264.598 1214.03 Q266.855 1209.63 266.855 1205.41 Q266.855 1198.52 261.994 1194.18 Q257.191 1189.84 249.436 1189.84 Q243.938 1189.84 237.804 1191.75 Q231.728 1193.66 224.783 1197.54 L224.783 1185.73 Q231.843 1182.9 237.978 1181.45 Q244.112 1180 249.204 1180 Q262.63 1180 270.616 1186.71 Q278.602 1193.43 278.602 1204.65 Q278.602 1209.98 276.577 1214.78 Q274.609 1219.53 269.343 1226.01 Q267.896 1227.69 260.142 1235.73 Q252.387 1243.72 238.267 1258.13 Z" fill="#000000" fill-rule="nonzero" fill-opacity="1" /><path clip-path="url(#clip380)" d="M328.602 1189.26 Q319.574 1189.26 315.003 1198.17 Q310.489 1207.03 310.489 1224.85 Q310.489 1242.62 315.003 1251.53 Q319.574 1260.38 328.602 1260.38 Q337.688 1260.38 342.202 1251.53 Q346.773 1242.62 346.773 1224.85 Q346.773 1207.03 342.202 1198.17 Q337.688 1189.26 328.602 1189.26 M328.602 1180 Q343.128 1180 350.766 1191.52 Q358.463 1202.98 358.463 1224.85 Q358.463 1246.67 350.766 1258.18 Q343.128 1269.64 328.602 1269.64 Q314.077 1269.64 306.38 1258.18 Q298.741 1246.67 298.741 1224.85 Q298.741 1202.98 306.38 1191.52 Q314.077 1180 328.602 1180 Z" fill="#000000" fill-rule="nonzero" fill-opacity="1" /><path clip-path="url(#clip380)" d="M260.316 906.463 L230.802 952.585 L260.316 952.585 L260.316 906.463 M257.248 896.278 L271.947 896.278 L271.947 952.585 L284.274 952.585 L284.274 962.307 L271.947 962.307 L271.947 982.678 L260.316 982.678 L260.316 962.307 L221.311 962.307 L221.311 951.023 L257.248 896.278 Z" fill="#000000" fill-rule="nonzero" fill-opacity="1" /><path clip-path="url(#clip380)" d="M328.602 903.974 Q319.574 903.974 315.003 912.886 Q310.489 921.74 310.489 939.564 Q310.489 957.331 315.003 966.243 Q319.574 975.097 328.602 975.097 Q337.688 975.097 342.202 966.243 Q346.773 957.331 346.773 939.564 Q346.773 921.74 342.202 912.886 Q337.688 903.974 328.602 903.974 M328.602 894.715 Q343.128 894.715 350.766 906.231 Q358.463 917.69 358.463 939.564 Q358.463 961.381 350.766 972.898 Q343.128 984.356 328.602 984.356 Q314.077 984.356 306.38 972.898 Q298.741 961.381 298.741 939.564 Q298.741 917.69 306.38 906.231 Q314.077 894.715 328.602 894.715 Z" fill="#000000" fill-rule="nonzero" fill-opacity="1" /><path clip-path="url(#clip380)" d="M254.644 649.533 Q246.774 649.533 242.144 654.915 Q237.573 660.296 237.573 669.671 Q237.573 678.988 242.144 684.428 Q246.774 689.81 254.644 689.81 Q262.515 689.81 267.086 684.428 Q271.716 678.988 271.716 669.671 Q271.716 660.296 267.086 654.915 Q262.515 649.533 254.644 649.533 M277.85 612.901 L277.85 623.549 Q273.452 621.466 268.938 620.366 Q264.482 619.267 260.084 619.267 Q248.51 619.267 242.376 627.079 Q236.299 634.891 235.431 650.69 Q238.846 645.655 243.996 642.993 Q249.147 640.273 255.339 640.273 Q268.359 640.273 275.883 648.202 Q283.464 656.072 283.464 669.671 Q283.464 682.982 275.593 691.025 Q267.723 699.069 254.644 699.069 Q239.656 699.069 231.728 687.611 Q223.8 676.095 223.8 654.278 Q223.8 633.792 233.522 621.639 Q243.244 609.429 259.621 609.429 Q264.019 609.429 268.475 610.297 Q272.989 611.165 277.85 612.901 Z" fill="#000000" fill-rule="nonzero" fill-opacity="1" /><path clip-path="url(#clip380)" d="M328.602 618.688 Q319.574 618.688 315.003 627.6 Q310.489 636.454 310.489 654.278 Q310.489 672.044 315.003 680.956 Q319.574 689.81 328.602 689.81 Q337.688 689.81 342.202 680.956 Q346.773 672.044 346.773 654.278 Q346.773 636.454 342.202 627.6 Q337.688 618.688 328.602 618.688 M328.602 609.429 Q343.128 609.429 350.766 620.945 Q358.463 632.403 358.463 654.278 Q358.463 676.095 350.766 687.611 Q343.128 699.069 328.602 699.069 Q314.077 699.069 306.38 687.611 Q298.741 676.095 298.741 654.278 Q298.741 632.403 306.38 620.945 Q314.077 609.429 328.602 609.429 Z" fill="#000000" fill-rule="nonzero" fill-opacity="1" /><path clip-path="url(#clip380)" d="M253.197 371.075 Q244.864 371.075 240.061 375.531 Q235.316 379.987 235.316 387.799 Q235.316 395.612 240.061 400.068 Q244.864 404.524 253.197 404.524 Q261.531 404.524 266.334 400.068 Q271.137 395.554 271.137 387.799 Q271.137 379.987 266.334 375.531 Q261.589 371.075 253.197 371.075 M241.508 366.098 Q233.985 364.246 229.76 359.096 Q225.593 353.945 225.593 346.538 Q225.593 336.179 232.943 330.161 Q240.35 324.142 253.197 324.142 Q266.103 324.142 273.452 330.161 Q280.802 336.179 280.802 346.538 Q280.802 353.945 276.577 359.096 Q272.41 364.246 264.945 366.098 Q273.394 368.066 278.082 373.795 Q282.827 379.524 282.827 387.799 Q282.827 400.357 275.13 407.07 Q267.491 413.783 253.197 413.783 Q238.904 413.783 231.207 407.07 Q223.568 400.357 223.568 387.799 Q223.568 379.524 228.313 373.795 Q233.059 368.066 241.508 366.098 M237.225 347.637 Q237.225 354.35 241.392 358.112 Q245.617 361.873 253.197 361.873 Q260.721 361.873 264.945 358.112 Q269.227 354.35 269.227 347.637 Q269.227 340.924 264.945 337.163 Q260.721 333.401 253.197 333.401 Q245.617 333.401 241.392 337.163 Q237.225 340.924 237.225 347.637 Z" fill="#000000" fill-rule="nonzero" fill-opacity="1" /><path clip-path="url(#clip380)" d="M328.602 333.401 Q319.574 333.401 315.003 342.313 Q310.489 351.167 310.489 368.991 Q310.489 386.758 315.003 395.67 Q319.574 404.524 328.602 404.524 Q337.688 404.524 342.202 395.67 Q346.773 386.758 346.773 368.991 Q346.773 351.167 342.202 342.313 Q337.688 333.401 328.602 333.401 M328.602 324.142 Q343.128 324.142 350.766 335.658 Q358.463 347.117 358.463 368.991 Q358.463 390.808 350.766 402.325 Q343.128 413.783 328.602 413.783 Q314.077 413.783 306.38 402.325 Q298.741 390.808 298.741 368.991 Q298.741 347.117 306.38 335.658 Q314.077 324.142 328.602 324.142 Z" fill="#000000" fill-rule="nonzero" fill-opacity="1" /><path clip-path="url(#clip380)" d="M154.818 116.98 L173.916 116.98 L173.916 51.0662 L153.14 55.2329 L153.14 44.5848 L173.8 40.4181 L185.49 40.4181 L185.49 116.98 L204.587 116.98 L204.587 126.818 L154.818 126.818 L154.818 116.98 Z" fill="#000000" fill-rule="nonzero" fill-opacity="1" /><path clip-path="url(#clip380)" d="M253.197 48.1148 Q244.17 48.1148 239.598 57.0268 Q235.084 65.881 235.084 83.7049 Q235.084 101.471 239.598 110.383 Q244.17 119.237 253.197 119.237 Q262.283 119.237 266.797 110.383 Q271.369 101.471 271.369 83.7049 Q271.369 65.881 266.797 57.0268 Q262.283 48.1148 253.197 48.1148 M253.197 38.8556 Q267.723 38.8556 275.362 50.3718 Q283.058 61.83 283.058 83.7049 Q283.058 105.522 275.362 117.038 Q267.723 128.496 253.197 128.496 Q238.672 128.496 230.975 117.038 Q223.337 105.522 223.337 83.7049 Q223.337 61.83 230.975 50.3718 Q238.672 38.8556 253.197 38.8556 Z" fill="#000000" fill-rule="nonzero" fill-opacity="1" /><path clip-path="url(#clip380)" d="M328.602 48.1148 Q319.574 48.1148 315.003 57.0268 Q310.489 65.881 310.489 83.7049 Q310.489 101.471 315.003 110.383 Q319.574 119.237 328.602 119.237 Q337.688 119.237 342.202 110.383 Q346.773 101.471 346.773 83.7049 Q346.773 65.881 342.202 57.0268 Q337.688 48.1148 328.602 48.1148 M328.602 38.8556 Q343.128 38.8556 350.766 50.3718 Q358.463 61.83 358.463 83.7049 Q358.463 105.522 350.766 117.038 Q343.128 128.496 328.602 128.496 Q314.077 128.496 306.38 117.038 Q298.741 105.522 298.741 83.7049 Q298.741 61.83 306.38 50.3718 Q314.077 38.8556 328.602 38.8556 Z" fill="#000000" fill-rule="nonzero" fill-opacity="1" /><path clip-path="url(#clip380)" d="M12.7484 964.04 Q12.7484 976.772 22.239 984.295 Q31.7297 991.76 48.107 991.76 Q64.4263 991.76 73.917 984.295 Q83.4077 976.772 83.4077 964.04 Q83.4077 951.309 73.917 943.902 Q64.4263 936.436 48.107 936.436 Q31.7297 936.436 22.239 943.902 Q12.7484 951.309 12.7484 964.04 M3.25767 964.04 Q3.25767 945.869 15.4682 934.99 Q27.621 924.11 48.107 924.11 Q68.5351 924.11 80.7457 934.99 Q92.8984 945.869 92.8984 964.04 Q92.8984 982.269 80.7457 993.207 Q68.593 1004.09 48.107 1004.09 Q27.621 1004.09 15.4682 993.207 Q3.25767 982.269 3.25767 964.04 Z" fill="#000000" fill-rule="nonzero" fill-opacity="1" /><path clip-path="url(#clip380)" d="M36.3593 868.728 Q35.3177 870.522 34.8547 872.663 Q34.3339 874.747 34.3339 877.293 Q34.3339 886.321 40.2366 891.182 Q46.0815 895.985 57.0768 895.985 L91.2202 895.985 L91.2202 906.691 L26.4057 906.691 L26.4057 895.985 L36.4751 895.985 Q30.5723 892.629 27.7367 887.247 Q24.8432 881.865 24.8432 874.168 Q24.8432 873.069 25.0168 871.738 Q25.1325 870.407 25.4219 868.786 L36.3593 868.728 Z" fill="#000000" fill-rule="nonzero" fill-opacity="1" /><path clip-path="url(#clip380)" d="M36.2436 816.992 L1.17434 816.992 L1.17434 806.344 L91.2202 806.344 L91.2202 816.992 L81.498 816.992 Q87.285 820.349 90.1206 825.499 Q92.8984 830.592 92.8984 837.768 Q92.8984 849.515 83.5234 856.923 Q74.1485 864.272 58.8708 864.272 Q43.5931 864.272 34.2181 856.923 Q24.8432 849.515 24.8432 837.768 Q24.8432 830.592 27.6788 825.499 Q30.4566 820.349 36.2436 816.992 M58.8708 853.277 Q70.6184 853.277 77.3313 848.474 Q83.9864 843.613 83.9864 835.164 Q83.9864 826.715 77.3313 821.854 Q70.6184 816.992 58.8708 816.992 Q47.1232 816.992 40.4681 821.854 Q33.7552 826.715 33.7552 835.164 Q33.7552 843.613 40.4681 848.474 Q47.1232 853.277 58.8708 853.277 Z" fill="#000000" fill-rule="nonzero" fill-opacity="1" /><path clip-path="url(#clip380)" d="M56.1509 728.972 L61.3592 728.972 L61.3592 777.93 Q72.3545 777.236 78.1415 771.333 Q83.8707 765.372 83.8707 754.782 Q83.8707 748.648 82.366 742.919 Q80.8614 737.132 77.8522 731.461 L87.9216 731.461 Q90.3521 737.19 91.6252 743.208 Q92.8984 749.227 92.8984 755.419 Q92.8984 770.928 83.8707 780.014 Q74.8429 789.041 59.4495 789.041 Q43.5352 789.041 34.2181 780.476 Q24.8432 771.854 24.8432 757.271 Q24.8432 744.192 33.2922 736.611 Q41.6834 728.972 56.1509 728.972 M53.0259 739.62 Q44.2875 739.736 39.0792 744.539 Q33.8709 749.285 33.8709 757.155 Q33.8709 766.067 38.9056 771.449 Q43.9403 776.773 53.0838 777.583 L53.0259 739.62 Z" fill="#000000" fill-rule="nonzero" fill-opacity="1" /><path clip-path="url(#clip380)" d="M36.3593 673.938 Q35.3177 675.732 34.8547 677.873 Q34.3339 679.956 34.3339 682.502 Q34.3339 691.53 40.2366 696.391 Q46.0815 701.195 57.0768 701.195 L91.2202 701.195 L91.2202 711.9 L26.4057 711.9 L26.4057 701.195 L36.4751 701.195 Q30.5723 697.838 27.7367 692.456 Q24.8432 687.074 24.8432 679.377 Q24.8432 678.278 25.0168 676.947 Q25.1325 675.616 25.4219 673.996 L36.3593 673.938 Z" fill="#000000" fill-rule="nonzero" fill-opacity="1" /><path clip-path="url(#clip380)" d="M11.4752 559.934 L23.8015 559.934 Q18.3039 565.836 15.584 572.549 Q12.8641 579.204 12.8641 586.728 Q12.8641 601.542 21.9497 609.413 Q30.9774 617.283 48.107 617.283 Q65.1786 617.283 74.2642 609.413 Q83.292 601.542 83.292 586.728 Q83.292 579.204 80.5721 572.549 Q77.8522 565.836 72.3545 559.934 L84.5651 559.934 Q88.7317 566.068 90.8151 572.954 Q92.8984 579.783 92.8984 587.422 Q92.8984 607.04 80.9193 618.325 Q68.8823 629.609 48.107 629.609 Q27.2737 629.609 15.2946 618.325 Q3.25767 607.04 3.25767 587.422 Q3.25767 579.667 5.34099 572.839 Q7.36644 565.952 11.4752 559.934 Z" fill="#000000" fill-rule="nonzero" fill-opacity="1" /><path clip-path="url(#clip380)" d="M33.8709 517.226 Q33.8709 525.79 40.5839 530.767 Q47.2389 535.744 58.8708 535.744 Q70.5027 535.744 77.2156 530.825 Q83.8707 525.848 83.8707 517.226 Q83.8707 508.719 77.1577 503.742 Q70.4448 498.765 58.8708 498.765 Q47.3547 498.765 40.6417 503.742 Q33.8709 508.719 33.8709 517.226 M24.8432 517.226 Q24.8432 503.337 33.8709 495.409 Q42.8987 487.48 58.8708 487.48 Q74.7851 487.48 83.8707 495.409 Q92.8984 503.337 92.8984 517.226 Q92.8984 531.172 83.8707 539.1 Q74.7851 546.971 58.8708 546.971 Q42.8987 546.971 33.8709 539.1 Q24.8432 531.172 24.8432 517.226 Z" fill="#000000" fill-rule="nonzero" fill-opacity="1" /><path clip-path="url(#clip380)" d="M28.3154 428.511 L38.3848 428.511 Q36.07 433.025 34.9126 437.886 Q33.7552 442.747 33.7552 447.955 Q33.7552 455.883 36.1857 459.876 Q38.6163 463.812 43.4774 463.812 Q47.181 463.812 49.3222 460.976 Q51.4056 458.14 53.3153 449.575 L54.1254 445.93 Q56.556 434.587 61.012 429.842 Q65.4101 425.039 73.3383 425.039 Q82.366 425.039 87.6322 432.214 Q92.8984 439.332 92.8984 451.832 Q92.8984 457.041 91.8567 462.712 Q90.8729 468.325 88.8475 474.575 L77.8522 474.575 Q80.9193 468.673 82.4818 462.943 Q83.9864 457.214 83.9864 451.601 Q83.9864 444.078 81.4401 440.027 Q78.836 435.976 74.1485 435.976 Q69.8082 435.976 67.4934 438.927 Q65.1786 441.821 63.0374 451.717 L62.1694 455.42 Q60.0861 465.316 55.8037 469.714 Q51.4634 474.112 43.9403 474.112 Q34.7968 474.112 29.82 467.631 Q24.8432 461.149 24.8432 449.228 Q24.8432 443.326 25.7112 438.117 Q26.5793 432.909 28.3154 428.511 Z" fill="#000000" fill-rule="nonzero" fill-opacity="1" /><path clip-path="url(#clip380)" d="M8.00301 397.55 L26.4057 397.55 L26.4057 375.618 L34.6811 375.618 L34.6811 397.55 L69.8661 397.55 Q77.7943 397.55 80.0512 395.409 Q82.3082 393.21 82.3082 386.555 L82.3082 375.618 L91.2202 375.618 L91.2202 386.555 Q91.2202 398.881 86.6484 403.569 Q82.0188 408.256 69.8661 408.256 L34.6811 408.256 L34.6811 416.069 L26.4057 416.069 L26.4057 408.256 L8.00301 408.256 L8.00301 397.55 Z" fill="#000000" fill-rule="nonzero" fill-opacity="1" /><polyline clip-path="url(#clip382)" style="stroke:#009af9; stroke-linecap:round; stroke-linejoin:round; stroke-width:12; stroke-opacity:1; fill:none" points="449.887,1296.09 1065.7,1253.29 1681.52,796.834 2297.33,83.6181 "/>
<circle clip-path="url(#clip382)" cx="449.887" cy="1296.09" r="14.4" fill="#009af9" fill-rule="evenodd" fill-opacity="1" stroke="#000000" stroke-opacity="1" stroke-width="3.2"/>
<circle clip-path="url(#clip382)" cx="1065.7" cy="1253.29" r="14.4" fill="#009af9" fill-rule="evenodd" fill-opacity="1" stroke="#000000" stroke-opacity="1" stroke-width="3.2"/>
<circle clip-path="url(#clip382)" cx="1681.52" cy="796.834" r="14.4" fill="#009af9" fill-rule="evenodd" fill-opacity="1" stroke="#000000" stroke-opacity="1" stroke-width="3.2"/>
<circle clip-path="url(#clip382)" cx="2297.33" cy="83.6181" r="14.4" fill="#009af9" fill-rule="evenodd" fill-opacity="1" stroke="#000000" stroke-opacity="1" stroke-width="3.2"/>
<path clip-path="url(#clip380)" d="M459.74 349.285 L786.645 349.285 L786.645 90.0846 L459.74 90.0846  Z" fill="#ffffff" fill-rule="evenodd" fill-opacity="1"/>
<polyline clip-path="url(#clip380)" style="stroke:#000000; stroke-linecap:round; stroke-linejoin:round; stroke-width:4; stroke-opacity:1; fill:none" points="459.74,349.285 786.645,349.285 786.645,90.0846 459.74,90.0846 459.74,349.285 "/>
<polyline clip-path="url(#clip380)" style="stroke:#009af9; stroke-linecap:round; stroke-linejoin:round; stroke-width:30; stroke-opacity:1; fill:none" points="481.498,219.685 612.051,219.685 "/>
<circle clip-path="url(#clip380)" cx="546.775" cy="219.685" r="7.25294" fill="#009af9" fill-rule="evenodd" fill-opacity="1" stroke="#000000" stroke-opacity="1" stroke-width="6.44705"/>
<path clip-path="url(#clip380)" d="M668.416 268.903 Q663.902 280.477 659.62 284.007 Q655.338 287.537 648.162 287.537 L639.655 287.537 L639.655 278.625 L645.905 278.625 Q650.303 278.625 652.734 276.542 Q655.164 274.459 658.115 266.704 L660.025 261.843 L633.81 198.07 L645.095 198.07 L665.349 248.764 L685.604 198.07 L696.888 198.07 L668.416 268.903 Z" fill="#000000" fill-rule="nonzero" fill-opacity="1" /><path clip-path="url(#clip380)" d="M715.117 253.047 L734.215 253.047 L734.215 187.133 L713.439 191.299 L713.439 180.651 L734.099 176.485 L745.789 176.485 L745.789 253.047 L764.886 253.047 L764.886 262.885 L715.117 262.885 L715.117 253.047 Z" fill="#000000" fill-rule="nonzero" fill-opacity="1" /></svg>
