<?xml version="1.0" encoding="utf-8"?>
<svg xmlns="http://www.w3.org/2000/svg" xmlns:xlink="http://www.w3.org/1999/xlink" width="600" height="400" viewBox="0 0 2400 1600">
<defs>
  <clipPath id="clip350">
    <rect x="0" y="0" width="2400" height="1600"/>
  </clipPath>
</defs>
<path clip-path="url(#clip350)" d="M0 1600 L2400 1600 L2400 0 L0 0  Z" fill="#ffffff" fill-rule="evenodd" fill-opacity="1"/>
<defs>
  <clipPath id="clip351">
    <rect x="480" y="0" width="1681" height="1600"/>
  </clipPath>
</defs>
<path clip-path="url(#clip350)" d="M326.292 1332.46 L2352.76 1332.46 L2352.76 47.2441 L326.292 47.2441  Z" fill="#ffffff" fill-rule="evenodd" fill-opacity="1"/>
<defs>
  <clipPath id="clip352">
    <rect x="326" y="47" width="2027" height="1286"/>
  </clipPath>
</defs>
<polyline clip-path="url(#clip352)" style="stroke:#000000; stroke-linecap:round; stroke-linejoin:round; stroke-width:2; stroke-opacity:0.1; fill:none" points="383.645,1332.46 383.645,47.2441 "/>
<polyline clip-path="url(#clip352)" style="stroke:#000000; stroke-linecap:round; stroke-linejoin:round; stroke-width:2; stroke-opacity:0.1; fill:none" points="1020.9,1332.46 1020.9,47.2441 "/>
<polyline clip-path="url(#clip352)" style="stroke:#000000; stroke-linecap:round; stroke-linejoin:round; stroke-width:2; stroke-opacity:0.1; fill:none" points="1658.15,1332.46 1658.15,47.2441 "/>
<polyline clip-path="url(#clip352)" style="stroke:#000000; stroke-linecap:round; stroke-linejoin:round; stroke-width:2; stroke-opacity:0.1; fill:none" points="2295.4,1332.46 2295.4,47.2441 "/>
<polyline clip-path="url(#clip352)" style="stroke:#000000; stroke-linecap:round; stroke-linejoin:round; stroke-width:2; stroke-opacity:0.1; fill:none" points="326.292,1320.83 2352.76,1320.83 "/>
<polyline clip-path="url(#clip352)" style="stroke:#000000; stroke-linecap:round; stroke-linejoin:round; stroke-width:2; stroke-opacity:0.1; fill:none" points="326.292,1073.39 2352.76,1073.39 "/>
<polyline clip-path="url(#clip352)" style="stroke:#000000; stroke-linecap:round; stroke-linejoin:round; stroke-width:2; stroke-opacity:0.1; fill:none" points="326.292,825.945 2352.76,825.945 "/>
<polyline clip-path="url(#clip352)" style="stroke:#000000; stroke-linecap:round; stroke-linejoin:round; stroke-width:2; stroke-opacity:0.1; fill:none" points="326.292,578.503 2352.76,578.503 "/>
<polyline clip-path="url(#clip352)" style="stroke:#000000; stroke-linecap:round; stroke-linejoin:round; stroke-width:2; stroke-opacity:0.1; fill:none" points="326.292,331.061 2352.76,331.061 "/>
<polyline clip-path="url(#clip352)" style="stroke:#000000; stroke-linecap:round; stroke-linejoin:round; stroke-width:2; stroke-opacity:0.1; fill:none" points="326.292,83.6181 2352.76,83.6181 "/>
<polyline clip-path="url(#clip350)" style="stroke:#000000; stroke-linecap:round; stroke-linejoin:round; stroke-width:4; stroke-opacity:1; fill:none" points="326.292,1332.46 2352.76,1332.46 "/>
<polyline clip-path="url(#clip350)" style="stroke:#000000; stroke-linecap:round; stroke-linejoin:round; stroke-width:4; stroke-opacity:1; fill:none" points="383.645,1332.46 383.645,1313.56 "/>
<polyline clip-path="url(#clip350)" style="stroke:#000000; stroke-linecap:round; stroke-linejoin:round; stroke-width:4; stroke-opacity:1; fill:none" points="1020.9,1332.46 1020.9,1313.56 "/>
<polyline clip-path="url(#clip350)" style="stroke:#000000; stroke-linecap:round; stroke-linejoin:round; stroke-width:4; stroke-opacity:1; fill:none" points="1658.15,1332.46 1658.15,1313.56 "/>
<polyline clip-path="url(#clip350)" style="stroke:#000000; stroke-linecap:round; stroke-linejoin:round; stroke-width:4; stroke-opacity:1; fill:none" points="2295.4,1332.46 2295.4,1313.56 "/>
<path clip-path="url(#clip350)" d="M359.6 1449.82 L378.697 1449.82 L378.697 1383.91 L357.922 1388.07 L357.922 1377.43 L378.581 1373.26 L390.271 1373.26 L390.271 1449.82 L409.368 1449.82 L409.368 1459.66 L359.6 1459.66 L359.6 1449.82 Z" fill="#000000" fill-rule="nonzero" fill-opacity="1" /><path clip-path="url(#clip350)" d="M1007.53 1449.82 L1048.33 1449.82 L1048.33 1459.66 L993.467 1459.66 L993.467 1449.82 Q1000.12 1442.94 1011.58 1431.36 Q1023.1 1419.73 1026.05 1416.37 Q1031.66 1410.07 1033.86 1405.72 Q1036.12 1401.33 1036.12 1397.1 Q1036.12 1390.22 1031.26 1385.88 Q1026.45 1381.54 1018.7 1381.54 Q1013.2 1381.54 1007.07 1383.44 Q1000.99 1385.35 994.046 1389.23 L994.046 1377.43 Q1001.11 1374.59 1007.24 1373.14 Q1013.37 1371.7 1018.47 1371.7 Q1031.89 1371.7 1039.88 1378.41 Q1047.87 1385.12 1047.87 1396.35 Q1047.87 1401.67 1045.84 1406.48 Q1043.87 1411.22 1038.61 1417.7 Q1037.16 1419.38 1029.4 1427.43 Q1021.65 1435.41 1007.53 1449.82 Z" fill="#000000" fill-rule="nonzero" fill-opacity="1" /><path clip-path="url(#clip350)" d="M1668.77 1413.07 Q1677.16 1414.87 1681.85 1420.54 Q1686.59 1426.21 1686.59 1434.54 Q1686.59 1447.33 1677.8 1454.34 Q1669 1461.34 1652.8 1461.34 Q1647.36 1461.34 1641.57 1460.24 Q1635.84 1459.2 1629.71 1457.06 L1629.71 1445.77 Q1634.57 1448.61 1640.36 1450.05 Q1646.14 1451.5 1652.45 1451.5 Q1663.45 1451.5 1669.17 1447.16 Q1674.96 1442.82 1674.96 1434.54 Q1674.96 1426.91 1669.58 1422.62 Q1664.26 1418.28 1654.71 1418.28 L1644.64 1418.28 L1644.64 1408.68 L1655.17 1408.68 Q1663.79 1408.68 1668.36 1405.26 Q1672.94 1401.79 1672.94 1395.31 Q1672.94 1388.65 1668.19 1385.12 Q1663.5 1381.54 1654.71 1381.54 Q1649.9 1381.54 1644.41 1382.58 Q1638.91 1383.62 1632.31 1385.82 L1632.31 1375.4 Q1638.97 1373.55 1644.75 1372.62 Q1650.6 1371.7 1655.75 1371.7 Q1669.06 1371.7 1676.81 1377.77 Q1684.57 1383.79 1684.57 1394.09 Q1684.57 1401.27 1680.46 1406.25 Q1676.35 1411.16 1668.77 1413.07 Z" fill="#000000" fill-rule="nonzero" fill-opacity="1" /><path clip-path="url(#clip350)" d="M2302.93 1383.44 L2273.41 1429.57 L2302.93 1429.57 L2302.93 1383.44 M2299.86 1373.26 L2314.56 1373.26 L2314.56 1429.57 L2326.88 1429.57 L2326.88 1439.29 L2314.56 1439.29 L2314.56 1459.66 L2302.93 1459.66 L2302.93 1439.29 L2263.92 1439.29 L2263.92 1428 L2299.86 1373.26 Z" fill="#000000" fill-rule="nonzero" fill-opacity="1" /><path clip-path="url(#clip350)" d="M1337.82 1518.52 L1337.82 1536.93 L1359.75 1536.93 L1359.75 1545.2 L1337.82 1545.2 L1337.82 1580.39 Q1337.82 1588.31 1339.96 1590.57 Q1342.16 1592.83 1348.81 1592.83 L1359.75 1592.83 L1359.75 1601.74 L1348.81 1601.74 Q1336.49 1601.74 1331.8 1597.17 Q1327.11 1592.54 1327.11 1580.39 L1327.11 1545.2 L1319.3 1545.2 L1319.3 1536.93 L1327.11 1536.93 L1327.11 1518.52 L1337.82 1518.52 Z" fill="#000000" fill-rule="nonzero" fill-opacity="1" /><polyline clip-path="url(#clip350)" style="stroke:#000000; stroke-linecap:round; stroke-linejoin:round; stroke-width:4; stroke-opacity:1; fill:none" points="326.292,1332.46 326.292,47.2441 "/>
<polyline clip-path="url(#clip350)" style="stroke:#000000; stroke-linecap:round; stroke-linejoin:round; stroke-width:4; stroke-opacity:1; fill:none" points="326.292,1320.83 345.19,1320.83 "/>
<polyline clip-path="url(#clip350)" style="stroke:#000000; stroke-linecap:round; stroke-linejoin:round; stroke-width:4; stroke-opacity:1; fill:none" points="326.292,1073.39 345.19,1073.39 "/>
<polyline clip-path="url(#clip350)" style="stroke:#000000; stroke-linecap:round; stroke-linejoin:round; stroke-width:4; stroke-opacity:1; fill:none" points="326.292,825.945 345.19,825.945 "/>
<polyline clip-path="url(#clip350)" style="stroke:#000000; stroke-linecap:round; stroke-linejoin:round; stroke-width:4; stroke-opacity:1; fill:none" points="326.292,578.503 345.19,578.503 "/>
<polyline clip-path="url(#clip350)" style="stroke:#000000; stroke-linecap:round; stroke-linejoin:round; stroke-width:4; stroke-opacity:1; fill:none" points="326.292,331.061 345.19,331.061 "/>
<polyline clip-path="url(#clip350)" style="stroke:#000000; stroke-linecap:round; stroke-linejoin:round; stroke-width:4; stroke-opacity:1; fill:none" points="326.292,83.6181 345.19,83.6181 "/>
<path clip-path="url(#clip350)" d="M260.431 1285.33 Q251.404 1285.33 246.832 1294.24 Q242.318 1303.09 242.318 1320.92 Q242.318 1338.68 246.832 1347.59 Q251.404 1356.45 260.431 1356.45 Q269.517 1356.45 274.031 1347.59 Q278.602 1338.68 278.602 1320.92 Q278.602 1303.09 274.031 1294.24 Q269.517 1285.33 260.431 1285.33 M260.431 1276.07 Q274.957 1276.07 282.595 1287.58 Q290.292 1299.04 290.292 1320.92 Q290.292 1342.73 282.595 1354.25 Q274.957 1365.71 260.431 1365.71 Q245.906 1365.71 238.209 1354.25 Q230.57 1342.73 230.57 1320.92 Q230.57 1299.04 238.209 1287.58 Q245.906 1276.07 260.431 1276.07 Z" fill="#000000" fill-rule="nonzero" fill-opacity="1" /><path clip-path="url(#clip350)" d="M162.052 1106.75 L181.149 1106.75 L181.149 1040.84 L160.374 1045 L160.374 1034.35 L181.034 1030.19 L192.723 1030.19 L192.723 1106.75 L211.82 1106.75 L211.82 1116.59 L162.052 1116.59 L162.052 1106.75 Z" fill="#000000" fill-rule="nonzero" fill-opacity="1" /><path clip-path="url(#clip350)" d="M260.431 1037.88 Q251.404 1037.88 246.832 1046.8 Q242.318 1055.65 242.318 1073.47 Q242.318 1091.24 246.832 1100.15 Q251.404 1109.01 260.431 1109.01 Q269.517 1109.01 274.031 1100.15 Q278.602 1091.24 278.602 1073.47 Q278.602 1055.65 274.031 1046.8 Q269.517 1037.88 260.431 1037.88 M260.431 1028.63 Q274.957 1028.63 282.595 1040.14 Q290.292 1051.6 290.292 1073.47 Q290.292 1095.29 282.595 1106.81 Q274.957 1118.27 260.431 1118.27 Q245.906 1118.27 238.209 1106.81 Q230.57 1095.29 230.57 1073.47 Q230.57 1051.6 238.209 1040.14 Q245.906 1028.63 260.431 1028.63 Z" fill="#000000" fill-rule="nonzero" fill-opacity="1" /><path clip-path="url(#clip350)" d="M170.096 859.307 L210.894 859.307 L210.894 869.145 L156.034 869.145 L156.034 859.307 Q162.689 852.421 174.147 840.847 Q185.663 829.215 188.615 825.858 Q194.228 819.551 196.427 815.21 Q198.684 810.812 198.684 806.588 Q198.684 799.701 193.823 795.361 Q189.02 791.021 181.265 791.021 Q175.767 791.021 169.633 792.93 Q163.557 794.84 156.612 798.717 L156.612 786.912 Q163.673 784.076 169.807 782.63 Q175.941 781.183 181.034 781.183 Q194.459 781.183 202.445 787.896 Q210.432 794.609 210.432 805.835 Q210.432 811.159 208.406 815.963 Q206.438 820.708 201.172 827.189 Q199.726 828.868 191.971 836.912 Q184.216 844.898 170.096 859.307 Z" fill="#000000" fill-rule="nonzero" fill-opacity="1" /><path clip-path="url(#clip350)" d="M260.431 790.442 Q251.404 790.442 246.832 799.354 Q242.318 808.208 242.318 826.032 Q242.318 843.798 246.832 852.71 Q251.404 861.564 260.431 861.564 Q269.517 861.564 274.031 852.71 Q278.602 843.798 278.602 826.032 Q278.602 808.208 274.031 799.354 Q269.517 790.442 260.431 790.442 M260.431 781.183 Q274.957 781.183 282.595 792.699 Q290.292 804.157 290.292 826.032 Q290.292 847.849 282.595 859.365 Q274.957 870.824 260.431 870.824 Q245.906 870.824 238.209 859.365 Q230.57 847.849 230.57 826.032 Q230.57 804.157 238.209 792.699 Q245.906 781.183 260.431 781.183 Z" fill="#000000" fill-rule="nonzero" fill-opacity="1" /><path clip-path="url(#clip350)" d="M195.443 575.117 Q203.834 576.911 208.522 582.583 Q213.267 588.254 213.267 596.587 Q213.267 609.377 204.471 616.379 Q195.675 623.381 179.471 623.381 Q174.031 623.381 168.244 622.282 Q162.515 621.24 156.381 619.099 L156.381 607.814 Q161.242 610.65 167.029 612.096 Q172.816 613.543 179.124 613.543 Q190.119 613.543 195.848 609.203 Q201.635 604.863 201.635 596.587 Q201.635 588.948 196.253 584.666 Q190.929 580.326 181.381 580.326 L171.311 580.326 L171.311 570.719 L181.844 570.719 Q190.466 570.719 195.038 567.305 Q199.61 563.833 199.61 557.351 Q199.61 550.696 194.864 547.166 Q190.177 543.578 181.381 543.578 Q176.578 543.578 171.08 544.62 Q165.582 545.662 158.985 547.861 L158.985 537.444 Q165.64 535.592 171.427 534.666 Q177.272 533.74 182.422 533.74 Q195.733 533.74 203.487 539.817 Q211.242 545.835 211.242 556.136 Q211.242 563.312 207.133 568.289 Q203.024 573.208 195.443 575.117 Z" fill="#000000" fill-rule="nonzero" fill-opacity="1" /><path clip-path="url(#clip350)" d="M260.431 543 Q251.404 543 246.832 551.912 Q242.318 560.766 242.318 578.59 Q242.318 596.356 246.832 605.268 Q251.404 614.122 260.431 614.122 Q269.517 614.122 274.031 605.268 Q278.602 596.356 278.602 578.59 Q278.602 560.766 274.031 551.912 Q269.517 543 260.431 543 M260.431 533.74 Q274.957 533.74 282.595 545.257 Q290.292 556.715 290.292 578.59 Q290.292 600.407 282.595 611.923 Q274.957 623.381 260.431 623.381 Q245.906 623.381 238.209 611.923 Q230.57 600.407 230.57 578.59 Q230.57 556.715 238.209 545.257 Q245.906 533.74 260.431 533.74 Z" fill="#000000" fill-rule="nonzero" fill-opacity="1" /><path clip-path="url(#clip350)" d="M192.145 298.046 L162.631 344.168 L192.145 344.168 L192.145 298.046 M189.077 287.861 L203.776 287.861 L203.776 344.168 L216.103 344.168 L216.103 353.89 L203.776 353.89 L203.776 374.261 L192.145 374.261 L192.145 353.89 L153.14 353.89 L153.14 342.606 L189.077 287.861 Z" fill="#000000" fill-rule="nonzero" fill-opacity="1" /><path clip-path="url(#clip350)" d="M260.431 295.557 Q251.404 295.557 246.832 304.469 Q242.318 313.323 242.318 331.147 Q242.318 348.913 246.832 357.825 Q251.404 366.68 260.431 366.68 Q269.517 366.68 274.031 357.825 Q278.602 348.913 278.602 331.147 Q278.602 313.323 274.031 304.469 Q269.517 295.557 260.431 295.557 M260.431 286.298 Q274.957 286.298 282.595 297.814 Q290.292 309.272 290.292 331.147 Q290.292 352.964 282.595 364.48 Q274.957 375.939 260.431 375.939 Q245.906 375.939 238.209 364.48 Q230.57 352.964 230.57 331.147 Q230.57 309.272 238.209 297.814 Q245.906 286.298 260.431 286.298 Z" fill="#000000" fill-rule="nonzero" fill-opacity="1" /><path clip-path="url(#clip350)" d="M160.142 40.4181 L206.033 40.4181 L206.033 50.256 L170.848 50.256 L170.848 71.4365 Q173.395 70.5684 175.941 70.1633 Q178.487 69.7004 181.034 69.7004 Q195.501 69.7004 203.95 77.6286 Q212.399 85.5568 212.399 99.0984 Q212.399 113.045 203.719 120.8 Q195.038 128.496 179.24 128.496 Q173.8 128.496 168.129 127.57 Q162.515 126.645 156.497 124.793 L156.497 113.045 Q161.705 115.881 167.26 117.27 Q172.816 118.658 179.008 118.658 Q189.02 118.658 194.864 113.392 Q200.709 108.126 200.709 99.0984 Q200.709 90.0706 194.864 84.8045 Q189.02 79.5383 179.008 79.5383 Q174.321 79.5383 169.633 80.5799 Q165.004 81.6216 160.142 83.8207 L160.142 40.4181 Z" fill="#000000" fill-rule="nonzero" fill-opacity="1" /><path clip-path="url(#clip350)" d="M260.431 48.1148 Q251.404 48.1148 246.832 57.0268 Q242.318 65.881 242.318 83.7049 Q242.318 101.471 246.832 110.383 Q251.404 119.237 260.431 119.237 Q269.517 119.237 274.031 110.383 Q278.602 101.471 278.602 83.7049 Q278.602 65.881 274.031 57.0268 Q269.517 48.1148 260.431 48.1148 M260.431 38.8556 Q274.957 38.8556 282.595 50.3718 Q290.292 61.83 290.292 83.7049 Q290.292 105.522 282.595 117.038 Q274.957 128.496 260.431 128.496 Q245.906 128.496 238.209 117.038 Q230.57 105.522 230.57 83.7049 Q230.57 61.83 238.209 50.3718 Q245.906 38.8556 260.431 38.8556 Z" fill="#000000" fill-rule="nonzero" fill-opacity="1" /><path clip-path="url(#clip350)" d="M4.82016 977.032 L4.82016 959.613 L63.6161 937.565 L4.82016 915.401 L4.82016 897.982 L91.2202 897.982 L91.2202 909.382 L15.3525 909.382 L74.6115 931.662 L74.6115 943.41 L15.3525 965.69 L91.2202 965.69 L91.2202 977.032 L4.82016 977.032 Z" fill="#000000" fill-rule="nonzero" fill-opacity="1" /><path clip-path="url(#clip350)" d="M58.6393 845.783 Q58.6393 858.688 61.5907 863.665 Q64.5421 868.642 71.6601 868.642 Q77.3313 868.642 80.6878 864.938 Q83.9864 861.176 83.9864 854.753 Q83.9864 845.899 77.7364 840.575 Q71.4286 835.193 61.012 835.193 L58.6393 835.193 L58.6393 845.783 M54.2412 824.545 L91.2202 824.545 L91.2202 835.193 L81.3822 835.193 Q87.285 838.838 90.1206 844.278 Q92.8984 849.718 92.8984 857.588 Q92.8984 867.542 87.3429 873.445 Q81.7295 879.29 72.3545 879.29 Q61.4171 879.29 55.8616 871.998 Q50.306 864.648 50.306 850.123 L50.306 835.193 L49.2644 835.193 Q41.9149 835.193 37.9218 840.054 Q33.8709 844.857 33.8709 853.595 Q33.8709 859.151 35.2019 864.417 Q36.533 869.683 39.195 874.544 L29.3571 874.544 Q27.1001 868.699 26.0006 863.202 Q24.8432 857.704 24.8432 852.496 Q24.8432 838.433 32.1348 831.489 Q39.4265 824.545 54.2412 824.545 Z" fill="#000000" fill-rule="nonzero" fill-opacity="1" /><path clip-path="url(#clip350)" d="M52.1 748.735 L91.2202 748.735 L91.2202 759.383 L52.4472 759.383 Q43.2459 759.383 38.6741 762.971 Q34.1024 766.559 34.1024 773.735 Q34.1024 782.357 39.6001 787.334 Q45.0977 792.311 54.5884 792.311 L91.2202 792.311 L91.2202 803.017 L26.4057 803.017 L26.4057 792.311 L36.4751 792.311 Q30.6302 788.491 27.7367 783.341 Q24.8432 778.133 24.8432 771.362 Q24.8432 760.193 31.7876 754.464 Q38.6741 748.735 52.1 748.735 Z" fill="#000000" fill-rule="nonzero" fill-opacity="1" /><path clip-path="url(#clip350)" d="M76.5212 725.992 L76.5212 713.781 L91.2202 713.781 L91.2202 725.992 L76.5212 725.992 Z" fill="#000000" fill-rule="nonzero" fill-opacity="1" /><path clip-path="url(#clip350)" d="M11.4752 586.988 L23.8015 586.988 Q18.3039 592.891 15.584 599.604 Q12.8641 606.259 12.8641 613.782 Q12.8641 628.597 21.9497 636.467 Q30.9774 644.337 48.107 644.337 Q65.1786 644.337 74.2642 636.467 Q83.292 628.597 83.292 613.782 Q83.292 606.259 80.5721 599.604 Q77.8522 592.891 72.3545 586.988 L84.5651 586.988 Q88.7317 593.122 90.8151 600.009 Q92.8984 606.837 92.8984 614.476 Q92.8984 634.094 80.9193 645.379 Q68.8823 656.663 48.107 656.663 Q27.2737 656.663 15.2946 645.379 Q3.25767 634.094 3.25767 614.476 Q3.25767 606.722 5.34099 599.893 Q7.36644 593.006 11.4752 586.988 Z" fill="#000000" fill-rule="nonzero" fill-opacity="1" /><path clip-path="url(#clip350)" d="M33.8709 544.28 Q33.8709 552.845 40.5839 557.821 Q47.2389 562.798 58.8708 562.798 Q70.5027 562.798 77.2156 557.879 Q83.8707 552.902 83.8707 544.28 Q83.8707 535.773 77.1577 530.796 Q70.4448 525.819 58.8708 525.819 Q47.3547 525.819 40.6417 530.796 Q33.8709 535.773 33.8709 544.28 M24.8432 544.28 Q24.8432 530.391 33.8709 522.463 Q42.8987 514.535 58.8708 514.535 Q74.7851 514.535 83.8707 522.463 Q92.8984 530.391 92.8984 544.28 Q92.8984 558.227 83.8707 566.155 Q74.7851 574.025 58.8708 574.025 Q42.8987 574.025 33.8709 566.155 Q24.8432 558.227 24.8432 544.28 Z" fill="#000000" fill-rule="nonzero" fill-opacity="1" /><path clip-path="url(#clip350)" d="M28.3154 455.565 L38.3848 455.565 Q36.07 460.079 34.9126 464.94 Q33.7552 469.801 33.7552 475.009 Q33.7552 482.938 36.1857 486.931 Q38.6163 490.866 43.4774 490.866 Q47.181 490.866 49.3222 488.03 Q51.4056 485.195 53.3153 476.63 L54.1254 472.984 Q56.556 461.641 61.012 456.896 Q65.4101 452.093 73.3383 452.093 Q82.366 452.093 87.6322 459.269 Q92.8984 466.387 92.8984 478.887 Q92.8984 484.095 91.8567 489.766 Q90.8729 495.38 88.8475 501.63 L77.8522 501.63 Q80.9193 495.727 82.4818 489.998 Q83.9864 484.269 83.9864 478.655 Q83.9864 471.132 81.4401 467.081 Q78.836 463.03 74.1485 463.03 Q69.8082 463.03 67.4934 465.982 Q65.1786 468.875 63.0374 478.771 L62.1694 482.475 Q60.0861 492.37 55.8037 496.769 Q51.4634 501.167 43.9403 501.167 Q34.7968 501.167 29.82 494.685 Q24.8432 488.204 24.8432 476.283 Q24.8432 470.38 25.7112 465.171 Q26.5793 459.963 28.3154 455.565 Z" fill="#000000" fill-rule="nonzero" fill-opacity="1" /><path clip-path="url(#clip350)" d="M8.00301 424.605 L26.4057 424.605 L26.4057 402.672 L34.6811 402.672 L34.6811 424.605 L69.8661 424.605 Q77.7943 424.605 80.0512 422.463 Q82.3082 420.264 82.3082 413.609 L82.3082 402.672 L91.2202 402.672 L91.2202 413.609 Q91.2202 425.936 86.6484 430.623 Q82.0188 435.311 69.8661 435.311 L34.6811 435.311 L34.6811 443.123 L26.4057 443.123 L26.4057 435.311 L8.00301 435.311 L8.00301 424.605 Z" fill="#000000" fill-rule="nonzero" fill-opacity="1" /><polyline clip-path="url(#clip352)" style="stroke:#009af9; stroke-linecap:round; stroke-linejoin:round; stroke-width:12; stroke-opacity:1; fill:none" points="383.645,1271.34 1020.9,1221.85 1658.15,1296.09 2295.4,83.6181 "/>
<circle clip-path="url(#clip352)" cx="383.645" cy="1271.34" r="14.4" fill="#009af9" fill-rule="evenodd" fill-opacity="1" stroke="#000000" stroke-opacity="1" stroke-width="3.2"/>
<circle clip-path="url(#clip352)" cx="1020.9" cy="1221.85" r="14.4" fill="#009af9" fill-rule="evenodd" fill-opacity="1" stroke="#000000" stroke-opacity="1" stroke-width="3.2"/>
<circle clip-path="url(#clip352)" cx="1658.15" cy="1296.09" r="14.4" fill="#009af9" fill-rule="evenodd" fill-opacity="1" stroke="#000000" stroke-opacity="1" stroke-width="3.2"/>
<circle clip-path="url(#clip352)" cx="2295.4" cy="83.6181" r="14.4" fill="#009af9" fill-rule="evenodd" fill-opacity="1" stroke="#000000" stroke-opacity="1" stroke-width="3.2"/>
<path clip-path="url(#clip350)" d="M393.841 349.285 L727.563 349.285 L727.563 90.0846 L393.841 90.0846  Z" fill="#ffffff" fill-rule="evenodd" fill-opacity="1"/>
<polyline clip-path="url(#clip350)" style="stroke:#000000; stroke-linecap:round; stroke-linejoin:round; stroke-width:4; stroke-opacity:1; fill:none" points="393.841,349.285 727.563,349.285 727.563,90.0846 393.841,90.0846 393.841,349.285 "/>
<polyline clip-path="url(#clip350)" style="stroke:#009af9; stroke-linecap:round; stroke-linejoin:round; stroke-width:30; stroke-opacity:1; fill:none" points="416.357,219.685 551.455,219.685 "/>
<circle clip-path="url(#clip350)" cx="483.906" cy="219.685" r="7.50542" fill="#009af9" fill-rule="evenodd" fill-opacity="1" stroke="#000000" stroke-opacity="1" stroke-width="6.67149"/>
<path clip-path="url(#clip350)" d="M608.577 268.903 Q604.064 280.477 599.781 284.007 Q595.499 287.537 588.323 287.537 L579.816 287.537 L579.816 278.625 L586.066 278.625 Q590.464 278.625 592.895 276.542 Q595.325 274.459 598.277 266.704 L600.186 261.843 L573.971 198.07 L585.256 198.07 L605.51 248.764 L625.765 198.07 L637.049 198.07 L608.577 268.903 Z" fill="#000000" fill-rule="nonzero" fill-opacity="1" /><path clip-path="url(#clip350)" d="M655.279 253.047 L674.376 253.047 L674.376 187.133 L653.6 191.299 L653.6 180.651 L674.26 176.485 L685.95 176.485 L685.95 253.047 L705.047 253.047 L705.047 262.885 L655.279 262.885 L655.279 253.047 Z" fill="#000000" fill-rule="nonzero" fill-opacity="1" /></svg>
