<?xml version="1.0" encoding="utf-8"?>
<svg xmlns="http://www.w3.org/2000/svg" xmlns:xlink="http://www.w3.org/1999/xlink" width="600" height="400" viewBox="0 0 2400 1600">
<defs>
  <clipPath id="clip320">
    <rect x="0" y="0" width="2400" height="1600"/>
  </clipPath>
</defs>
<path clip-path="url(#clip320)" d="M0 1600 L2400 1600 L2400 0 L0 0  Z" fill="#ffffff" fill-rule="evenodd" fill-opacity="1"/>
<defs>
  <clipPath id="clip321">
    <rect x="480" y="0" width="1681" height="1600"/>
  </clipPath>
</defs>
<path clip-path="url(#clip320)" d="M511.534 1332.46 L2352.76 1332.46 L2352.76 47.2441 L511.534 47.2441  Z" fill="#ffffff" fill-rule="evenodd" fill-opacity="1"/>
<defs>
  <clipPath id="clip322">
    <rect x="511" y="47" width="1842" height="1286"/>
  </clipPath>
</defs>
<polyline clip-path="url(#clip322)" style="stroke:#000000; stroke-linecap:round; stroke-linejoin:round; stroke-width:2; stroke-opacity:0.1; fill:none" points="563.644,1332.46 563.644,47.2441 "/>
<polyline clip-path="url(#clip322)" style="stroke:#000000; stroke-linecap:round; stroke-linejoin:round; stroke-width:2; stroke-opacity:0.1; fill:none" points="1142.64,1332.46 1142.64,47.2441 "/>
<polyline clip-path="url(#clip322)" style="stroke:#000000; stroke-linecap:round; stroke-linejoin:round; stroke-width:2; stroke-opacity:0.1; fill:none" points="1721.65,1332.46 1721.65,47.2441 "/>
<polyline clip-path="url(#clip322)" style="stroke:#000000; stroke-linecap:round; stroke-linejoin:round; stroke-width:2; stroke-opacity:0.1; fill:none" points="2300.65,1332.46 2300.65,47.2441 "/>
<polyline clip-path="url(#clip322)" style="stroke:#000000; stroke-linecap:round; stroke-linejoin:round; stroke-width:2; stroke-opacity:0.1; fill:none" points="511.534,1296.09 2352.76,1296.09 "/>
<polyline clip-path="url(#clip322)" style="stroke:#000000; stroke-linecap:round; stroke-linejoin:round; stroke-width:2; stroke-opacity:0.1; fill:none" points="511.534,992.969 2352.76,992.969 "/>
<polyline clip-path="url(#clip322)" style="stroke:#000000; stroke-linecap:round; stroke-linejoin:round; stroke-width:2; stroke-opacity:0.1; fill:none" points="511.534,689.852 2352.76,689.852 "/>
<polyline clip-path="url(#clip322)" style="stroke:#000000; stroke-linecap:round; stroke-linejoin:round; stroke-width:2; stroke-opacity:0.1; fill:none" points="511.534,386.735 2352.76,386.735 "/>
<polyline clip-path="url(#clip322)" style="stroke:#000000; stroke-linecap:round; stroke-linejoin:round; stroke-width:2; stroke-opacity:0.1; fill:none" points="511.534,83.6181 2352.76,83.6181 "/>
<polyline clip-path="url(#clip320)" style="stroke:#000000; stroke-linecap:round; stroke-linejoin:round; stroke-width:4; stroke-opacity:1; fill:none" points="511.534,1332.46 2352.76,1332.46 "/>
<polyline clip-path="url(#clip320)" style="stroke:#000000; stroke-linecap:round; stroke-linejoin:round; stroke-width:4; stroke-opacity:1; fill:none" points="563.644,1332.46 563.644,1313.56 "/>
<polyline clip-path="url(#clip320)" style="stroke:#000000; stroke-linecap:round; stroke-linejoin:round; stroke-width:4; stroke-opacity:1; fill:none" points="1142.64,1332.46 1142.64,1313.56 "/>
<polyline clip-path="url(#clip320)" style="stroke:#000000; stroke-linecap:round; stroke-linejoin:round; stroke-width:4; stroke-opacity:1; fill:none" points="1721.65,1332.46 1721.65,1313.56 "/>
<polyline clip-path="url(#clip320)" style="stroke:#000000; stroke-linecap:round; stroke-linejoin:round; stroke-width:4; stroke-opacity:1; fill:none" points="2300.65,1332.46 2300.65,1313.56 "/>
<path clip-path="url(#clip320)" d="M539.599 1449.82 L558.696 1449.82 L558.696 1383.91 L537.921 1388.07 L537.921 1377.43 L558.581 1373.26 L570.27 1373.26 L570.27 1449.82 L589.368 1449.82 L589.368 1459.66 L539.599 1459.66 L539.599 1449.82 Z" fill="#000000" fill-rule="nonzero" fill-opacity="1" /><path clip-path="url(#clip320)" d="M1129.28 1449.82 L1170.08 1449.82 L1170.08 1459.66 L1115.21 1459.66 L1115.21 1449.82 Q1121.87 1442.94 1133.33 1431.36 Q1144.84 1419.73 1147.8 1416.37 Q1153.41 1410.07 1155.61 1405.72 Q1157.86 1401.33 1157.86 1397.1 Q1157.86 1390.22 1153 1385.88 Q1148.2 1381.54 1140.45 1381.54 Q1134.95 1381.54 1128.81 1383.44 Q1122.74 1385.35 1115.79 1389.23 L1115.79 1377.43 Q1122.85 1374.59 1128.99 1373.14 Q1135.12 1371.7 1140.21 1371.7 Q1153.64 1371.7 1161.63 1378.41 Q1169.61 1385.12 1169.61 1396.35 Q1169.61 1401.67 1167.59 1406.48 Q1165.62 1411.22 1160.35 1417.7 Q1158.91 1419.38 1151.15 1427.43 Q1143.4 1435.41 1129.28 1449.82 Z" fill="#000000" fill-rule="nonzero" fill-opacity="1" /><path clip-path="url(#clip320)" d="M1732.26 1413.07 Q1740.66 1414.87 1745.34 1420.54 Q1750.09 1426.21 1750.09 1434.54 Q1750.09 1447.33 1741.29 1454.34 Q1732.5 1461.34 1716.29 1461.34 Q1710.85 1461.34 1705.07 1460.24 Q1699.34 1459.2 1693.2 1457.06 L1693.2 1445.77 Q1698.06 1448.61 1703.85 1450.05 Q1709.64 1451.5 1715.95 1451.5 Q1726.94 1451.5 1732.67 1447.16 Q1738.46 1442.82 1738.46 1434.54 Q1738.46 1426.91 1733.07 1422.62 Q1727.75 1418.28 1718.2 1418.28 L1708.13 1418.28 L1708.13 1408.68 L1718.67 1408.68 Q1727.29 1408.68 1731.86 1405.26 Q1736.43 1401.79 1736.43 1395.31 Q1736.43 1388.65 1731.69 1385.12 Q1727 1381.54 1718.2 1381.54 Q1713.4 1381.54 1707.9 1382.58 Q1702.4 1383.62 1695.81 1385.82 L1695.81 1375.4 Q1702.46 1373.55 1708.25 1372.62 Q1714.09 1371.7 1719.24 1371.7 Q1732.55 1371.7 1740.31 1377.77 Q1748.06 1383.79 1748.06 1394.09 Q1748.06 1401.27 1743.95 1406.25 Q1739.85 1411.16 1732.26 1413.07 Z" fill="#000000" fill-rule="nonzero" fill-opacity="1" /><path clip-path="url(#clip320)" d="M2308.17 1383.44 L2278.66 1429.57 L2308.17 1429.57 L2308.17 1383.44 M2305.1 1373.26 L2319.8 1373.26 L2319.8 1429.57 L2332.13 1429.57 L2332.13 1439.29 L2319.8 1439.29 L2319.8 1459.66 L2308.17 1459.66 L2308.17 1439.29 L2269.16 1439.29 L2269.16 1428 L2305.1 1373.26 Z" fill="#000000" fill-rule="nonzero" fill-opacity="1" /><path clip-path="url(#clip320)" d="M1430.44 1518.52 L1430.44 1536.93 L1452.37 1536.93 L1452.37 1545.2 L1430.44 1545.2 L1430.44 1580.39 Q1430.44 1588.31 1432.58 1590.57 Q1434.78 1592.83 1441.43 1592.83 L1452.37 1592.83 L1452.37 1601.74 L1441.43 1601.74 Q1429.11 1601.74 1424.42 1597.17 Q1419.73 1592.54 1419.73 1580.39 L1419.73 1545.2 L1411.92 1545.2 L1411.92 1536.93 L1419.73 1536.93 L1419.73 1518.52 L1430.44 1518.52 Z" fill="#000000" fill-rule="nonzero" fill-opacity="1" /><polyline clip-path="url(#clip320)" style="stroke:#000000; stroke-linecap:round; stroke-linejoin:round; stroke-width:4; stroke-opacity:1; fill:none" points="511.534,1332.46 511.534,47.2441 "/>
<polyline clip-path="url(#clip320)" style="stroke:#000000; stroke-linecap:round; stroke-linejoin:round; stroke-width:4; stroke-opacity:1; fill:none" points="511.534,1296.09 530.432,1296.09 "/>
<polyline clip-path="url(#clip320)" style="stroke:#000000; stroke-linecap:round; stroke-linejoin:round; stroke-width:4; stroke-opacity:1; fill:none" points="511.534,992.969 530.432,992.969 "/>
<polyline clip-path="url(#clip320)" style="stroke:#000000; stroke-linecap:round; stroke-linejoin:round; stroke-width:4; stroke-opacity:1; fill:none" points="511.534,689.852 530.432,689.852 "/>
<polyline clip-path="url(#clip320)" style="stroke:#000000; stroke-linecap:round; stroke-linejoin:round; stroke-width:4; stroke-opacity:1; fill:none" points="511.534,386.735 530.432,386.735 "/>
<polyline clip-path="url(#clip320)" style="stroke:#000000; stroke-linecap:round; stroke-linejoin:round; stroke-width:4; stroke-opacity:1; fill:none" points="511.534,83.6181 530.432,83.6181 "/>
<path clip-path="url(#clip320)" d="M192.202 1292.7 Q200.594 1294.49 205.281 1300.17 Q210.026 1305.84 210.026 1314.17 Q210.026 1326.96 201.23 1333.96 Q192.434 1340.96 176.23 1340.96 Q170.791 1340.96 165.004 1339.86 Q159.274 1338.82 153.14 1336.68 L153.14 1325.4 Q158.001 1328.23 163.788 1329.68 Q169.575 1331.13 175.883 1331.13 Q186.878 1331.13 192.608 1326.79 Q198.395 1322.45 198.395 1314.17 Q198.395 1306.53 193.013 1302.25 Q187.689 1297.91 178.14 1297.91 L168.071 1297.91 L168.071 1288.3 L178.603 1288.3 Q187.226 1288.3 191.797 1284.89 Q196.369 1281.42 196.369 1274.93 Q196.369 1268.28 191.624 1264.75 Q186.936 1261.16 178.14 1261.16 Q173.337 1261.16 167.839 1262.2 Q162.341 1263.24 155.744 1265.44 L155.744 1255.03 Q162.399 1253.18 168.186 1252.25 Q174.031 1251.32 179.182 1251.32 Q192.492 1251.32 200.246 1257.4 Q208.001 1263.42 208.001 1273.72 Q208.001 1280.89 203.892 1285.87 Q199.783 1290.79 192.202 1292.7 Z" fill="#000000" fill-rule="nonzero" fill-opacity="1" /><path clip-path="url(#clip320)" d="M257.191 1260.58 Q248.163 1260.58 243.591 1269.49 Q239.077 1278.35 239.077 1296.17 Q239.077 1313.94 243.591 1322.85 Q248.163 1331.7 257.191 1331.7 Q266.276 1331.7 270.79 1322.85 Q275.362 1313.94 275.362 1296.17 Q275.362 1278.35 270.79 1269.49 Q266.276 1260.58 257.191 1260.58 M257.191 1251.32 Q271.716 1251.32 279.355 1262.84 Q287.051 1274.3 287.051 1296.17 Q287.051 1317.99 279.355 1329.51 Q271.716 1340.96 257.191 1340.96 Q242.665 1340.96 234.968 1329.51 Q227.33 1317.99 227.33 1296.17 Q227.33 1274.3 234.968 1262.84 Q242.665 1251.32 257.191 1251.32 Z" fill="#000000" fill-rule="nonzero" fill-opacity="1" /><path clip-path="url(#clip320)" d="M307.595 1324.59 L319.806 1324.59 L319.806 1339.29 L307.595 1339.29 L307.595 1324.59 Z" fill="#000000" fill-rule="nonzero" fill-opacity="1" /><path clip-path="url(#clip320)" d="M370.269 1260.58 Q361.241 1260.58 356.669 1269.49 Q352.155 1278.35 352.155 1296.17 Q352.155 1313.94 356.669 1322.85 Q361.241 1331.7 370.269 1331.7 Q379.354 1331.7 383.868 1322.85 Q388.44 1313.94 388.44 1296.17 Q388.44 1278.35 383.868 1269.49 Q379.354 1260.58 370.269 1260.58 M370.269 1251.32 Q384.794 1251.32 392.433 1262.84 Q400.13 1274.3 400.13 1296.17 Q400.13 1317.99 392.433 1329.51 Q384.794 1340.96 370.269 1340.96 Q355.743 1340.96 348.047 1329.51 Q340.408 1317.99 340.408 1296.17 Q340.408 1274.3 348.047 1262.84 Q355.743 1251.32 370.269 1251.32 Z" fill="#000000" fill-rule="nonzero" fill-opacity="1" /><path clip-path="url(#clip320)" d="M445.673 1260.58 Q436.646 1260.58 432.074 1269.49 Q427.56 1278.35 427.56 1296.17 Q427.56 1313.94 432.074 1322.85 Q436.646 1331.7 445.673 1331.7 Q454.759 1331.7 459.273 1322.85 Q463.845 1313.94 463.845 1296.17 Q463.845 1278.35 459.273 1269.49 Q454.759 1260.58 445.673 1260.58 M445.673 1251.32 Q460.199 1251.32 467.838 1262.84 Q475.534 1274.3 475.534 1296.17 Q475.534 1317.99 467.838 1329.51 Q460.199 1340.96 445.673 1340.96 Q431.148 1340.96 423.451 1329.51 Q415.812 1317.99 415.812 1296.17 Q415.812 1274.3 423.451 1262.84 Q431.148 1251.32 445.673 1251.32 Z" fill="#000000" fill-rule="nonzero" fill-opacity="1" /><path clip-path="url(#clip320)" d="M194.691 989.583 Q203.082 991.377 207.769 997.049 Q212.515 1002.72 212.515 1011.05 Q212.515 1023.84 203.719 1030.84 Q194.922 1037.85 178.719 1037.85 Q173.279 1037.85 167.492 1036.75 Q161.763 1035.71 155.629 1033.56 L155.629 1022.28 Q160.49 1025.12 166.277 1026.56 Q172.064 1028.01 178.372 1028.01 Q189.367 1028.01 195.096 1023.67 Q200.883 1019.33 200.883 1011.05 Q200.883 1003.41 195.501 999.132 Q190.177 994.792 180.628 994.792 L170.559 994.792 L170.559 985.185 L181.091 985.185 Q189.714 985.185 194.286 981.771 Q198.858 978.299 198.858 971.817 Q198.858 965.162 194.112 961.632 Q189.425 958.044 180.628 958.044 Q175.825 958.044 170.328 959.086 Q164.83 960.128 158.233 962.327 L158.233 951.91 Q164.888 950.058 170.675 949.132 Q176.52 948.206 181.67 948.206 Q194.98 948.206 202.735 954.283 Q210.489 960.301 210.489 970.602 Q210.489 977.778 206.381 982.755 Q202.272 987.674 194.691 989.583 Z" fill="#000000" fill-rule="nonzero" fill-opacity="1" /><path clip-path="url(#clip320)" d="M259.679 957.466 Q250.651 957.466 246.079 966.378 Q241.566 975.232 241.566 993.056 Q241.566 1010.82 246.079 1019.73 Q250.651 1028.59 259.679 1028.59 Q268.765 1028.59 273.278 1019.73 Q277.85 1010.82 277.85 993.056 Q277.85 975.232 273.278 966.378 Q268.765 957.466 259.679 957.466 M259.679 948.206 Q274.204 948.206 281.843 959.723 Q289.54 971.181 289.54 993.056 Q289.54 1014.87 281.843 1026.39 Q274.204 1037.85 259.679 1037.85 Q245.154 1037.85 237.457 1026.39 Q229.818 1014.87 229.818 993.056 Q229.818 971.181 237.457 959.723 Q245.154 948.206 259.679 948.206 Z" fill="#000000" fill-rule="nonzero" fill-opacity="1" /><path clip-path="url(#clip320)" d="M310.084 1021.47 L322.294 1021.47 L322.294 1036.17 L310.084 1036.17 L310.084 1021.47 Z" fill="#000000" fill-rule="nonzero" fill-opacity="1" /><path clip-path="url(#clip320)" d="M357.827 1026.33 L398.625 1026.33 L398.625 1036.17 L343.764 1036.17 L343.764 1026.33 Q350.419 1019.44 361.877 1007.87 Q373.394 996.239 376.345 992.882 Q381.958 986.574 384.157 982.234 Q386.414 977.836 386.414 973.611 Q386.414 966.725 381.553 962.385 Q376.75 958.044 368.995 958.044 Q363.498 958.044 357.364 959.954 Q351.287 961.864 344.343 965.741 L344.343 953.936 Q351.403 951.1 357.537 949.653 Q363.671 948.206 368.764 948.206 Q382.19 948.206 390.176 954.919 Q398.162 961.632 398.162 972.859 Q398.162 978.183 396.137 982.986 Q394.169 987.732 388.903 994.213 Q387.456 995.891 379.701 1003.94 Q371.947 1011.92 357.827 1026.33 Z" fill="#000000" fill-rule="nonzero" fill-opacity="1" /><path clip-path="url(#clip320)" d="M423.278 949.769 L469.169 949.769 L469.169 959.607 L433.984 959.607 L433.984 980.787 Q436.53 979.919 439.076 979.514 Q441.622 979.051 444.169 979.051 Q458.636 979.051 467.085 986.979 Q475.534 994.908 475.534 1008.45 Q475.534 1022.4 466.854 1030.15 Q458.173 1037.85 442.375 1037.85 Q436.935 1037.85 431.264 1036.92 Q425.65 1036 419.632 1034.14 L419.632 1022.4 Q424.84 1025.23 430.396 1026.62 Q435.951 1028.01 442.143 1028.01 Q452.155 1028.01 458 1022.74 Q463.845 1017.48 463.845 1008.45 Q463.845 999.421 458 994.155 Q452.155 988.889 442.143 988.889 Q437.456 988.889 432.768 989.931 Q428.139 990.972 423.278 993.171 L423.278 949.769 Z" fill="#000000" fill-rule="nonzero" fill-opacity="1" /><path clip-path="url(#clip320)" d="M192.202 686.467 Q200.594 688.261 205.281 693.932 Q210.026 699.603 210.026 707.936 Q210.026 720.726 201.23 727.728 Q192.434 734.73 176.23 734.73 Q170.791 734.73 165.004 733.631 Q159.274 732.589 153.14 730.448 L153.14 719.163 Q158.001 721.999 163.788 723.446 Q169.575 724.892 175.883 724.892 Q186.878 724.892 192.608 720.552 Q198.395 716.212 198.395 707.936 Q198.395 700.298 193.013 696.015 Q187.689 691.675 178.14 691.675 L168.071 691.675 L168.071 682.068 L178.603 682.068 Q187.226 682.068 191.797 678.654 Q196.369 675.182 196.369 668.7 Q196.369 662.045 191.624 658.515 Q186.936 654.927 178.14 654.927 Q173.337 654.927 167.839 655.969 Q162.341 657.011 155.744 659.21 L155.744 648.793 Q162.399 646.941 168.186 646.015 Q174.031 645.089 179.182 645.089 Q192.492 645.089 200.246 651.166 Q208.001 657.184 208.001 667.485 Q208.001 674.661 203.892 679.638 Q199.783 684.557 192.202 686.467 Z" fill="#000000" fill-rule="nonzero" fill-opacity="1" /><path clip-path="url(#clip320)" d="M257.191 654.349 Q248.163 654.349 243.591 663.261 Q239.077 672.115 239.077 689.939 Q239.077 707.705 243.591 716.617 Q248.163 725.471 257.191 725.471 Q266.276 725.471 270.79 716.617 Q275.362 707.705 275.362 689.939 Q275.362 672.115 270.79 663.261 Q266.276 654.349 257.191 654.349 M257.191 645.089 Q271.716 645.089 279.355 656.606 Q287.051 668.064 287.051 689.939 Q287.051 711.756 279.355 723.272 Q271.716 734.73 257.191 734.73 Q242.665 734.73 234.968 723.272 Q227.33 711.756 227.33 689.939 Q227.33 668.064 234.968 656.606 Q242.665 645.089 257.191 645.089 Z" fill="#000000" fill-rule="nonzero" fill-opacity="1" /><path clip-path="url(#clip320)" d="M307.595 718.353 L319.806 718.353 L319.806 733.052 L307.595 733.052 L307.595 718.353 Z" fill="#000000" fill-rule="nonzero" fill-opacity="1" /><path clip-path="url(#clip320)" d="M345.384 646.652 L391.275 646.652 L391.275 656.49 L356.09 656.49 L356.09 677.67 Q358.637 676.802 361.183 676.397 Q363.729 675.934 366.276 675.934 Q380.743 675.934 389.192 683.862 Q397.641 691.791 397.641 705.332 Q397.641 719.279 388.961 727.033 Q380.28 734.73 364.482 734.73 Q359.042 734.73 353.371 733.804 Q347.757 732.878 341.739 731.027 L341.739 719.279 Q346.947 722.115 352.503 723.503 Q358.058 724.892 364.25 724.892 Q374.262 724.892 380.107 719.626 Q385.951 714.36 385.951 705.332 Q385.951 696.304 380.107 691.038 Q374.262 685.772 364.25 685.772 Q359.563 685.772 354.875 686.814 Q350.246 687.855 345.384 690.055 L345.384 646.652 Z" fill="#000000" fill-rule="nonzero" fill-opacity="1" /><path clip-path="url(#clip320)" d="M445.673 654.349 Q436.646 654.349 432.074 663.261 Q427.56 672.115 427.56 689.939 Q427.56 707.705 432.074 716.617 Q436.646 725.471 445.673 725.471 Q454.759 725.471 459.273 716.617 Q463.845 707.705 463.845 689.939 Q463.845 672.115 459.273 663.261 Q454.759 654.349 445.673 654.349 M445.673 645.089 Q460.199 645.089 467.838 656.606 Q475.534 668.064 475.534 689.939 Q475.534 711.756 467.838 723.272 Q460.199 734.73 445.673 734.73 Q431.148 734.73 423.451 723.272 Q415.812 711.756 415.812 689.939 Q415.812 668.064 423.451 656.606 Q431.148 645.089 445.673 645.089 Z" fill="#000000" fill-rule="nonzero" fill-opacity="1" /><path clip-path="url(#clip320)" d="M194.691 383.35 Q203.082 385.144 207.769 390.815 Q212.515 396.486 212.515 404.819 Q212.515 417.609 203.719 424.611 Q194.922 431.613 178.719 431.613 Q173.279 431.613 167.492 430.514 Q161.763 429.472 155.629 427.331 L155.629 416.046 Q160.49 418.882 166.277 420.329 Q172.064 421.775 178.372 421.775 Q189.367 421.775 195.096 417.435 Q200.883 413.095 200.883 404.819 Q200.883 397.181 195.501 392.898 Q190.177 388.558 180.628 388.558 L170.559 388.558 L170.559 378.952 L181.091 378.952 Q189.714 378.952 194.286 375.537 Q198.858 372.065 198.858 365.584 Q198.858 358.928 194.112 355.398 Q189.425 351.81 180.628 351.81 Q175.825 351.81 170.328 352.852 Q164.83 353.894 158.233 356.093 L158.233 345.676 Q164.888 343.824 170.675 342.898 Q176.52 341.973 181.67 341.973 Q194.98 341.973 202.735 348.049 Q210.489 354.067 210.489 364.368 Q210.489 371.544 206.381 376.521 Q202.272 381.44 194.691 383.35 Z" fill="#000000" fill-rule="nonzero" fill-opacity="1" /><path clip-path="url(#clip320)" d="M259.679 351.232 Q250.651 351.232 246.079 360.144 Q241.566 368.998 241.566 386.822 Q241.566 404.588 246.079 413.5 Q250.651 422.354 259.679 422.354 Q268.765 422.354 273.278 413.5 Q277.85 404.588 277.85 386.822 Q277.85 368.998 273.278 360.144 Q268.765 351.232 259.679 351.232 M259.679 341.973 Q274.204 341.973 281.843 353.489 Q289.54 364.947 289.54 386.822 Q289.54 408.639 281.843 420.155 Q274.204 431.613 259.679 431.613 Q245.154 431.613 237.457 420.155 Q229.818 408.639 229.818 386.822 Q229.818 364.947 237.457 353.489 Q245.154 341.973 259.679 341.973 Z" fill="#000000" fill-rule="nonzero" fill-opacity="1" /><path clip-path="url(#clip320)" d="M310.084 415.236 L322.294 415.236 L322.294 429.935 L310.084 429.935 L310.084 415.236 Z" fill="#000000" fill-rule="nonzero" fill-opacity="1" /><path clip-path="url(#clip320)" d="M344.806 343.535 L400.361 343.535 L400.361 348.512 L368.995 429.935 L356.785 429.935 L386.299 353.373 L344.806 353.373 L344.806 343.535 Z" fill="#000000" fill-rule="nonzero" fill-opacity="1" /><path clip-path="url(#clip320)" d="M423.278 343.535 L469.169 343.535 L469.169 353.373 L433.984 353.373 L433.984 374.553 Q436.53 373.685 439.076 373.28 Q441.622 372.817 444.169 372.817 Q458.636 372.817 467.085 380.745 Q475.534 388.674 475.534 402.215 Q475.534 416.162 466.854 423.917 Q458.173 431.613 442.375 431.613 Q436.935 431.613 431.264 430.687 Q425.65 429.761 419.632 427.91 L419.632 416.162 Q424.84 418.998 430.396 420.386 Q435.951 421.775 442.143 421.775 Q452.155 421.775 458 416.509 Q463.845 411.243 463.845 402.215 Q463.845 393.188 458 387.921 Q452.155 382.655 442.143 382.655 Q437.456 382.655 432.768 383.697 Q428.139 384.739 423.278 386.938 L423.278 343.535 Z" fill="#000000" fill-rule="nonzero" fill-opacity="1" /><path clip-path="url(#clip320)" d="M192.202 80.2327 Q200.594 82.0267 205.281 87.698 Q210.026 93.3692 210.026 101.703 Q210.026 114.492 201.23 121.494 Q192.434 128.496 176.23 128.496 Q170.791 128.496 165.004 127.397 Q159.274 126.355 153.14 124.214 L153.14 112.929 Q158.001 115.765 163.788 117.212 Q169.575 118.658 175.883 118.658 Q186.878 118.658 192.608 114.318 Q198.395 109.978 198.395 101.703 Q198.395 94.0637 193.013 89.7813 Q187.689 85.441 178.14 85.441 L168.071 85.441 L168.071 75.8346 L178.603 75.8346 Q187.226 75.8346 191.797 72.4203 Q196.369 68.9481 196.369 62.4666 Q196.369 55.8116 191.624 52.2815 Q186.936 48.6935 178.14 48.6935 Q173.337 48.6935 167.839 49.7352 Q162.341 50.7769 155.744 52.9759 L155.744 42.5593 Q162.399 40.7075 168.186 39.7816 Q174.031 38.8556 179.182 38.8556 Q192.492 38.8556 200.246 44.932 Q208.001 50.9505 208.001 61.2513 Q208.001 68.4272 203.892 73.4041 Q199.783 78.323 192.202 80.2327 Z" fill="#000000" fill-rule="nonzero" fill-opacity="1" /><path clip-path="url(#clip320)" d="M234.216 116.98 L253.313 116.98 L253.313 51.0662 L232.538 55.2329 L232.538 44.5848 L253.197 40.4181 L264.887 40.4181 L264.887 116.98 L283.984 116.98 L283.984 126.818 L234.216 126.818 L234.216 116.98 Z" fill="#000000" fill-rule="nonzero" fill-opacity="1" /><path clip-path="url(#clip320)" d="M307.595 112.119 L319.806 112.119 L319.806 126.818 L307.595 126.818 L307.595 112.119 Z" fill="#000000" fill-rule="nonzero" fill-opacity="1" /><path clip-path="url(#clip320)" d="M370.269 48.1148 Q361.241 48.1148 356.669 57.0268 Q352.155 65.881 352.155 83.7049 Q352.155 101.471 356.669 110.383 Q361.241 119.237 370.269 119.237 Q379.354 119.237 383.868 110.383 Q388.44 101.471 388.44 83.7049 Q388.44 65.881 383.868 57.0268 Q379.354 48.1148 370.269 48.1148 M370.269 38.8556 Q384.794 38.8556 392.433 50.3718 Q400.13 61.83 400.13 83.7049 Q400.13 105.522 392.433 117.038 Q384.794 128.496 370.269 128.496 Q355.743 128.496 348.047 117.038 Q340.408 105.522 340.408 83.7049 Q340.408 61.83 348.047 50.3718 Q355.743 38.8556 370.269 38.8556 Z" fill="#000000" fill-rule="nonzero" fill-opacity="1" /><path clip-path="url(#clip320)" d="M445.673 48.1148 Q436.646 48.1148 432.074 57.0268 Q427.56 65.881 427.56 83.7049 Q427.56 101.471 432.074 110.383 Q436.646 119.237 445.673 119.237 Q454.759 119.237 459.273 110.383 Q463.845 101.471 463.845 83.7049 Q463.845 65.881 459.273 57.0268 Q454.759 48.1148 445.673 48.1148 M445.673 38.8556 Q460.199 38.8556 467.838 50.3718 Q475.534 61.83 475.534 83.7049 Q475.534 105.522 467.838 117.038 Q460.199 128.496 445.673 128.496 Q431.148 128.496 423.451 117.038 Q415.812 105.522 415.812 83.7049 Q415.812 61.83 423.451 50.3718 Q431.148 38.8556 445.673 38.8556 Z" fill="#000000" fill-rule="nonzero" fill-opacity="1" /><path clip-path="url(#clip320)" d="M14.4266 918.265 L81.6137 918.265 L81.6137 904.145 Q81.6137 886.263 73.5119 877.988 Q65.4101 869.654 47.9334 869.654 Q30.5723 869.654 22.5284 877.988 Q14.4266 886.263 14.4266 904.145 L14.4266 918.265 M4.82016 929.955 L4.82016 905.939 Q4.82016 880.823 15.2946 869.076 Q25.7112 857.328 47.9334 857.328 Q70.2712 857.328 80.7457 869.133 Q91.2202 880.939 91.2202 905.939 L91.2202 929.955 L4.82016 929.955 Z" fill="#000000" fill-rule="nonzero" fill-opacity="1" /><path clip-path="url(#clip320)" d="M56.1509 783.717 L61.3592 783.717 L61.3592 832.675 Q72.3545 831.981 78.1415 826.078 Q83.8707 820.117 83.8707 809.527 Q83.8707 803.393 82.366 797.664 Q80.8614 791.877 77.8522 786.206 L87.9216 786.206 Q90.3521 791.935 91.6252 797.953 Q92.8984 803.972 92.8984 810.164 Q92.8984 825.673 83.8707 834.759 Q74.8429 843.786 59.4495 843.786 Q43.5352 843.786 34.2181 835.222 Q24.8432 826.599 24.8432 812.016 Q24.8432 798.937 33.2922 791.356 Q41.6834 783.717 56.1509 783.717 M53.0259 794.365 Q44.2875 794.481 39.0792 799.284 Q33.8709 804.03 33.8709 811.9 Q33.8709 820.812 38.9056 826.194 Q43.9403 831.518 53.0838 832.328 L53.0259 794.365 Z" fill="#000000" fill-rule="nonzero" fill-opacity="1" /><path clip-path="url(#clip320)" d="M38.8478 715.778 Q31.6719 711.785 28.2575 706.229 Q24.8432 700.674 24.8432 693.151 Q24.8432 683.023 31.9612 677.526 Q39.0214 672.028 52.1 672.028 L91.2202 672.028 L91.2202 682.734 L52.4472 682.734 Q43.1301 682.734 38.6163 686.033 Q34.1024 689.331 34.1024 696.102 Q34.1024 704.377 39.6001 709.181 Q45.0977 713.984 54.5884 713.984 L91.2202 713.984 L91.2202 724.69 L52.4472 724.69 Q43.0723 724.69 38.6163 727.988 Q34.1024 731.287 34.1024 738.173 Q34.1024 746.333 39.6579 751.136 Q45.1556 755.94 54.5884 755.94 L91.2202 755.94 L91.2202 766.646 L26.4057 766.646 L26.4057 755.94 L36.4751 755.94 Q30.5145 752.294 27.6788 747.201 Q24.8432 742.109 24.8432 735.106 Q24.8432 728.046 28.4311 723.127 Q32.0191 718.15 38.8478 715.778 Z" fill="#000000" fill-rule="nonzero" fill-opacity="1" /><path clip-path="url(#clip320)" d="M58.6393 621.334 Q58.6393 634.239 61.5907 639.216 Q64.5421 644.192 71.6601 644.192 Q77.3313 644.192 80.6878 640.489 Q83.9864 636.727 83.9864 630.304 Q83.9864 621.45 77.7364 616.126 Q71.4286 610.744 61.012 610.744 L58.6393 610.744 L58.6393 621.334 M54.2412 600.096 L91.2202 600.096 L91.2202 610.744 L81.3822 610.744 Q87.285 614.389 90.1206 619.829 Q92.8984 625.269 92.8984 633.139 Q92.8984 643.093 87.3429 648.996 Q81.7295 654.841 72.3545 654.841 Q61.4171 654.841 55.8616 647.549 Q50.306 640.199 50.306 625.674 L50.306 610.744 L49.2644 610.744 Q41.9149 610.744 37.9218 615.605 Q33.8709 620.408 33.8709 629.146 Q33.8709 634.702 35.2019 639.968 Q36.533 645.234 39.195 650.095 L29.3571 650.095 Q27.1001 644.25 26.0006 638.753 Q24.8432 633.255 24.8432 628.047 Q24.8432 613.984 32.1348 607.04 Q39.4265 600.096 54.2412 600.096 Z" fill="#000000" fill-rule="nonzero" fill-opacity="1" /><path clip-path="url(#clip320)" d="M52.1 524.286 L91.2202 524.286 L91.2202 534.934 L52.4472 534.934 Q43.2459 534.934 38.6741 538.522 Q34.1024 542.11 34.1024 549.286 Q34.1024 557.908 39.6001 562.885 Q45.0977 567.862 54.5884 567.862 L91.2202 567.862 L91.2202 578.568 L26.4057 578.568 L26.4057 567.862 L36.4751 567.862 Q30.6302 564.042 27.7367 558.892 Q24.8432 553.684 24.8432 546.913 Q24.8432 535.744 31.7876 530.015 Q38.6741 524.286 52.1 524.286 Z" fill="#000000" fill-rule="nonzero" fill-opacity="1" /><path clip-path="url(#clip320)" d="M36.2436 460.397 L1.17434 460.397 L1.17434 449.749 L91.2202 449.749 L91.2202 460.397 L81.498 460.397 Q87.285 463.754 90.1206 468.904 Q92.8984 473.997 92.8984 481.173 Q92.8984 492.92 83.5234 500.328 Q74.1485 507.677 58.8708 507.677 Q43.5931 507.677 34.2181 500.328 Q24.8432 492.92 24.8432 481.173 Q24.8432 473.997 27.6788 468.904 Q30.4566 463.754 36.2436 460.397 M58.8708 496.682 Q70.6184 496.682 77.3313 491.878 Q83.9864 487.017 83.9864 478.568 Q83.9864 470.119 77.3313 465.258 Q70.6184 460.397 58.8708 460.397 Q47.1232 460.397 40.4681 465.258 Q33.7552 470.119 33.7552 478.568 Q33.7552 487.017 40.4681 491.878 Q47.1232 496.682 58.8708 496.682 Z" fill="#000000" fill-rule="nonzero" fill-opacity="1" /><polyline clip-path="url(#clip322)" style="stroke:#009af9; stroke-linecap:round; stroke-linejoin:round; stroke-width:12; stroke-opacity:1; fill:none" points="563.644,1296.09 1142.64,1296.09 1721.65,1296.09 2300.65,1296.09 "/>
<circle clip-path="url(#clip322)" cx="563.644" cy="1296.09" r="14.4" fill="#009af9" fill-rule="evenodd" fill-opacity="1" stroke="#000000" stroke-opacity="1" stroke-width="3.2"/>
<circle clip-path="url(#clip322)" cx="1142.64" cy="1296.09" r="14.4" fill="#009af9" fill-rule="evenodd" fill-opacity="1" stroke="#000000" stroke-opacity="1" stroke-width="3.2"/>
<circle clip-path="url(#clip322)" cx="1721.65" cy="1296.09" r="14.4" fill="#009af9" fill-rule="evenodd" fill-opacity="1" stroke="#000000" stroke-opacity="1" stroke-width="3.2"/>
<circle clip-path="url(#clip322)" cx="2300.65" cy="1296.09" r="14.4" fill="#009af9" fill-rule="evenodd" fill-opacity="1" stroke="#000000" stroke-opacity="1" stroke-width="3.2"/>
<path clip-path="url(#clip320)" d="M1976.18 349.285 L2291.38 349.285 L2291.38 90.0846 L1976.18 90.0846  Z" fill="#ffffff" fill-rule="evenodd" fill-opacity="1"/>
<polyline clip-path="url(#clip320)" style="stroke:#000000; stroke-linecap:round; stroke-linejoin:round; stroke-width:4; stroke-opacity:1; fill:none" points="1976.18,349.285 2291.38,349.285 2291.38,90.0846 1976.18,90.0846 1976.18,349.285 "/>
<polyline clip-path="url(#clip320)" style="stroke:#009af9; stroke-linecap:round; stroke-linejoin:round; stroke-width:30; stroke-opacity:1; fill:none" points="1996.64,219.685 2119.39,219.685 "/>
<circle clip-path="url(#clip320)" cx="2058.02" cy="219.685" r="6.81934" fill="#009af9" fill-rule="evenodd" fill-opacity="1" stroke="#000000" stroke-opacity="1" stroke-width="6.06164"/>
<path clip-path="url(#clip320)" d="M2174.45 268.903 Q2169.94 280.477 2165.66 284.007 Q2161.38 287.537 2154.2 287.537 L2145.69 287.537 L2145.69 278.625 L2151.94 278.625 Q2156.34 278.625 2158.77 276.542 Q2161.2 274.459 2164.15 266.704 L2166.06 261.843 L2139.85 198.07 L2151.13 198.07 L2171.39 248.764 L2191.64 198.07 L2202.93 198.07 L2174.45 268.903 Z" fill="#000000" fill-rule="nonzero" fill-opacity="1" /><path clip-path="url(#clip320)" d="M2221.16 253.047 L2240.25 253.047 L2240.25 187.133 L2219.48 191.299 L2219.48 180.651 L2240.14 176.485 L2251.83 176.485 L2251.83 253.047 L2270.92 253.047 L2270.92 262.885 L2221.16 262.885 L2221.16 253.047 Z" fill="#000000" fill-rule="nonzero" fill-opacity="1" /></svg>
