<?xml version="1.0" encoding="utf-8"?>
<svg xmlns="http://www.w3.org/2000/svg" xmlns:xlink="http://www.w3.org/1999/xlink" width="600" height="400" viewBox="0 0 2400 1600">
<defs>
  <clipPath id="clip290">
    <rect x="0" y="0" width="2400" height="1600"/>
  </clipPath>
</defs>
<path clip-path="url(#clip290)" d="M0 1600 L2400 1600 L2400 0 L0 0  Z" fill="#ffffff" fill-rule="evenodd" fill-opacity="1"/>
<defs>
  <clipPath id="clip291">
    <rect x="480" y="0" width="1681" height="1600"/>
  </clipPath>
</defs>
<path clip-path="url(#clip290)" d="M436.882 1332.46 L2352.76 1332.46 L2352.76 47.2441 L436.882 47.2441  Z" fill="#ffffff" fill-rule="evenodd" fill-opacity="1"/>
<defs>
  <clipPath id="clip292">
    <rect x="436" y="47" width="1917" height="1286"/>
  </clipPath>
</defs>
<polyline clip-path="url(#clip292)" style="stroke:#000000; stroke-linecap:round; stroke-linejoin:round; stroke-width:2; stroke-opacity:0.1; fill:none" points="491.105,1332.46 491.105,47.2441 "/>
<polyline clip-path="url(#clip292)" style="stroke:#000000; stroke-linecap:round; stroke-linejoin:round; stroke-width:2; stroke-opacity:0.1; fill:none" points="1093.58,1332.46 1093.58,47.2441 "/>
<polyline clip-path="url(#clip292)" style="stroke:#000000; stroke-linecap:round; stroke-linejoin:round; stroke-width:2; stroke-opacity:0.1; fill:none" points="1696.06,1332.46 1696.06,47.2441 "/>
<polyline clip-path="url(#clip292)" style="stroke:#000000; stroke-linecap:round; stroke-linejoin:round; stroke-width:2; stroke-opacity:0.1; fill:none" points="2298.53,1332.46 2298.53,47.2441 "/>
<polyline clip-path="url(#clip292)" style="stroke:#000000; stroke-linecap:round; stroke-linejoin:round; stroke-width:2; stroke-opacity:0.1; fill:none" points="436.882,1296.09 2352.76,1296.09 "/>
<polyline clip-path="url(#clip292)" style="stroke:#000000; stroke-linecap:round; stroke-linejoin:round; stroke-width:2; stroke-opacity:0.1; fill:none" points="436.882,992.969 2352.76,992.969 "/>
<polyline clip-path="url(#clip292)" style="stroke:#000000; stroke-linecap:round; stroke-linejoin:round; stroke-width:2; stroke-opacity:0.1; fill:none" points="436.882,689.852 2352.76,689.852 "/>
<polyline clip-path="url(#clip292)" style="stroke:#000000; stroke-linecap:round; stroke-linejoin:round; stroke-width:2; stroke-opacity:0.1; fill:none" points="436.882,386.735 2352.76,386.735 "/>
<polyline clip-path="url(#clip292)" style="stroke:#000000; stroke-linecap:round; stroke-linejoin:round; stroke-width:2; stroke-opacity:0.1; fill:none" points="436.882,83.6181 2352.76,83.6181 "/>
<polyline clip-path="url(#clip290)" style="stroke:#000000; stroke-linecap:round; stroke-linejoin:round; stroke-width:4; stroke-opacity:1; fill:none" points="436.882,1332.46 2352.76,1332.46 "/>
<polyline clip-path="url(#clip290)" style="stroke:#000000; stroke-linecap:round; stroke-linejoin:round; stroke-width:4; stroke-opacity:1; fill:none" points="491.105,1332.46 491.105,1313.56 "/>
<polyline clip-path="url(#clip290)" style="stroke:#000000; stroke-linecap:round; stroke-linejoin:round; stroke-width:4; stroke-opacity:1; fill:none" points="1093.58,1332.46 1093.58,1313.56 "/>
<polyline clip-path="url(#clip290)" style="stroke:#000000; stroke-linecap:round; stroke-linejoin:round; stroke-width:4; stroke-opacity:1; fill:none" points="1696.06,1332.46 1696.06,1313.56 "/>
<polyline clip-path="url(#clip290)" style="stroke:#000000; stroke-linecap:round; stroke-linejoin:round; stroke-width:4; stroke-opacity:1; fill:none" points="2298.53,1332.46 2298.53,1313.56 "/>
<path clip-path="url(#clip290)" d="M467.06 1449.82 L486.157 1449.82 L486.157 1383.91 L465.381 1388.07 L465.381 1377.43 L486.041 1373.26 L497.731 1373.26 L497.731 1449.82 L516.828 1449.82 L516.828 1459.66 L467.06 1459.66 L467.06 1449.82 Z" fill="#000000" fill-rule="nonzero" fill-opacity="1" /><path clip-path="url(#clip290)" d="M1080.21 1449.82 L1121.01 1449.82 L1121.01 1459.66 L1066.15 1459.66 L1066.15 1449.82 Q1072.81 1442.94 1084.26 1431.36 Q1095.78 1419.73 1098.73 1416.37 Q1104.34 1410.07 1106.54 1405.72 Q1108.8 1401.33 1108.8 1397.1 Q1108.8 1390.22 1103.94 1385.88 Q1099.14 1381.54 1091.38 1381.54 Q1085.88 1381.54 1079.75 1383.44 Q1073.67 1385.35 1066.73 1389.23 L1066.73 1377.43 Q1073.79 1374.59 1079.92 1373.14 Q1086.06 1371.7 1091.15 1371.7 Q1104.58 1371.7 1112.56 1378.41 Q1120.55 1385.12 1120.55 1396.35 Q1120.55 1401.67 1118.52 1406.48 Q1116.56 1411.22 1111.29 1417.7 Q1109.84 1419.38 1102.09 1427.43 Q1094.33 1435.41 1080.21 1449.82 Z" fill="#000000" fill-rule="nonzero" fill-opacity="1" /><path clip-path="url(#clip290)" d="M1706.68 1413.07 Q1715.07 1414.87 1719.75 1420.54 Q1724.5 1426.21 1724.5 1434.54 Q1724.5 1447.33 1715.7 1454.34 Q1706.91 1461.34 1690.7 1461.34 Q1685.26 1461.34 1679.48 1460.24 Q1673.75 1459.2 1667.61 1457.06 L1667.61 1445.77 Q1672.47 1448.61 1678.26 1450.05 Q1684.05 1451.5 1690.36 1451.5 Q1701.35 1451.5 1707.08 1447.16 Q1712.87 1442.82 1712.87 1434.54 Q1712.87 1426.91 1707.49 1422.62 Q1702.16 1418.28 1692.61 1418.28 L1682.54 1418.28 L1682.54 1408.68 L1693.08 1408.68 Q1701.7 1408.68 1706.27 1405.26 Q1710.84 1401.79 1710.84 1395.31 Q1710.84 1388.65 1706.1 1385.12 Q1701.41 1381.54 1692.61 1381.54 Q1687.81 1381.54 1682.31 1382.58 Q1676.82 1383.62 1670.22 1385.82 L1670.22 1375.4 Q1676.87 1373.55 1682.66 1372.62 Q1688.5 1371.7 1693.66 1371.7 Q1706.97 1371.7 1714.72 1377.77 Q1722.47 1383.79 1722.47 1394.09 Q1722.47 1401.27 1718.37 1406.25 Q1714.26 1411.16 1706.68 1413.07 Z" fill="#000000" fill-rule="nonzero" fill-opacity="1" /><path clip-path="url(#clip290)" d="M2306.06 1383.44 L2276.54 1429.57 L2306.06 1429.57 L2306.06 1383.44 M2302.99 1373.26 L2317.69 1373.26 L2317.69 1429.57 L2330.01 1429.57 L2330.01 1439.29 L2317.69 1439.29 L2317.69 1459.66 L2306.06 1459.66 L2306.06 1439.29 L2267.05 1439.29 L2267.05 1428 L2302.99 1373.26 Z" fill="#000000" fill-rule="nonzero" fill-opacity="1" /><path clip-path="url(#clip290)" d="M1393.11 1518.52 L1393.11 1536.93 L1415.04 1536.93 L1415.04 1545.2 L1393.11 1545.2 L1393.11 1580.39 Q1393.11 1588.31 1395.25 1590.57 Q1397.45 1592.83 1404.11 1592.83 L1415.04 1592.83 L1415.04 1601.74 L1404.11 1601.74 Q1391.78 1601.74 1387.09 1597.17 Q1382.41 1592.54 1382.41 1580.39 L1382.41 1545.2 L1374.59 1545.2 L1374.59 1536.93 L1382.41 1536.93 L1382.41 1518.52 L1393.11 1518.52 Z" fill="#000000" fill-rule="nonzero" fill-opacity="1" /><polyline clip-path="url(#clip290)" style="stroke:#000000; stroke-linecap:round; stroke-linejoin:round; stroke-width:4; stroke-opacity:1; fill:none" points="436.882,1332.46 436.882,47.2441 "/>
<polyline clip-path="url(#clip290)" style="stroke:#000000; stroke-linecap:round; stroke-linejoin:round; stroke-width:4; stroke-opacity:1; fill:none" points="436.882,1296.09 455.78,1296.09 "/>
<polyline clip-path="url(#clip290)" style="stroke:#000000; stroke-linecap:round; stroke-linejoin:round; stroke-width:4; stroke-opacity:1; fill:none" points="436.882,992.969 455.78,992.969 "/>
<polyline clip-path="url(#clip290)" style="stroke:#000000; stroke-linecap:round; stroke-linejoin:round; stroke-width:4; stroke-opacity:1; fill:none" points="436.882,689.852 455.78,689.852 "/>
<polyline clip-path="url(#clip290)" style="stroke:#000000; stroke-linecap:round; stroke-linejoin:round; stroke-width:4; stroke-opacity:1; fill:none" points="436.882,386.735 455.78,386.735 "/>
<polyline clip-path="url(#clip290)" style="stroke:#000000; stroke-linecap:round; stroke-linejoin:round; stroke-width:4; stroke-opacity:1; fill:none" points="436.882,83.6181 455.78,83.6181 "/>
<path clip-path="url(#clip290)" d="M157.654 1252.89 L203.545 1252.89 L203.545 1262.72 L168.36 1262.72 L168.36 1283.9 Q170.906 1283.04 173.453 1282.63 Q175.999 1282.17 178.545 1282.17 Q193.013 1282.17 201.462 1290.1 Q209.911 1298.02 209.911 1311.57 Q209.911 1325.51 201.23 1333.27 Q192.55 1340.96 176.751 1340.96 Q171.311 1340.96 165.64 1340.04 Q160.027 1339.11 154.008 1337.26 L154.008 1325.51 Q159.217 1328.35 164.772 1329.74 Q170.328 1331.13 176.52 1331.13 Q186.531 1331.13 192.376 1325.86 Q198.221 1320.59 198.221 1311.57 Q198.221 1302.54 192.376 1297.27 Q186.531 1292.01 176.52 1292.01 Q171.832 1292.01 167.145 1293.05 Q162.515 1294.09 157.654 1296.29 L157.654 1252.89 Z" fill="#000000" fill-rule="nonzero" fill-opacity="1" /><path clip-path="url(#clip290)" d="M232.943 1324.59 L245.154 1324.59 L245.154 1339.29 L232.943 1339.29 L232.943 1324.59 Z" fill="#000000" fill-rule="nonzero" fill-opacity="1" /><path clip-path="url(#clip290)" d="M295.616 1260.58 Q286.589 1260.58 282.017 1269.49 Q277.503 1278.35 277.503 1296.17 Q277.503 1313.94 282.017 1322.85 Q286.589 1331.7 295.616 1331.7 Q304.702 1331.7 309.216 1322.85 Q313.787 1313.94 313.787 1296.17 Q313.787 1278.35 309.216 1269.49 Q304.702 1260.58 295.616 1260.58 M295.616 1251.32 Q310.142 1251.32 317.78 1262.84 Q325.477 1274.3 325.477 1296.17 Q325.477 1317.99 317.78 1329.51 Q310.142 1340.96 295.616 1340.96 Q281.091 1340.96 273.394 1329.51 Q265.755 1317.99 265.755 1296.17 Q265.755 1274.3 273.394 1262.84 Q281.091 1251.32 295.616 1251.32 Z" fill="#000000" fill-rule="nonzero" fill-opacity="1" /><path clip-path="url(#clip290)" d="M371.021 1260.58 Q361.993 1260.58 357.421 1269.49 Q352.908 1278.35 352.908 1296.17 Q352.908 1313.94 357.421 1322.85 Q361.993 1331.7 371.021 1331.7 Q380.107 1331.7 384.62 1322.85 Q389.192 1313.94 389.192 1296.17 Q389.192 1278.35 384.62 1269.49 Q380.107 1260.58 371.021 1260.58 M371.021 1251.32 Q385.546 1251.32 393.185 1262.84 Q400.882 1274.3 400.882 1296.17 Q400.882 1317.99 393.185 1329.51 Q385.546 1340.96 371.021 1340.96 Q356.496 1340.96 348.799 1329.51 Q341.16 1317.99 341.16 1296.17 Q341.16 1274.3 348.799 1262.84 Q356.496 1251.32 371.021 1251.32 Z" fill="#000000" fill-rule="nonzero" fill-opacity="1" /><path clip-path="url(#clip290)" d="M160.142 949.769 L206.033 949.769 L206.033 959.607 L170.848 959.607 L170.848 980.787 Q173.395 979.919 175.941 979.514 Q178.487 979.051 181.034 979.051 Q195.501 979.051 203.95 986.979 Q212.399 994.908 212.399 1008.45 Q212.399 1022.4 203.719 1030.15 Q195.038 1037.85 179.24 1037.85 Q173.8 1037.85 168.129 1036.92 Q162.515 1036 156.497 1034.14 L156.497 1022.4 Q161.705 1025.23 167.26 1026.62 Q172.816 1028.01 179.008 1028.01 Q189.02 1028.01 194.864 1022.74 Q200.709 1017.48 200.709 1008.45 Q200.709 999.421 194.864 994.155 Q189.02 988.889 179.008 988.889 Q174.321 988.889 169.633 989.931 Q165.004 990.972 160.142 993.171 L160.142 949.769 Z" fill="#000000" fill-rule="nonzero" fill-opacity="1" /><path clip-path="url(#clip290)" d="M235.431 1021.47 L247.642 1021.47 L247.642 1036.17 L235.431 1036.17 L235.431 1021.47 Z" fill="#000000" fill-rule="nonzero" fill-opacity="1" /><path clip-path="url(#clip290)" d="M283.174 1026.33 L323.973 1026.33 L323.973 1036.17 L269.112 1036.17 L269.112 1026.33 Q275.767 1019.44 287.225 1007.87 Q298.741 996.239 301.693 992.882 Q307.306 986.574 309.505 982.234 Q311.762 977.836 311.762 973.611 Q311.762 966.725 306.901 962.385 Q302.098 958.044 294.343 958.044 Q288.845 958.044 282.711 959.954 Q276.635 961.864 269.69 965.741 L269.69 953.936 Q276.751 951.1 282.885 949.653 Q289.019 948.206 294.112 948.206 Q307.537 948.206 315.524 954.919 Q323.51 961.632 323.51 972.859 Q323.51 978.183 321.484 982.986 Q319.517 987.732 314.25 994.213 Q312.804 995.891 305.049 1003.94 Q297.294 1011.92 283.174 1026.33 Z" fill="#000000" fill-rule="nonzero" fill-opacity="1" /><path clip-path="url(#clip290)" d="M348.625 949.769 L394.516 949.769 L394.516 959.607 L359.331 959.607 L359.331 980.787 Q361.877 979.919 364.424 979.514 Q366.97 979.051 369.516 979.051 Q383.984 979.051 392.433 986.979 Q400.882 994.908 400.882 1008.45 Q400.882 1022.4 392.201 1030.15 Q383.521 1037.85 367.722 1037.85 Q362.283 1037.85 356.611 1036.92 Q350.998 1036 344.979 1034.14 L344.979 1022.4 Q350.188 1025.23 355.743 1026.62 Q361.299 1028.01 367.491 1028.01 Q377.502 1028.01 383.347 1022.74 Q389.192 1017.48 389.192 1008.45 Q389.192 999.421 383.347 994.155 Q377.502 988.889 367.491 988.889 Q362.803 988.889 358.116 989.931 Q353.486 990.972 348.625 993.171 L348.625 949.769 Z" fill="#000000" fill-rule="nonzero" fill-opacity="1" /><path clip-path="url(#clip290)" d="M157.654 646.652 L203.545 646.652 L203.545 656.49 L168.36 656.49 L168.36 677.67 Q170.906 676.802 173.453 676.397 Q175.999 675.934 178.545 675.934 Q193.013 675.934 201.462 683.862 Q209.911 691.791 209.911 705.332 Q209.911 719.279 201.23 727.033 Q192.55 734.73 176.751 734.73 Q171.311 734.73 165.64 733.804 Q160.027 732.878 154.008 731.027 L154.008 719.279 Q159.217 722.115 164.772 723.503 Q170.328 724.892 176.52 724.892 Q186.531 724.892 192.376 719.626 Q198.221 714.36 198.221 705.332 Q198.221 696.304 192.376 691.038 Q186.531 685.772 176.52 685.772 Q171.832 685.772 167.145 686.814 Q162.515 687.855 157.654 690.055 L157.654 646.652 Z" fill="#000000" fill-rule="nonzero" fill-opacity="1" /><path clip-path="url(#clip290)" d="M232.943 718.353 L245.154 718.353 L245.154 733.052 L232.943 733.052 L232.943 718.353 Z" fill="#000000" fill-rule="nonzero" fill-opacity="1" /><path clip-path="url(#clip290)" d="M270.732 646.652 L316.623 646.652 L316.623 656.49 L281.438 656.49 L281.438 677.67 Q283.984 676.802 286.531 676.397 Q289.077 675.934 291.623 675.934 Q306.091 675.934 314.54 683.862 Q322.989 691.791 322.989 705.332 Q322.989 719.279 314.308 727.033 Q305.628 734.73 289.829 734.73 Q284.389 734.73 278.718 733.804 Q273.105 732.878 267.086 731.027 L267.086 719.279 Q272.295 722.115 277.85 723.503 Q283.406 724.892 289.598 724.892 Q299.609 724.892 305.454 719.626 Q311.299 714.36 311.299 705.332 Q311.299 696.304 305.454 691.038 Q299.609 685.772 289.598 685.772 Q284.91 685.772 280.223 686.814 Q275.593 687.855 270.732 690.055 L270.732 646.652 Z" fill="#000000" fill-rule="nonzero" fill-opacity="1" /><path clip-path="url(#clip290)" d="M371.021 654.349 Q361.993 654.349 357.421 663.261 Q352.908 672.115 352.908 689.939 Q352.908 707.705 357.421 716.617 Q361.993 725.471 371.021 725.471 Q380.107 725.471 384.62 716.617 Q389.192 707.705 389.192 689.939 Q389.192 672.115 384.62 663.261 Q380.107 654.349 371.021 654.349 M371.021 645.089 Q385.546 645.089 393.185 656.606 Q400.882 668.064 400.882 689.939 Q400.882 711.756 393.185 723.272 Q385.546 734.73 371.021 734.73 Q356.496 734.73 348.799 723.272 Q341.16 711.756 341.16 689.939 Q341.16 668.064 348.799 656.606 Q356.496 645.089 371.021 645.089 Z" fill="#000000" fill-rule="nonzero" fill-opacity="1" /><path clip-path="url(#clip290)" d="M160.142 343.535 L206.033 343.535 L206.033 353.373 L170.848 353.373 L170.848 374.553 Q173.395 373.685 175.941 373.28 Q178.487 372.817 181.034 372.817 Q195.501 372.817 203.95 380.745 Q212.399 388.674 212.399 402.215 Q212.399 416.162 203.719 423.917 Q195.038 431.613 179.24 431.613 Q173.8 431.613 168.129 430.687 Q162.515 429.761 156.497 427.91 L156.497 416.162 Q161.705 418.998 167.26 420.386 Q172.816 421.775 179.008 421.775 Q189.02 421.775 194.864 416.509 Q200.709 411.243 200.709 402.215 Q200.709 393.188 194.864 387.921 Q189.02 382.655 179.008 382.655 Q174.321 382.655 169.633 383.697 Q165.004 384.739 160.142 386.938 L160.142 343.535 Z" fill="#000000" fill-rule="nonzero" fill-opacity="1" /><path clip-path="url(#clip290)" d="M235.431 415.236 L247.642 415.236 L247.642 429.935 L235.431 429.935 L235.431 415.236 Z" fill="#000000" fill-rule="nonzero" fill-opacity="1" /><path clip-path="url(#clip290)" d="M270.153 343.535 L325.709 343.535 L325.709 348.512 L294.343 429.935 L282.133 429.935 L311.646 353.373 L270.153 353.373 L270.153 343.535 Z" fill="#000000" fill-rule="nonzero" fill-opacity="1" /><path clip-path="url(#clip290)" d="M348.625 343.535 L394.516 343.535 L394.516 353.373 L359.331 353.373 L359.331 374.553 Q361.877 373.685 364.424 373.28 Q366.97 372.817 369.516 372.817 Q383.984 372.817 392.433 380.745 Q400.882 388.674 400.882 402.215 Q400.882 416.162 392.201 423.917 Q383.521 431.613 367.722 431.613 Q362.283 431.613 356.611 430.687 Q350.998 429.761 344.979 427.91 L344.979 416.162 Q350.188 418.998 355.743 420.386 Q361.299 421.775 367.491 421.775 Q377.502 421.775 383.347 416.509 Q389.192 411.243 389.192 402.215 Q389.192 393.188 383.347 387.921 Q377.502 382.655 367.491 382.655 Q362.803 382.655 358.116 383.697 Q353.486 384.739 348.625 386.938 L348.625 343.535 Z" fill="#000000" fill-rule="nonzero" fill-opacity="1" /><path clip-path="url(#clip290)" d="M183.985 78.9596 Q176.115 78.9596 171.485 84.3415 Q166.913 89.7234 166.913 99.0984 Q166.913 108.415 171.485 113.855 Q176.115 119.237 183.985 119.237 Q191.855 119.237 196.427 113.855 Q201.057 108.415 201.057 99.0984 Q201.057 89.7234 196.427 84.3415 Q191.855 78.9596 183.985 78.9596 M207.191 42.3278 L207.191 52.9759 Q202.793 50.8926 198.279 49.7931 Q193.823 48.6935 189.425 48.6935 Q177.851 48.6935 171.716 56.506 Q165.64 64.3185 164.772 80.117 Q168.186 75.0823 173.337 72.4203 Q178.487 69.7004 184.679 69.7004 Q197.7 69.7004 205.223 77.6286 Q212.804 85.4989 212.804 99.0984 Q212.804 112.408 204.934 120.452 Q197.064 128.496 183.985 128.496 Q168.997 128.496 161.068 117.038 Q153.14 105.522 153.14 83.7049 Q153.14 63.2189 162.862 51.0662 Q172.584 38.8556 188.962 38.8556 Q193.36 38.8556 197.816 39.7237 Q202.33 40.5917 207.191 42.3278 Z" fill="#000000" fill-rule="nonzero" fill-opacity="1" /><path clip-path="url(#clip290)" d="M232.943 112.119 L245.154 112.119 L245.154 126.818 L232.943 126.818 L232.943 112.119 Z" fill="#000000" fill-rule="nonzero" fill-opacity="1" /><path clip-path="url(#clip290)" d="M295.616 48.1148 Q286.589 48.1148 282.017 57.0268 Q277.503 65.881 277.503 83.7049 Q277.503 101.471 282.017 110.383 Q286.589 119.237 295.616 119.237 Q304.702 119.237 309.216 110.383 Q313.787 101.471 313.787 83.7049 Q313.787 65.881 309.216 57.0268 Q304.702 48.1148 295.616 48.1148 M295.616 38.8556 Q310.142 38.8556 317.78 50.3718 Q325.477 61.83 325.477 83.7049 Q325.477 105.522 317.78 117.038 Q310.142 128.496 295.616 128.496 Q281.091 128.496 273.394 117.038 Q265.755 105.522 265.755 83.7049 Q265.755 61.83 273.394 50.3718 Q281.091 38.8556 295.616 38.8556 Z" fill="#000000" fill-rule="nonzero" fill-opacity="1" /><path clip-path="url(#clip290)" d="M371.021 48.1148 Q361.993 48.1148 357.421 57.0268 Q352.908 65.881 352.908 83.7049 Q352.908 101.471 357.421 110.383 Q361.993 119.237 371.021 119.237 Q380.107 119.237 384.62 110.383 Q389.192 101.471 389.192 83.7049 Q389.192 65.881 384.62 57.0268 Q380.107 48.1148 371.021 48.1148 M371.021 38.8556 Q385.546 38.8556 393.185 50.3718 Q400.882 61.83 400.882 83.7049 Q400.882 105.522 393.185 117.038 Q385.546 128.496 371.021 128.496 Q356.496 128.496 348.799 117.038 Q341.16 105.522 341.16 83.7049 Q341.16 61.83 348.799 50.3718 Q356.496 38.8556 371.021 38.8556 Z" fill="#000000" fill-rule="nonzero" fill-opacity="1" /><path clip-path="url(#clip290)" d="M14.4266 918.265 L81.6137 918.265 L81.6137 904.145 Q81.6137 886.263 73.5119 877.988 Q65.4101 869.654 47.9334 869.654 Q30.5723 869.654 22.5284 877.988 Q14.4266 886.263 14.4266 904.145 L14.4266 918.265 M4.82016 929.955 L4.82016 905.939 Q4.82016 880.823 15.2946 869.076 Q25.7112 857.328 47.9334 857.328 Q70.2712 857.328 80.7457 869.133 Q91.2202 880.939 91.2202 905.939 L91.2202 929.955 L4.82016 929.955 Z" fill="#000000" fill-rule="nonzero" fill-opacity="1" /><path clip-path="url(#clip290)" d="M56.1509 783.717 L61.3592 783.717 L61.3592 832.675 Q72.3545 831.981 78.1415 826.078 Q83.8707 820.117 83.8707 809.527 Q83.8707 803.393 82.366 797.664 Q80.8614 791.877 77.8522 786.206 L87.9216 786.206 Q90.3521 791.935 91.6252 797.953 Q92.8984 803.972 92.8984 810.164 Q92.8984 825.673 83.8707 834.759 Q74.8429 843.786 59.4495 843.786 Q43.5352 843.786 34.2181 835.222 Q24.8432 826.599 24.8432 812.016 Q24.8432 798.937 33.2922 791.356 Q41.6834 783.717 56.1509 783.717 M53.0259 794.365 Q44.2875 794.481 39.0792 799.284 Q33.8709 804.03 33.8709 811.9 Q33.8709 820.812 38.9056 826.194 Q43.9403 831.518 53.0838 832.328 L53.0259 794.365 Z" fill="#000000" fill-rule="nonzero" fill-opacity="1" /><path clip-path="url(#clip290)" d="M38.8478 715.778 Q31.6719 711.785 28.2575 706.229 Q24.8432 700.674 24.8432 693.151 Q24.8432 683.023 31.9612 677.526 Q39.0214 672.028 52.1 672.028 L91.2202 672.028 L91.2202 682.734 L52.4472 682.734 Q43.1301 682.734 38.6163 686.033 Q34.1024 689.331 34.1024 696.102 Q34.1024 704.377 39.6001 709.181 Q45.0977 713.984 54.5884 713.984 L91.2202 713.984 L91.2202 724.69 L52.4472 724.69 Q43.0723 724.69 38.6163 727.988 Q34.1024 731.287 34.1024 738.173 Q34.1024 746.333 39.6579 751.136 Q45.1556 755.94 54.5884 755.94 L91.2202 755.94 L91.2202 766.646 L26.4057 766.646 L26.4057 755.94 L36.4751 755.94 Q30.5145 752.294 27.6788 747.201 Q24.8432 742.109 24.8432 735.106 Q24.8432 728.046 28.4311 723.127 Q32.0191 718.15 38.8478 715.778 Z" fill="#000000" fill-rule="nonzero" fill-opacity="1" /><path clip-path="url(#clip290)" d="M58.6393 621.334 Q58.6393 634.239 61.5907 639.216 Q64.5421 644.192 71.6601 644.192 Q77.3313 644.192 80.6878 640.489 Q83.9864 636.727 83.9864 630.304 Q83.9864 621.45 77.7364 616.126 Q71.4286 610.744 61.012 610.744 L58.6393 610.744 L58.6393 621.334 M54.2412 600.096 L91.2202 600.096 L91.2202 610.744 L81.3822 610.744 Q87.285 614.389 90.1206 619.829 Q92.8984 625.269 92.8984 633.139 Q92.8984 643.093 87.3429 648.996 Q81.7295 654.841 72.3545 654.841 Q61.4171 654.841 55.8616 647.549 Q50.306 640.199 50.306 625.674 L50.306 610.744 L49.2644 610.744 Q41.9149 610.744 37.9218 615.605 Q33.8709 620.408 33.8709 629.146 Q33.8709 634.702 35.2019 639.968 Q36.533 645.234 39.195 650.095 L29.3571 650.095 Q27.1001 644.25 26.0006 638.753 Q24.8432 633.255 24.8432 628.047 Q24.8432 613.984 32.1348 607.04 Q39.4265 600.096 54.2412 600.096 Z" fill="#000000" fill-rule="nonzero" fill-opacity="1" /><path clip-path="url(#clip290)" d="M52.1 524.286 L91.2202 524.286 L91.2202 534.934 L52.4472 534.934 Q43.2459 534.934 38.6741 538.522 Q34.1024 542.11 34.1024 549.286 Q34.1024 557.908 39.6001 562.885 Q45.0977 567.862 54.5884 567.862 L91.2202 567.862 L91.2202 578.568 L26.4057 578.568 L26.4057 567.862 L36.4751 567.862 Q30.6302 564.042 27.7367 558.892 Q24.8432 553.684 24.8432 546.913 Q24.8432 535.744 31.7876 530.015 Q38.6741 524.286 52.1 524.286 Z" fill="#000000" fill-rule="nonzero" fill-opacity="1" /><path clip-path="url(#clip290)" d="M36.2436 460.397 L1.17434 460.397 L1.17434 449.749 L91.2202 449.749 L91.2202 460.397 L81.498 460.397 Q87.285 463.754 90.1206 468.904 Q92.8984 473.997 92.8984 481.173 Q92.8984 492.92 83.5234 500.328 Q74.1485 507.677 58.8708 507.677 Q43.5931 507.677 34.2181 500.328 Q24.8432 492.92 24.8432 481.173 Q24.8432 473.997 27.6788 468.904 Q30.4566 463.754 36.2436 460.397 M58.8708 496.682 Q70.6184 496.682 77.3313 491.878 Q83.9864 487.017 83.9864 478.568 Q83.9864 470.119 77.3313 465.258 Q70.6184 460.397 58.8708 460.397 Q47.1232 460.397 40.4681 465.258 Q33.7552 470.119 33.7552 478.568 Q33.7552 487.017 40.4681 491.878 Q47.1232 496.682 58.8708 496.682 Z" fill="#000000" fill-rule="nonzero" fill-opacity="1" /><polyline clip-path="url(#clip292)" style="stroke:#009af9; stroke-linecap:round; stroke-linejoin:round; stroke-width:12; stroke-opacity:1; fill:none" points="491.105,1296.09 1093.58,1296.09 1696.06,1296.09 2298.53,1296.09 "/>
<circle clip-path="url(#clip292)" cx="491.105" cy="1296.09" r="14.4" fill="#009af9" fill-rule="evenodd" fill-opacity="1" stroke="#000000" stroke-opacity="1" stroke-width="3.2"/>
<circle clip-path="url(#clip292)" cx="1093.58" cy="1296.09" r="14.4" fill="#009af9" fill-rule="evenodd" fill-opacity="1" stroke="#000000" stroke-opacity="1" stroke-width="3.2"/>
<circle clip-path="url(#clip292)" cx="1696.06" cy="1296.09" r="14.4" fill="#009af9" fill-rule="evenodd" fill-opacity="1" stroke="#000000" stroke-opacity="1" stroke-width="3.2"/>
<circle clip-path="url(#clip292)" cx="2298.53" cy="1296.09" r="14.4" fill="#009af9" fill-rule="evenodd" fill-opacity="1" stroke="#000000" stroke-opacity="1" stroke-width="3.2"/>
<path clip-path="url(#clip290)" d="M1966.23 349.285 L2288.89 349.285 L2288.89 90.0846 L1966.23 90.0846  Z" fill="#ffffff" fill-rule="evenodd" fill-opacity="1"/>
<polyline clip-path="url(#clip290)" style="stroke:#000000; stroke-linecap:round; stroke-linejoin:round; stroke-width:4; stroke-opacity:1; fill:none" points="1966.23,349.285 2288.89,349.285 2288.89,90.0846 1966.23,90.0846 1966.23,349.285 "/>
<polyline clip-path="url(#clip290)" style="stroke:#009af9; stroke-linecap:round; stroke-linejoin:round; stroke-width:30; stroke-opacity:1; fill:none" points="1987.52,219.685 2115.24,219.685 "/>
<circle clip-path="url(#clip290)" cx="2051.38" cy="219.685" r="7.09583" fill="#009af9" fill-rule="evenodd" fill-opacity="1" stroke="#000000" stroke-opacity="1" stroke-width="6.3074"/>
<path clip-path="url(#clip290)" d="M2171.14 268.903 Q2166.62 280.477 2162.34 284.007 Q2158.06 287.537 2150.88 287.537 L2142.38 287.537 L2142.38 278.625 L2148.63 278.625 Q2153.02 278.625 2155.45 276.542 Q2157.88 274.459 2160.84 266.704 L2162.75 261.843 L2136.53 198.07 L2147.81 198.07 L2168.07 248.764 L2188.32 198.07 L2199.61 198.07 L2171.14 268.903 Z" fill="#000000" fill-rule="nonzero" fill-opacity="1" /><path clip-path="url(#clip290)" d="M2217.84 253.047 L2236.93 253.047 L2236.93 187.133 L2216.16 191.299 L2216.16 180.651 L2236.82 176.485 L2248.51 176.485 L2248.51 253.047 L2267.61 253.047 L2267.61 262.885 L2217.84 262.885 L2217.84 253.047 Z" fill="#000000" fill-rule="nonzero" fill-opacity="1" /></svg>
