<?xml version="1.0" encoding="utf-8"?>
<svg xmlns="http://www.w3.org/2000/svg" xmlns:xlink="http://www.w3.org/1999/xlink" width="600" height="400" viewBox="0 0 2400 1600">
<defs>
  <clipPath id="clip470">
    <rect x="0" y="0" width="2400" height="1600"/>
  </clipPath>
</defs>
<path clip-path="url(#clip470)" d="M0 1600 L2400 1600 L2400 0 L0 0  Z" fill="#ffffff" fill-rule="evenodd" fill-opacity="1"/>
<defs>
  <clipPath id="clip471">
    <rect x="480" y="0" width="1681" height="1600"/>
  </clipPath>
</defs>
<path clip-path="url(#clip470)" d="M252.103 1332.46 L2352.76 1332.46 L2352.76 47.2441 L252.103 47.2441  Z" fill="#ffffff" fill-rule="evenodd" fill-opacity="1"/>
<defs>
  <clipPath id="clip472">
    <rect x="252" y="47" width="2102" height="1286"/>
  </clipPath>
</defs>
<polyline clip-path="url(#clip472)" style="stroke:#000000; stroke-linecap:round; stroke-linejoin:round; stroke-width:2; stroke-opacity:0.1; fill:none" points="311.555,1332.46 311.555,47.2441 "/>
<polyline clip-path="url(#clip472)" style="stroke:#000000; stroke-linecap:round; stroke-linejoin:round; stroke-width:2; stroke-opacity:0.1; fill:none" points="972.138,1332.46 972.138,47.2441 "/>
<polyline clip-path="url(#clip472)" style="stroke:#000000; stroke-linecap:round; stroke-linejoin:round; stroke-width:2; stroke-opacity:0.1; fill:none" points="1632.72,1332.46 1632.72,47.2441 "/>
<polyline clip-path="url(#clip472)" style="stroke:#000000; stroke-linecap:round; stroke-linejoin:round; stroke-width:2; stroke-opacity:0.1; fill:none" points="2293.3,1332.46 2293.3,47.2441 "/>
<polyline clip-path="url(#clip472)" style="stroke:#000000; stroke-linecap:round; stroke-linejoin:round; stroke-width:2; stroke-opacity:0.1; fill:none" points="252.103,1296.09 2352.76,1296.09 "/>
<polyline clip-path="url(#clip472)" style="stroke:#000000; stroke-linecap:round; stroke-linejoin:round; stroke-width:2; stroke-opacity:0.1; fill:none" points="252.103,1053.59 2352.76,1053.59 "/>
<polyline clip-path="url(#clip472)" style="stroke:#000000; stroke-linecap:round; stroke-linejoin:round; stroke-width:2; stroke-opacity:0.1; fill:none" points="252.103,811.099 2352.76,811.099 "/>
<polyline clip-path="url(#clip472)" style="stroke:#000000; stroke-linecap:round; stroke-linejoin:round; stroke-width:2; stroke-opacity:0.1; fill:none" points="252.103,568.605 2352.76,568.605 "/>
<polyline clip-path="url(#clip472)" style="stroke:#000000; stroke-linecap:round; stroke-linejoin:round; stroke-width:2; stroke-opacity:0.1; fill:none" points="252.103,326.112 2352.76,326.112 "/>
<polyline clip-path="url(#clip472)" style="stroke:#000000; stroke-linecap:round; stroke-linejoin:round; stroke-width:2; stroke-opacity:0.1; fill:none" points="252.103,83.6181 2352.76,83.6181 "/>
<polyline clip-path="url(#clip470)" style="stroke:#000000; stroke-linecap:round; stroke-linejoin:round; stroke-width:4; stroke-opacity:1; fill:none" points="252.103,1332.46 2352.76,1332.46 "/>
<polyline clip-path="url(#clip470)" style="stroke:#000000; stroke-linecap:round; stroke-linejoin:round; stroke-width:4; stroke-opacity:1; fill:none" points="311.555,1332.46 311.555,1313.56 "/>
<polyline clip-path="url(#clip470)" style="stroke:#000000; stroke-linecap:round; stroke-linejoin:round; stroke-width:4; stroke-opacity:1; fill:none" points="972.138,1332.46 972.138,1313.56 "/>
<polyline clip-path="url(#clip470)" style="stroke:#000000; stroke-linecap:round; stroke-linejoin:round; stroke-width:4; stroke-opacity:1; fill:none" points="1632.72,1332.46 1632.72,1313.56 "/>
<polyline clip-path="url(#clip470)" style="stroke:#000000; stroke-linecap:round; stroke-linejoin:round; stroke-width:4; stroke-opacity:1; fill:none" points="2293.3,1332.46 2293.3,1313.56 "/>
<path clip-path="url(#clip470)" d="M287.51 1449.82 L306.607 1449.82 L306.607 1383.91 L285.832 1388.07 L285.832 1377.43 L306.492 1373.26 L318.181 1373.26 L318.181 1449.82 L337.278 1449.82 L337.278 1459.66 L287.51 1459.66 L287.51 1449.82 Z" fill="#000000" fill-rule="nonzero" fill-opacity="1" /><path clip-path="url(#clip470)" d="M958.77 1449.82 L999.568 1449.82 L999.568 1459.66 L944.708 1459.66 L944.708 1449.82 Q951.363 1442.94 962.821 1431.36 Q974.337 1419.73 977.288 1416.37 Q982.902 1410.07 985.101 1405.72 Q987.358 1401.33 987.358 1397.1 Q987.358 1390.22 982.497 1385.88 Q977.693 1381.54 969.939 1381.54 Q964.441 1381.54 958.307 1383.44 Q952.231 1385.35 945.286 1389.23 L945.286 1377.43 Q952.346 1374.59 958.481 1373.14 Q964.615 1371.7 969.707 1371.7 Q983.133 1371.7 991.119 1378.41 Q999.105 1385.12 999.105 1396.35 Q999.105 1401.67 997.08 1406.48 Q995.112 1411.22 989.846 1417.7 Q988.399 1419.38 980.645 1427.43 Q972.89 1435.41 958.77 1449.82 Z" fill="#000000" fill-rule="nonzero" fill-opacity="1" /><path clip-path="url(#clip470)" d="M1643.34 1413.07 Q1651.73 1414.87 1656.42 1420.54 Q1661.16 1426.21 1661.16 1434.54 Q1661.16 1447.33 1652.37 1454.34 Q1643.57 1461.34 1627.37 1461.34 Q1621.93 1461.34 1616.14 1460.24 Q1610.41 1459.2 1604.28 1457.06 L1604.28 1445.77 Q1609.14 1448.61 1614.93 1450.05 Q1620.71 1451.5 1627.02 1451.5 Q1638.02 1451.5 1643.74 1447.16 Q1649.53 1442.82 1649.53 1434.54 Q1649.53 1426.91 1644.15 1422.62 Q1638.83 1418.28 1629.28 1418.28 L1619.21 1418.28 L1619.21 1408.68 L1629.74 1408.68 Q1638.36 1408.68 1642.93 1405.26 Q1647.51 1401.79 1647.51 1395.31 Q1647.51 1388.65 1642.76 1385.12 Q1638.07 1381.54 1629.28 1381.54 Q1624.47 1381.54 1618.98 1382.58 Q1613.48 1383.62 1606.88 1385.82 L1606.88 1375.4 Q1613.54 1373.55 1619.32 1372.62 Q1625.17 1371.7 1630.32 1371.7 Q1643.63 1371.7 1651.38 1377.77 Q1659.14 1383.79 1659.14 1394.09 Q1659.14 1401.27 1655.03 1406.25 Q1650.92 1411.16 1643.34 1413.07 Z" fill="#000000" fill-rule="nonzero" fill-opacity="1" /><path clip-path="url(#clip470)" d="M2300.83 1383.44 L2271.31 1429.57 L2300.83 1429.57 L2300.83 1383.44 M2297.76 1373.26 L2312.46 1373.26 L2312.46 1429.57 L2324.78 1429.57 L2324.78 1439.29 L2312.46 1439.29 L2312.46 1459.66 L2300.83 1459.66 L2300.83 1439.29 L2261.82 1439.29 L2261.82 1428 L2297.76 1373.26 Z" fill="#000000" fill-rule="nonzero" fill-opacity="1" /><path clip-path="url(#clip470)" d="M1300.72 1518.52 L1300.72 1536.93 L1322.65 1536.93 L1322.65 1545.2 L1300.72 1545.2 L1300.72 1580.39 Q1300.72 1588.31 1302.86 1590.57 Q1305.06 1592.83 1311.72 1592.83 L1322.65 1592.83 L1322.65 1601.74 L1311.72 1601.74 Q1299.39 1601.74 1294.7 1597.17 Q1290.02 1592.54 1290.02 1580.39 L1290.02 1545.2 L1282.2 1545.2 L1282.2 1536.93 L1290.02 1536.93 L1290.02 1518.52 L1300.72 1518.52 Z" fill="#000000" fill-rule="nonzero" fill-opacity="1" /><polyline clip-path="url(#clip470)" style="stroke:#000000; stroke-linecap:round; stroke-linejoin:round; stroke-width:4; stroke-opacity:1; fill:none" points="252.103,1332.46 252.103,47.2441 "/>
<polyline clip-path="url(#clip470)" style="stroke:#000000; stroke-linecap:round; stroke-linejoin:round; stroke-width:4; stroke-opacity:1; fill:none" points="252.103,1296.09 271,1296.09 "/>
<polyline clip-path="url(#clip470)" style="stroke:#000000; stroke-linecap:round; stroke-linejoin:round; stroke-width:4; stroke-opacity:1; fill:none" points="252.103,1053.59 271,1053.59 "/>
<polyline clip-path="url(#clip470)" style="stroke:#000000; stroke-linecap:round; stroke-linejoin:round; stroke-width:4; stroke-opacity:1; fill:none" points="252.103,811.099 271,811.099 "/>
<polyline clip-path="url(#clip470)" style="stroke:#000000; stroke-linecap:round; stroke-linejoin:round; stroke-width:4; stroke-opacity:1; fill:none" points="252.103,568.605 271,568.605 "/>
<polyline clip-path="url(#clip470)" style="stroke:#000000; stroke-linecap:round; stroke-linejoin:round; stroke-width:4; stroke-opacity:1; fill:none" points="252.103,326.112 271,326.112 "/>
<polyline clip-path="url(#clip470)" style="stroke:#000000; stroke-linecap:round; stroke-linejoin:round; stroke-width:4; stroke-opacity:1; fill:none" points="252.103,83.6181 271,83.6181 "/>
<path clip-path="url(#clip470)" d="M186.242 1260.58 Q177.214 1260.58 172.642 1269.49 Q168.129 1278.35 168.129 1296.17 Q168.129 1313.94 172.642 1322.85 Q177.214 1331.7 186.242 1331.7 Q195.327 1331.7 199.841 1322.85 Q204.413 1313.94 204.413 1296.17 Q204.413 1278.35 199.841 1269.49 Q195.327 1260.58 186.242 1260.58 M186.242 1251.32 Q200.767 1251.32 208.406 1262.84 Q216.103 1274.3 216.103 1296.17 Q216.103 1317.99 208.406 1329.51 Q200.767 1340.96 186.242 1340.96 Q171.716 1340.96 164.02 1329.51 Q156.381 1317.99 156.381 1296.17 Q156.381 1274.3 164.02 1262.84 Q171.716 1251.32 186.242 1251.32 Z" fill="#000000" fill-rule="nonzero" fill-opacity="1" /><path clip-path="url(#clip470)" d="M166.335 1086.95 L185.432 1086.95 L185.432 1021.04 L164.656 1025.21 L164.656 1014.56 L185.316 1010.39 L197.006 1010.39 L197.006 1086.95 L216.103 1086.95 L216.103 1096.79 L166.335 1096.79 L166.335 1086.95 Z" fill="#000000" fill-rule="nonzero" fill-opacity="1" /><path clip-path="url(#clip470)" d="M175.304 844.461 L216.103 844.461 L216.103 854.299 L161.242 854.299 L161.242 844.461 Q167.897 837.574 179.355 826 Q190.871 814.368 193.823 811.012 Q199.436 804.704 201.635 800.364 Q203.892 795.966 203.892 791.741 Q203.892 784.855 199.031 780.514 Q194.228 776.174 186.473 776.174 Q180.976 776.174 174.841 778.084 Q168.765 779.994 161.821 783.871 L161.821 772.065 Q168.881 769.23 175.015 767.783 Q181.149 766.336 186.242 766.336 Q199.668 766.336 207.654 773.049 Q215.64 779.762 215.64 790.989 Q215.64 796.313 213.614 801.116 Q211.647 805.861 206.381 812.343 Q204.934 814.021 197.179 822.065 Q189.425 830.051 175.304 844.461 Z" fill="#000000" fill-rule="nonzero" fill-opacity="1" /><path clip-path="url(#clip470)" d="M198.279 565.22 Q206.67 567.014 211.357 572.685 Q216.103 578.356 216.103 586.69 Q216.103 599.479 207.307 606.481 Q198.51 613.483 182.307 613.483 Q176.867 613.483 171.08 612.384 Q165.351 611.342 159.217 609.201 L159.217 597.916 Q164.078 600.752 169.865 602.199 Q175.652 603.646 181.959 603.646 Q192.955 603.646 198.684 599.305 Q204.471 594.965 204.471 586.69 Q204.471 579.051 199.089 574.768 Q193.765 570.428 184.216 570.428 L174.147 570.428 L174.147 560.822 L184.679 560.822 Q193.302 560.822 197.874 557.407 Q202.445 553.935 202.445 547.454 Q202.445 540.799 197.7 537.269 Q193.013 533.681 184.216 533.681 Q179.413 533.681 173.916 534.722 Q168.418 535.764 161.821 537.963 L161.821 527.546 Q168.476 525.695 174.263 524.769 Q180.108 523.843 185.258 523.843 Q198.568 523.843 206.323 529.919 Q214.077 535.938 214.077 546.238 Q214.077 553.414 209.969 558.391 Q205.86 563.31 198.279 565.22 Z" fill="#000000" fill-rule="nonzero" fill-opacity="1" /><path clip-path="url(#clip470)" d="M192.145 293.097 L162.631 339.219 L192.145 339.219 L192.145 293.097 M189.077 282.912 L203.776 282.912 L203.776 339.219 L216.103 339.219 L216.103 348.941 L203.776 348.941 L203.776 369.312 L192.145 369.312 L192.145 348.941 L153.14 348.941 L153.14 337.657 L189.077 282.912 Z" fill="#000000" fill-rule="nonzero" fill-opacity="1" /><path clip-path="url(#clip470)" d="M163.846 40.4181 L209.737 40.4181 L209.737 50.256 L174.552 50.256 L174.552 71.4365 Q177.098 70.5684 179.645 70.1633 Q182.191 69.7004 184.737 69.7004 Q199.205 69.7004 207.654 77.6286 Q216.103 85.5568 216.103 99.0984 Q216.103 113.045 207.422 120.8 Q198.742 128.496 182.943 128.496 Q177.503 128.496 171.832 127.57 Q166.219 126.645 160.2 124.793 L160.2 113.045 Q165.409 115.881 170.964 117.27 Q176.52 118.658 182.712 118.658 Q192.723 118.658 198.568 113.392 Q204.413 108.126 204.413 99.0984 Q204.413 90.0706 198.568 84.8045 Q192.723 79.5383 182.712 79.5383 Q178.024 79.5383 173.337 80.5799 Q168.707 81.6216 163.846 83.8207 L163.846 40.4181 Z" fill="#000000" fill-rule="nonzero" fill-opacity="1" /><path clip-path="url(#clip470)" d="M7.65579 1126.31 L19.0562 1126.31 Q15.8733 1132.96 14.3108 1138.87 Q12.7484 1144.77 12.7484 1150.27 Q12.7484 1159.81 16.452 1165.02 Q20.1557 1170.17 26.9844 1170.17 Q32.7135 1170.17 35.6649 1166.76 Q38.5584 1163.29 40.3524 1153.68 L41.7991 1146.62 Q44.2875 1133.54 50.5954 1127.35 Q56.8453 1121.1 67.3777 1121.1 Q79.9355 1121.1 86.4169 1129.55 Q92.8984 1137.94 92.8984 1154.2 Q92.8984 1160.34 91.5095 1167.28 Q90.1206 1174.17 87.4007 1181.57 L75.3638 1181.57 Q79.3568 1174.46 81.3822 1167.63 Q83.4077 1160.8 83.4077 1154.2 Q83.4077 1144.19 79.4725 1138.75 Q75.5374 1133.31 68.2457 1133.31 Q61.88 1133.31 58.2921 1137.25 Q54.7041 1141.12 52.9102 1150.03 L51.5213 1157.15 Q48.9171 1170.23 43.3616 1176.08 Q37.8061 1181.92 27.9103 1181.92 Q16.452 1181.92 9.85485 1173.88 Q3.25767 1165.78 3.25767 1151.6 Q3.25767 1145.52 4.3572 1139.21 Q5.45673 1132.91 7.65579 1126.31 Z" fill="#000000" fill-rule="nonzero" fill-opacity="1" /><path clip-path="url(#clip470)" d="M8.00301 1092.8 L26.4057 1092.8 L26.4057 1070.87 L34.6811 1070.87 L34.6811 1092.8 L69.8661 1092.8 Q77.7943 1092.8 80.0512 1090.66 Q82.3082 1088.46 82.3082 1081.81 L82.3082 1070.87 L91.2202 1070.87 L91.2202 1081.81 Q91.2202 1094.13 86.6484 1098.82 Q82.0188 1103.51 69.8661 1103.51 L34.6811 1103.51 L34.6811 1111.32 L26.4057 1111.32 L26.4057 1103.51 L8.00301 1103.51 L8.00301 1092.8 Z" fill="#000000" fill-rule="nonzero" fill-opacity="1" /><path clip-path="url(#clip470)" d="M33.8709 1031.75 Q33.8709 1040.31 40.5839 1045.29 Q47.2389 1050.27 58.8708 1050.27 Q70.5027 1050.27 77.2156 1045.35 Q83.8707 1040.37 83.8707 1031.75 Q83.8707 1023.24 77.1577 1018.26 Q70.4448 1013.29 58.8708 1013.29 Q47.3547 1013.29 40.6417 1018.26 Q33.8709 1023.24 33.8709 1031.75 M24.8432 1031.75 Q24.8432 1017.86 33.8709 1009.93 Q42.8987 1002 58.8708 1002 Q74.7851 1002 83.8707 1009.93 Q92.8984 1017.86 92.8984 1031.75 Q92.8984 1045.69 83.8707 1053.62 Q74.7851 1061.49 58.8708 1061.49 Q42.8987 1061.49 33.8709 1053.62 Q24.8432 1045.69 24.8432 1031.75 Z" fill="#000000" fill-rule="nonzero" fill-opacity="1" /><path clip-path="url(#clip470)" d="M36.3593 946.795 Q35.3177 948.589 34.8547 950.73 Q34.3339 952.814 34.3339 955.36 Q34.3339 964.388 40.2366 969.249 Q46.0815 974.052 57.0768 974.052 L91.2202 974.052 L91.2202 984.758 L26.4057 984.758 L26.4057 974.052 L36.4751 974.052 Q30.5723 970.695 27.7367 965.313 Q24.8432 959.932 24.8432 952.235 Q24.8432 951.135 25.0168 949.804 Q25.1325 948.473 25.4219 946.853 L36.3593 946.795 Z" fill="#000000" fill-rule="nonzero" fill-opacity="1" /><path clip-path="url(#clip470)" d="M58.6393 906.17 Q58.6393 919.075 61.5907 924.052 Q64.5421 929.029 71.6601 929.029 Q77.3313 929.029 80.6878 925.325 Q83.9864 921.564 83.9864 915.14 Q83.9864 906.286 77.7364 900.962 Q71.4286 895.58 61.012 895.58 L58.6393 895.58 L58.6393 906.17 M54.2412 884.932 L91.2202 884.932 L91.2202 895.58 L81.3822 895.58 Q87.285 899.226 90.1206 904.666 Q92.8984 910.105 92.8984 917.976 Q92.8984 927.929 87.3429 933.832 Q81.7295 939.677 72.3545 939.677 Q61.4171 939.677 55.8616 932.385 Q50.306 925.036 50.306 910.511 L50.306 895.58 L49.2644 895.58 Q41.9149 895.58 37.9218 900.441 Q33.8709 905.244 33.8709 913.983 Q33.8709 919.538 35.2019 924.804 Q36.533 930.071 39.195 934.932 L29.3571 934.932 Q27.1001 929.087 26.0006 923.589 Q24.8432 918.091 24.8432 912.883 Q24.8432 898.821 32.1348 891.876 Q39.4265 884.932 54.2412 884.932 Z" fill="#000000" fill-rule="nonzero" fill-opacity="1" /><path clip-path="url(#clip470)" d="M58.0606 820.349 Q46.4866 820.349 40.1209 825.152 Q33.7552 829.898 33.7552 838.52 Q33.7552 847.085 40.1209 851.888 Q46.4866 856.633 58.0606 856.633 Q69.5768 856.633 75.9425 851.888 Q82.3082 847.085 82.3082 838.52 Q82.3082 829.898 75.9425 825.152 Q69.5768 820.349 58.0606 820.349 M83.1762 809.701 Q99.7271 809.701 107.771 817.05 Q115.873 824.4 115.873 839.562 Q115.873 845.175 115.005 850.152 Q114.195 855.129 112.458 859.816 L102.1 859.816 Q104.646 855.129 105.861 850.557 Q107.077 845.985 107.077 841.24 Q107.077 830.766 101.579 825.557 Q96.1391 820.349 85.0859 820.349 L79.8198 820.349 Q85.5489 823.648 88.3845 828.798 Q91.2202 833.948 91.2202 841.124 Q91.2202 853.046 82.1346 860.337 Q73.049 867.629 58.0606 867.629 Q43.0144 867.629 33.9288 860.337 Q24.8432 853.046 24.8432 841.124 Q24.8432 833.948 27.6788 828.798 Q30.5145 823.648 36.2436 820.349 L26.4057 820.349 L26.4057 809.701 L83.1762 809.701 Z" fill="#000000" fill-rule="nonzero" fill-opacity="1" /><path clip-path="url(#clip470)" d="M56.1509 732.329 L61.3592 732.329 L61.3592 781.287 Q72.3545 780.592 78.1415 774.689 Q83.8707 768.729 83.8707 758.139 Q83.8707 752.004 82.366 746.275 Q80.8614 740.488 77.8522 734.817 L87.9216 734.817 Q90.3521 740.546 91.6252 746.565 Q92.8984 752.583 92.8984 758.775 Q92.8984 774.284 83.8707 783.37 Q74.8429 792.398 59.4495 792.398 Q43.5352 792.398 34.2181 783.833 Q24.8432 775.21 24.8432 760.627 Q24.8432 747.548 33.2922 739.967 Q41.6834 732.329 56.1509 732.329 M53.0259 742.977 Q44.2875 743.092 39.0792 747.896 Q33.8709 752.641 33.8709 760.511 Q33.8709 769.423 38.9056 774.805 Q43.9403 780.129 53.0838 780.939 L53.0259 742.977 Z" fill="#000000" fill-rule="nonzero" fill-opacity="1" /><path clip-path="url(#clip470)" d="M58.8708 670.813 Q70.6184 670.813 77.3313 666.01 Q83.9864 661.148 83.9864 652.699 Q83.9864 644.25 77.3313 639.389 Q70.6184 634.528 58.8708 634.528 Q47.1232 634.528 40.4681 639.389 Q33.7552 644.25 33.7552 652.699 Q33.7552 661.148 40.4681 666.01 Q47.1232 670.813 58.8708 670.813 M81.498 634.528 Q87.285 637.885 90.1206 643.035 Q92.8984 648.128 92.8984 655.304 Q92.8984 667.051 83.5234 674.459 Q74.1485 681.808 58.8708 681.808 Q43.5931 681.808 34.2181 674.459 Q24.8432 667.051 24.8432 655.304 Q24.8432 648.128 27.6788 643.035 Q30.4566 637.885 36.2436 634.528 L26.4057 634.528 L26.4057 623.88 L115.873 623.88 L115.873 634.528 L81.498 634.528 Z" fill="#000000" fill-rule="nonzero" fill-opacity="1" /><path clip-path="url(#clip470)" d="M65.6416 603.047 L26.4057 603.047 L26.4057 592.399 L65.2365 592.399 Q74.4378 592.399 79.0674 588.811 Q83.6392 585.223 83.6392 578.047 Q83.6392 569.424 78.1415 564.448 Q72.6439 559.413 63.1532 559.413 L26.4057 559.413 L26.4057 548.765 L91.2202 548.765 L91.2202 559.413 L81.2665 559.413 Q87.1693 563.29 90.0628 568.441 Q92.8984 573.533 92.8984 580.304 Q92.8984 591.473 85.954 597.26 Q79.0096 603.047 65.6416 603.047 M24.8432 576.253 L24.8432 576.253 Z" fill="#000000" fill-rule="nonzero" fill-opacity="1" /><path clip-path="url(#clip470)" d="M58.6393 497.376 Q58.6393 510.281 61.5907 515.258 Q64.5421 520.235 71.6601 520.235 Q77.3313 520.235 80.6878 516.531 Q83.9864 512.77 83.9864 506.346 Q83.9864 497.492 77.7364 492.168 Q71.4286 486.786 61.012 486.786 L58.6393 486.786 L58.6393 497.376 M54.2412 476.138 L91.2202 476.138 L91.2202 486.786 L81.3822 486.786 Q87.285 490.432 90.1206 495.872 Q92.8984 501.311 92.8984 509.182 Q92.8984 519.135 87.3429 525.038 Q81.7295 530.883 72.3545 530.883 Q61.4171 530.883 55.8616 523.591 Q50.306 516.242 50.306 501.716 L50.306 486.786 L49.2644 486.786 Q41.9149 486.786 37.9218 491.647 Q33.8709 496.45 33.8709 505.189 Q33.8709 510.744 35.2019 516.01 Q36.533 521.276 39.195 526.138 L29.3571 526.138 Q27.1001 520.293 26.0006 514.795 Q24.8432 509.297 24.8432 504.089 Q24.8432 490.027 32.1348 483.082 Q39.4265 476.138 54.2412 476.138 Z" fill="#000000" fill-rule="nonzero" fill-opacity="1" /><path clip-path="url(#clip470)" d="M52.1 400.328 L91.2202 400.328 L91.2202 410.976 L52.4472 410.976 Q43.2459 410.976 38.6741 414.564 Q34.1024 418.152 34.1024 425.328 Q34.1024 433.951 39.6001 438.927 Q45.0977 443.904 54.5884 443.904 L91.2202 443.904 L91.2202 454.61 L26.4057 454.61 L26.4057 443.904 L36.4751 443.904 Q30.6302 440.085 27.7367 434.934 Q24.8432 429.726 24.8432 422.955 Q24.8432 411.786 31.7876 406.057 Q38.6741 400.328 52.1 400.328 Z" fill="#000000" fill-rule="nonzero" fill-opacity="1" /><path clip-path="url(#clip470)" d="M8.00301 368.557 L26.4057 368.557 L26.4057 346.625 L34.6811 346.625 L34.6811 368.557 L69.8661 368.557 Q77.7943 368.557 80.0512 366.416 Q82.3082 364.217 82.3082 357.562 L82.3082 346.625 L91.2202 346.625 L91.2202 357.562 Q91.2202 369.888 86.6484 374.576 Q82.0188 379.263 69.8661 379.263 L34.6811 379.263 L34.6811 387.076 L26.4057 387.076 L26.4057 379.263 L8.00301 379.263 L8.00301 368.557 Z" fill="#000000" fill-rule="nonzero" fill-opacity="1" /><path clip-path="url(#clip470)" d="M26.4057 332.62 L26.4057 321.972 L91.2202 321.972 L91.2202 332.62 L26.4057 332.62 M1.17434 332.62 L1.17434 321.972 L14.6581 321.972 L14.6581 332.62 L1.17434 332.62 Z" fill="#000000" fill-rule="nonzero" fill-opacity="1" /><path clip-path="url(#clip470)" d="M8.00301 289.16 L26.4057 289.16 L26.4057 267.227 L34.6811 267.227 L34.6811 289.16 L69.8661 289.16 Q77.7943 289.16 80.0512 287.018 Q82.3082 284.819 82.3082 278.164 L82.3082 267.227 L91.2202 267.227 L91.2202 278.164 Q91.2202 290.491 86.6484 295.178 Q82.0188 299.866 69.8661 299.866 L34.6811 299.866 L34.6811 307.678 L26.4057 307.678 L26.4057 299.866 L8.00301 299.866 L8.00301 289.16 Z" fill="#000000" fill-rule="nonzero" fill-opacity="1" /><path clip-path="url(#clip470)" d="M97.2386 226.255 Q108.813 230.769 112.343 235.051 Q115.873 239.334 115.873 246.509 L115.873 255.016 L106.961 255.016 L106.961 248.766 Q106.961 244.368 104.877 241.938 Q102.794 239.507 95.0396 236.556 L90.1785 234.646 L26.4057 260.861 L26.4057 249.577 L77.0999 229.322 L26.4057 209.068 L26.4057 197.783 L97.2386 226.255 Z" fill="#000000" fill-rule="nonzero" fill-opacity="1" /><polyline clip-path="url(#clip472)" style="stroke:#009af9; stroke-linecap:round; stroke-linejoin:round; stroke-width:12; stroke-opacity:1; fill:none" points="311.555,83.6181 972.138,1296.09 1632.72,83.6181 2293.3,1296.09 "/>
<circle clip-path="url(#clip472)" cx="311.555" cy="83.6181" r="14.4" fill="#009af9" fill-rule="evenodd" fill-opacity="1" stroke="#000000" stroke-opacity="1" stroke-width="3.2"/>
<circle clip-path="url(#clip472)" cx="972.138" cy="1296.09" r="14.4" fill="#009af9" fill-rule="evenodd" fill-opacity="1" stroke="#000000" stroke-opacity="1" stroke-width="3.2"/>
<circle clip-path="url(#clip472)" cx="1632.72" cy="83.6181" r="14.4" fill="#009af9" fill-rule="evenodd" fill-opacity="1" stroke="#000000" stroke-opacity="1" stroke-width="3.2"/>
<circle clip-path="url(#clip472)" cx="2293.3" cy="1296.09" r="14.4" fill="#009af9" fill-rule="evenodd" fill-opacity="1" stroke="#000000" stroke-opacity="1" stroke-width="3.2"/>
<path clip-path="url(#clip470)" d="M1941.59 349.285 L2282.73 349.285 L2282.73 90.0846 L1941.59 90.0846  Z" fill="#ffffff" fill-rule="evenodd" fill-opacity="1"/>
<polyline clip-path="url(#clip470)" style="stroke:#000000; stroke-linecap:round; stroke-linejoin:round; stroke-width:4; stroke-opacity:1; fill:none" points="1941.59,349.285 2282.73,349.285 2282.73,90.0846 1941.59,90.0846 1941.59,349.285 "/>
<polyline clip-path="url(#clip470)" style="stroke:#009af9; stroke-linecap:round; stroke-linejoin:round; stroke-width:30; stroke-opacity:1; fill:none" points="1964.93,219.685 2104.98,219.685 "/>
<circle clip-path="url(#clip470)" cx="2034.96" cy="219.685" r="7.7802" fill="#009af9" fill-rule="evenodd" fill-opacity="1" stroke="#000000" stroke-opacity="1" stroke-width="6.91573"/>
<path clip-path="url(#clip470)" d="M2162.92 268.903 Q2158.41 280.477 2154.13 284.007 Q2149.85 287.537 2142.67 287.537 L2134.16 287.537 L2134.16 278.625 L2140.41 278.625 Q2144.81 278.625 2147.24 276.542 Q2149.67 274.459 2152.62 266.704 L2154.53 261.843 L2128.32 198.07 L2139.6 198.07 L2159.86 248.764 L2180.11 198.07 L2191.4 198.07 L2162.92 268.903 Z" fill="#000000" fill-rule="nonzero" fill-opacity="1" /><path clip-path="url(#clip470)" d="M2209.63 253.047 L2228.72 253.047 L2228.72 187.133 L2207.95 191.299 L2207.95 180.651 L2228.61 176.485 L2240.3 176.485 L2240.3 253.047 L2259.39 253.047 L2259.39 262.885 L2209.63 262.885 L2209.63 253.047 Z" fill="#000000" fill-rule="nonzero" fill-opacity="1" /></svg>
