<?xml version="1.0" encoding="utf-8"?>
<svg xmlns="http://www.w3.org/2000/svg" xmlns:xlink="http://www.w3.org/1999/xlink" width="600" height="400" viewBox="0 0 2400 1600">
<defs>
  <clipPath id="clip500">
    <rect x="0" y="0" width="2400" height="1600"/>
  </clipPath>
</defs>
<path clip-path="url(#clip500)" d="M0 1600 L2400 1600 L2400 0 L0 0  Z" fill="#ffffff" fill-rule="evenodd" fill-opacity="1"/>
<defs>
  <clipPath id="clip501">
    <rect x="480" y="0" width="1681" height="1600"/>
  </clipPath>
</defs>
<path clip-path="url(#clip500)" d="M326.292 1332.46 L2352.76 1332.46 L2352.76 47.2441 L326.292 47.2441  Z" fill="#ffffff" fill-rule="evenodd" fill-opacity="1"/>
<defs>
  <clipPath id="clip502">
    <rect x="326" y="47" width="2027" height="1286"/>
  </clipPath>
</defs>
<polyline clip-path="url(#clip502)" style="stroke:#000000; stroke-linecap:round; stroke-linejoin:round; stroke-width:2; stroke-opacity:0.1; fill:none" points="383.645,1332.46 383.645,47.2441 "/>
<polyline clip-path="url(#clip502)" style="stroke:#000000; stroke-linecap:round; stroke-linejoin:round; stroke-width:2; stroke-opacity:0.1; fill:none" points="1020.9,1332.46 1020.9,47.2441 "/>
<polyline clip-path="url(#clip502)" style="stroke:#000000; stroke-linecap:round; stroke-linejoin:round; stroke-width:2; stroke-opacity:0.1; fill:none" points="1658.15,1332.46 1658.15,47.2441 "/>
<polyline clip-path="url(#clip502)" style="stroke:#000000; stroke-linecap:round; stroke-linejoin:round; stroke-width:2; stroke-opacity:0.1; fill:none" points="2295.4,1332.46 2295.4,47.2441 "/>
<polyline clip-path="url(#clip502)" style="stroke:#000000; stroke-linecap:round; stroke-linejoin:round; stroke-width:2; stroke-opacity:0.1; fill:none" points="326.292,1296.09 2352.76,1296.09 "/>
<polyline clip-path="url(#clip502)" style="stroke:#000000; stroke-linecap:round; stroke-linejoin:round; stroke-width:2; stroke-opacity:0.1; fill:none" points="326.292,1053.59 2352.76,1053.59 "/>
<polyline clip-path="url(#clip502)" style="stroke:#000000; stroke-linecap:round; stroke-linejoin:round; stroke-width:2; stroke-opacity:0.1; fill:none" points="326.292,811.099 2352.76,811.099 "/>
<polyline clip-path="url(#clip502)" style="stroke:#000000; stroke-linecap:round; stroke-linejoin:round; stroke-width:2; stroke-opacity:0.1; fill:none" points="326.292,568.605 2352.76,568.605 "/>
<polyline clip-path="url(#clip502)" style="stroke:#000000; stroke-linecap:round; stroke-linejoin:round; stroke-width:2; stroke-opacity:0.1; fill:none" points="326.292,326.112 2352.76,326.112 "/>
<polyline clip-path="url(#clip502)" style="stroke:#000000; stroke-linecap:round; stroke-linejoin:round; stroke-width:2; stroke-opacity:0.1; fill:none" points="326.292,83.6181 2352.76,83.6181 "/>
<polyline clip-path="url(#clip500)" style="stroke:#000000; stroke-linecap:round; stroke-linejoin:round; stroke-width:4; stroke-opacity:1; fill:none" points="326.292,1332.46 2352.76,1332.46 "/>
<polyline clip-path="url(#clip500)" style="stroke:#000000; stroke-linecap:round; stroke-linejoin:round; stroke-width:4; stroke-opacity:1; fill:none" points="383.645,1332.46 383.645,1313.56 "/>
<polyline clip-path="url(#clip500)" style="stroke:#000000; stroke-linecap:round; stroke-linejoin:round; stroke-width:4; stroke-opacity:1; fill:none" points="1020.9,1332.46 1020.9,1313.56 "/>
<polyline clip-path="url(#clip500)" style="stroke:#000000; stroke-linecap:round; stroke-linejoin:round; stroke-width:4; stroke-opacity:1; fill:none" points="1658.15,1332.46 1658.15,1313.56 "/>
<polyline clip-path="url(#clip500)" style="stroke:#000000; stroke-linecap:round; stroke-linejoin:round; stroke-width:4; stroke-opacity:1; fill:none" points="2295.4,1332.46 2295.4,1313.56 "/>
<path clip-path="url(#clip500)" d="M359.6 1449.82 L378.697 1449.82 L378.697 1383.91 L357.922 1388.07 L357.922 1377.43 L378.581 1373.26 L390.271 1373.26 L390.271 1449.82 L409.368 1449.82 L409.368 1459.66 L359.6 1459.66 L359.6 1449.82 Z" fill="#000000" fill-rule="nonzero" fill-opacity="1" /><path clip-path="url(#clip500)" d="M1007.53 1449.82 L1048.33 1449.82 L1048.33 1459.66 L993.467 1459.66 L993.467 1449.82 Q1000.12 1442.94 1011.58 1431.36 Q1023.1 1419.73 1026.05 1416.37 Q1031.66 1410.07 1033.86 1405.72 Q1036.12 1401.33 1036.12 1397.1 Q1036.12 1390.22 1031.26 1385.88 Q1026.45 1381.54 1018.7 1381.54 Q1013.2 1381.54 1007.07 1383.44 Q1000.99 1385.35 994.046 1389.23 L994.046 1377.43 Q1001.11 1374.59 1007.24 1373.14 Q1013.37 1371.7 1018.47 1371.7 Q1031.89 1371.7 1039.88 1378.41 Q1047.87 1385.12 1047.87 1396.35 Q1047.87 1401.67 1045.84 1406.48 Q1043.87 1411.22 1038.61 1417.7 Q1037.16 1419.38 1029.4 1427.43 Q1021.65 1435.41 1007.53 1449.82 Z" fill="#000000" fill-rule="nonzero" fill-opacity="1" /><path clip-path="url(#clip500)" d="M1668.77 1413.07 Q1677.16 1414.87 1681.85 1420.54 Q1686.59 1426.21 1686.59 1434.54 Q1686.59 1447.33 1677.8 1454.34 Q1669 1461.34 1652.8 1461.34 Q1647.36 1461.34 1641.57 1460.24 Q1635.84 1459.2 1629.71 1457.06 L1629.71 1445.77 Q1634.57 1448.61 1640.36 1450.05 Q1646.14 1451.5 1652.45 1451.5 Q1663.45 1451.5 1669.17 1447.16 Q1674.96 1442.82 1674.96 1434.54 Q1674.96 1426.91 1669.58 1422.62 Q1664.26 1418.28 1654.71 1418.28 L1644.64 1418.28 L1644.64 1408.68 L1655.17 1408.68 Q1663.79 1408.68 1668.36 1405.26 Q1672.94 1401.79 1672.94 1395.31 Q1672.94 1388.65 1668.19 1385.12 Q1663.5 1381.54 1654.71 1381.54 Q1649.9 1381.54 1644.41 1382.58 Q1638.91 1383.62 1632.31 1385.82 L1632.31 1375.4 Q1638.97 1373.55 1644.75 1372.62 Q1650.6 1371.7 1655.75 1371.7 Q1669.06 1371.7 1676.81 1377.77 Q1684.57 1383.79 1684.57 1394.09 Q1684.57 1401.27 1680.46 1406.25 Q1676.35 1411.16 1668.77 1413.07 Z" fill="#000000" fill-rule="nonzero" fill-opacity="1" /><path clip-path="url(#clip500)" d="M2302.93 1383.44 L2273.41 1429.57 L2302.93 1429.57 L2302.93 1383.44 M2299.86 1373.26 L2314.56 1373.26 L2314.56 1429.57 L2326.88 1429.57 L2326.88 1439.29 L2314.56 1439.29 L2314.56 1459.66 L2302.93 1459.66 L2302.93 1439.29 L2263.92 1439.29 L2263.92 1428 L2299.86 1373.26 Z" fill="#000000" fill-rule="nonzero" fill-opacity="1" /><path clip-path="url(#clip500)" d="M1337.82 1518.52 L1337.82 1536.93 L1359.75 1536.93 L1359.75 1545.2 L1337.82 1545.2 L1337.82 1580.39 Q1337.82 1588.31 1339.96 1590.57 Q1342.16 1592.83 1348.81 1592.83 L1359.75 1592.83 L1359.75 1601.74 L1348.81 1601.74 Q1336.49 1601.74 1331.8 1597.17 Q1327.11 1592.54 1327.11 1580.39 L1327.11 1545.2 L1319.3 1545.2 L1319.3 1536.93 L1327.11 1536.93 L1327.11 1518.52 L1337.82 1518.52 Z" fill="#000000" fill-rule="nonzero" fill-opacity="1" /><polyline clip-path="url(#clip500)" style="stroke:#000000; stroke-linecap:round; stroke-linejoin:round; stroke-width:4; stroke-opacity:1; fill:none" points="326.292,1332.46 326.292,47.2441 "/>
<polyline clip-path="url(#clip500)" style="stroke:#000000; stroke-linecap:round; stroke-linejoin:round; stroke-width:4; stroke-opacity:1; fill:none" points="326.292,1296.09 345.19,1296.09 "/>
<polyline clip-path="url(#clip500)" style="stroke:#000000; stroke-linecap:round; stroke-linejoin:round; stroke-width:4; stroke-opacity:1; fill:none" points="326.292,1053.59 345.19,1053.59 "/>
<polyline clip-path="url(#clip500)" style="stroke:#000000; stroke-linecap:round; stroke-linejoin:round; stroke-width:4; stroke-opacity:1; fill:none" points="326.292,811.099 345.19,811.099 "/>
<polyline clip-path="url(#clip500)" style="stroke:#000000; stroke-linecap:round; stroke-linejoin:round; stroke-width:4; stroke-opacity:1; fill:none" points="326.292,568.605 345.19,568.605 "/>
<polyline clip-path="url(#clip500)" style="stroke:#000000; stroke-linecap:round; stroke-linejoin:round; stroke-width:4; stroke-opacity:1; fill:none" points="326.292,326.112 345.19,326.112 "/>
<polyline clip-path="url(#clip500)" style="stroke:#000000; stroke-linecap:round; stroke-linejoin:round; stroke-width:4; stroke-opacity:1; fill:none" points="326.292,83.6181 345.19,83.6181 "/>
<path clip-path="url(#clip500)" d="M260.431 1260.58 Q251.404 1260.58 246.832 1269.49 Q242.318 1278.35 242.318 1296.17 Q242.318 1313.94 246.832 1322.85 Q251.404 1331.7 260.431 1331.7 Q269.517 1331.7 274.031 1322.85 Q278.602 1313.94 278.602 1296.17 Q278.602 1278.35 274.031 1269.49 Q269.517 1260.58 260.431 1260.58 M260.431 1251.32 Q274.957 1251.32 282.595 1262.84 Q290.292 1274.3 290.292 1296.17 Q290.292 1317.99 282.595 1329.51 Q274.957 1340.96 260.431 1340.96 Q245.906 1340.96 238.209 1329.51 Q230.57 1317.99 230.57 1296.17 Q230.57 1274.3 238.209 1262.84 Q245.906 1251.32 260.431 1251.32 Z" fill="#000000" fill-rule="nonzero" fill-opacity="1" /><path clip-path="url(#clip500)" d="M162.052 1086.95 L181.149 1086.95 L181.149 1021.04 L160.374 1025.21 L160.374 1014.56 L181.034 1010.39 L192.723 1010.39 L192.723 1086.95 L211.82 1086.95 L211.82 1096.79 L162.052 1096.79 L162.052 1086.95 Z" fill="#000000" fill-rule="nonzero" fill-opacity="1" /><path clip-path="url(#clip500)" d="M260.431 1018.09 Q251.404 1018.09 246.832 1027 Q242.318 1035.86 242.318 1053.68 Q242.318 1071.45 246.832 1080.36 Q251.404 1089.21 260.431 1089.21 Q269.517 1089.21 274.031 1080.36 Q278.602 1071.45 278.602 1053.68 Q278.602 1035.86 274.031 1027 Q269.517 1018.09 260.431 1018.09 M260.431 1008.83 Q274.957 1008.83 282.595 1020.35 Q290.292 1031.8 290.292 1053.68 Q290.292 1075.5 282.595 1087.01 Q274.957 1098.47 260.431 1098.47 Q245.906 1098.47 238.209 1087.01 Q230.57 1075.5 230.57 1053.68 Q230.57 1031.8 238.209 1020.35 Q245.906 1008.83 260.431 1008.83 Z" fill="#000000" fill-rule="nonzero" fill-opacity="1" /><path clip-path="url(#clip500)" d="M170.096 844.461 L210.894 844.461 L210.894 854.299 L156.034 854.299 L156.034 844.461 Q162.689 837.574 174.147 826 Q185.663 814.368 188.615 811.012 Q194.228 804.704 196.427 800.364 Q198.684 795.966 198.684 791.741 Q198.684 784.855 193.823 780.514 Q189.02 776.174 181.265 776.174 Q175.767 776.174 169.633 778.084 Q163.557 779.994 156.612 783.871 L156.612 772.065 Q163.673 769.23 169.807 767.783 Q175.941 766.336 181.034 766.336 Q194.459 766.336 202.445 773.049 Q210.432 779.762 210.432 790.989 Q210.432 796.313 208.406 801.116 Q206.438 805.861 201.172 812.343 Q199.726 814.021 191.971 822.065 Q184.216 830.051 170.096 844.461 Z" fill="#000000" fill-rule="nonzero" fill-opacity="1" /><path clip-path="url(#clip500)" d="M260.431 775.595 Q251.404 775.595 246.832 784.507 Q242.318 793.362 242.318 811.186 Q242.318 828.952 246.832 837.864 Q251.404 846.718 260.431 846.718 Q269.517 846.718 274.031 837.864 Q278.602 828.952 278.602 811.186 Q278.602 793.362 274.031 784.507 Q269.517 775.595 260.431 775.595 M260.431 766.336 Q274.957 766.336 282.595 777.852 Q290.292 789.311 290.292 811.186 Q290.292 833.003 282.595 844.519 Q274.957 855.977 260.431 855.977 Q245.906 855.977 238.209 844.519 Q230.57 833.003 230.57 811.186 Q230.57 789.311 238.209 777.852 Q245.906 766.336 260.431 766.336 Z" fill="#000000" fill-rule="nonzero" fill-opacity="1" /><path clip-path="url(#clip500)" d="M195.443 565.22 Q203.834 567.014 208.522 572.685 Q213.267 578.356 213.267 586.69 Q213.267 599.479 204.471 606.481 Q195.675 613.483 179.471 613.483 Q174.031 613.483 168.244 612.384 Q162.515 611.342 156.381 609.201 L156.381 597.916 Q161.242 600.752 167.029 602.199 Q172.816 603.646 179.124 603.646 Q190.119 603.646 195.848 599.305 Q201.635 594.965 201.635 586.69 Q201.635 579.051 196.253 574.768 Q190.929 570.428 181.381 570.428 L171.311 570.428 L171.311 560.822 L181.844 560.822 Q190.466 560.822 195.038 557.407 Q199.61 553.935 199.61 547.454 Q199.61 540.799 194.864 537.269 Q190.177 533.681 181.381 533.681 Q176.578 533.681 171.08 534.722 Q165.582 535.764 158.985 537.963 L158.985 527.546 Q165.64 525.695 171.427 524.769 Q177.272 523.843 182.422 523.843 Q195.733 523.843 203.487 529.919 Q211.242 535.938 211.242 546.238 Q211.242 553.414 207.133 558.391 Q203.024 563.31 195.443 565.22 Z" fill="#000000" fill-rule="nonzero" fill-opacity="1" /><path clip-path="url(#clip500)" d="M260.431 533.102 Q251.404 533.102 246.832 542.014 Q242.318 550.868 242.318 568.692 Q242.318 586.458 246.832 595.37 Q251.404 604.224 260.431 604.224 Q269.517 604.224 274.031 595.37 Q278.602 586.458 278.602 568.692 Q278.602 550.868 274.031 542.014 Q269.517 533.102 260.431 533.102 M260.431 523.843 Q274.957 523.843 282.595 535.359 Q290.292 546.817 290.292 568.692 Q290.292 590.509 282.595 602.025 Q274.957 613.483 260.431 613.483 Q245.906 613.483 238.209 602.025 Q230.57 590.509 230.57 568.692 Q230.57 546.817 238.209 535.359 Q245.906 523.843 260.431 523.843 Z" fill="#000000" fill-rule="nonzero" fill-opacity="1" /><path clip-path="url(#clip500)" d="M192.145 293.097 L162.631 339.219 L192.145 339.219 L192.145 293.097 M189.077 282.912 L203.776 282.912 L203.776 339.219 L216.103 339.219 L216.103 348.941 L203.776 348.941 L203.776 369.312 L192.145 369.312 L192.145 348.941 L153.14 348.941 L153.14 337.657 L189.077 282.912 Z" fill="#000000" fill-rule="nonzero" fill-opacity="1" /><path clip-path="url(#clip500)" d="M260.431 290.608 Q251.404 290.608 246.832 299.52 Q242.318 308.374 242.318 326.198 Q242.318 343.965 246.832 352.877 Q251.404 361.731 260.431 361.731 Q269.517 361.731 274.031 352.877 Q278.602 343.965 278.602 326.198 Q278.602 308.374 274.031 299.52 Q269.517 290.608 260.431 290.608 M260.431 281.349 Q274.957 281.349 282.595 292.865 Q290.292 304.324 290.292 326.198 Q290.292 348.015 282.595 359.532 Q274.957 370.99 260.431 370.99 Q245.906 370.99 238.209 359.532 Q230.57 348.015 230.57 326.198 Q230.57 304.324 238.209 292.865 Q245.906 281.349 260.431 281.349 Z" fill="#000000" fill-rule="nonzero" fill-opacity="1" /><path clip-path="url(#clip500)" d="M160.142 40.4181 L206.033 40.4181 L206.033 50.256 L170.848 50.256 L170.848 71.4365 Q173.395 70.5684 175.941 70.1633 Q178.487 69.7004 181.034 69.7004 Q195.501 69.7004 203.95 77.6286 Q212.399 85.5568 212.399 99.0984 Q212.399 113.045 203.719 120.8 Q195.038 128.496 179.24 128.496 Q173.8 128.496 168.129 127.57 Q162.515 126.645 156.497 124.793 L156.497 113.045 Q161.705 115.881 167.26 117.27 Q172.816 118.658 179.008 118.658 Q189.02 118.658 194.864 113.392 Q200.709 108.126 200.709 99.0984 Q200.709 90.0706 194.864 84.8045 Q189.02 79.5383 179.008 79.5383 Q174.321 79.5383 169.633 80.5799 Q165.004 81.6216 160.142 83.8207 L160.142 40.4181 Z" fill="#000000" fill-rule="nonzero" fill-opacity="1" /><path clip-path="url(#clip500)" d="M260.431 48.1148 Q251.404 48.1148 246.832 57.0268 Q242.318 65.881 242.318 83.7049 Q242.318 101.471 246.832 110.383 Q251.404 119.237 260.431 119.237 Q269.517 119.237 274.031 110.383 Q278.602 101.471 278.602 83.7049 Q278.602 65.881 274.031 57.0268 Q269.517 48.1148 260.431 48.1148 M260.431 38.8556 Q274.957 38.8556 282.595 50.3718 Q290.292 61.83 290.292 83.7049 Q290.292 105.522 282.595 117.038 Q274.957 128.496 260.431 128.496 Q245.906 128.496 238.209 117.038 Q230.57 105.522 230.57 83.7049 Q230.57 61.83 238.209 50.3718 Q245.906 38.8556 260.431 38.8556 Z" fill="#000000" fill-rule="nonzero" fill-opacity="1" /><path clip-path="url(#clip500)" d="M7.65579 1126.31 L19.0562 1126.31 Q15.8733 1132.96 14.3108 1138.87 Q12.7484 1144.77 12.7484 1150.27 Q12.7484 1159.81 16.452 1165.02 Q20.1557 1170.17 26.9844 1170.17 Q32.7135 1170.17 35.6649 1166.76 Q38.5584 1163.29 40.3524 1153.68 L41.7991 1146.62 Q44.2875 1133.54 50.5954 1127.35 Q56.8453 1121.1 67.3777 1121.1 Q79.9355 1121.1 86.4169 1129.55 Q92.8984 1137.94 92.8984 1154.2 Q92.8984 1160.34 91.5095 1167.28 Q90.1206 1174.17 87.4007 1181.57 L75.3638 1181.57 Q79.3568 1174.46 81.3822 1167.63 Q83.4077 1160.8 83.4077 1154.2 Q83.4077 1144.19 79.4725 1138.75 Q75.5374 1133.31 68.2457 1133.31 Q61.88 1133.31 58.2921 1137.25 Q54.7041 1141.12 52.9102 1150.03 L51.5213 1157.15 Q48.9171 1170.23 43.3616 1176.08 Q37.8061 1181.92 27.9103 1181.92 Q16.452 1181.92 9.85485 1173.88 Q3.25767 1165.78 3.25767 1151.6 Q3.25767 1145.52 4.3572 1139.21 Q5.45673 1132.91 7.65579 1126.31 Z" fill="#000000" fill-rule="nonzero" fill-opacity="1" /><path clip-path="url(#clip500)" d="M8.00301 1092.8 L26.4057 1092.8 L26.4057 1070.87 L34.6811 1070.87 L34.6811 1092.8 L69.8661 1092.8 Q77.7943 1092.8 80.0512 1090.66 Q82.3082 1088.46 82.3082 1081.81 L82.3082 1070.87 L91.2202 1070.87 L91.2202 1081.81 Q91.2202 1094.13 86.6484 1098.82 Q82.0188 1103.51 69.8661 1103.51 L34.6811 1103.51 L34.6811 1111.32 L26.4057 1111.32 L26.4057 1103.51 L8.00301 1103.51 L8.00301 1092.8 Z" fill="#000000" fill-rule="nonzero" fill-opacity="1" /><path clip-path="url(#clip500)" d="M33.8709 1031.75 Q33.8709 1040.31 40.5839 1045.29 Q47.2389 1050.27 58.8708 1050.27 Q70.5027 1050.27 77.2156 1045.35 Q83.8707 1040.37 83.8707 1031.75 Q83.8707 1023.24 77.1577 1018.26 Q70.4448 1013.29 58.8708 1013.29 Q47.3547 1013.29 40.6417 1018.26 Q33.8709 1023.24 33.8709 1031.75 M24.8432 1031.75 Q24.8432 1017.86 33.8709 1009.93 Q42.8987 1002 58.8708 1002 Q74.7851 1002 83.8707 1009.93 Q92.8984 1017.86 92.8984 1031.75 Q92.8984 1045.69 83.8707 1053.62 Q74.7851 1061.49 58.8708 1061.49 Q42.8987 1061.49 33.8709 1053.62 Q24.8432 1045.69 24.8432 1031.75 Z" fill="#000000" fill-rule="nonzero" fill-opacity="1" /><path clip-path="url(#clip500)" d="M36.3593 946.795 Q35.3177 948.589 34.8547 950.73 Q34.3339 952.814 34.3339 955.36 Q34.3339 964.388 40.2366 969.249 Q46.0815 974.052 57.0768 974.052 L91.2202 974.052 L91.2202 984.758 L26.4057 984.758 L26.4057 974.052 L36.4751 974.052 Q30.5723 970.695 27.7367 965.313 Q24.8432 959.932 24.8432 952.235 Q24.8432 951.135 25.0168 949.804 Q25.1325 948.473 25.4219 946.853 L36.3593 946.795 Z" fill="#000000" fill-rule="nonzero" fill-opacity="1" /><path clip-path="url(#clip500)" d="M58.6393 906.17 Q58.6393 919.075 61.5907 924.052 Q64.5421 929.029 71.6601 929.029 Q77.3313 929.029 80.6878 925.325 Q83.9864 921.564 83.9864 915.14 Q83.9864 906.286 77.7364 900.962 Q71.4286 895.58 61.012 895.58 L58.6393 895.58 L58.6393 906.17 M54.2412 884.932 L91.2202 884.932 L91.2202 895.58 L81.3822 895.58 Q87.285 899.226 90.1206 904.666 Q92.8984 910.105 92.8984 917.976 Q92.8984 927.929 87.3429 933.832 Q81.7295 939.677 72.3545 939.677 Q61.4171 939.677 55.8616 932.385 Q50.306 925.036 50.306 910.511 L50.306 895.58 L49.2644 895.58 Q41.9149 895.58 37.9218 900.441 Q33.8709 905.244 33.8709 913.983 Q33.8709 919.538 35.2019 924.804 Q36.533 930.071 39.195 934.932 L29.3571 934.932 Q27.1001 929.087 26.0006 923.589 Q24.8432 918.091 24.8432 912.883 Q24.8432 898.821 32.1348 891.876 Q39.4265 884.932 54.2412 884.932 Z" fill="#000000" fill-rule="nonzero" fill-opacity="1" /><path clip-path="url(#clip500)" d="M58.0606 820.349 Q46.4866 820.349 40.1209 825.152 Q33.7552 829.898 33.7552 838.52 Q33.7552 847.085 40.1209 851.888 Q46.4866 856.633 58.0606 856.633 Q69.5768 856.633 75.9425 851.888 Q82.3082 847.085 82.3082 838.52 Q82.3082 829.898 75.9425 825.152 Q69.5768 820.349 58.0606 820.349 M83.1762 809.701 Q99.7271 809.701 107.771 817.05 Q115.873 824.4 115.873 839.562 Q115.873 845.175 115.005 850.152 Q114.195 855.129 112.458 859.816 L102.1 859.816 Q104.646 855.129 105.861 850.557 Q107.077 845.985 107.077 841.24 Q107.077 830.766 101.579 825.557 Q96.1391 820.349 85.0859 820.349 L79.8198 820.349 Q85.5489 823.648 88.3845 828.798 Q91.2202 833.948 91.2202 841.124 Q91.2202 853.046 82.1346 860.337 Q73.049 867.629 58.0606 867.629 Q43.0144 867.629 33.9288 860.337 Q24.8432 853.046 24.8432 841.124 Q24.8432 833.948 27.6788 828.798 Q30.5145 823.648 36.2436 820.349 L26.4057 820.349 L26.4057 809.701 L83.1762 809.701 Z" fill="#000000" fill-rule="nonzero" fill-opacity="1" /><path clip-path="url(#clip500)" d="M56.1509 732.329 L61.3592 732.329 L61.3592 781.287 Q72.3545 780.592 78.1415 774.689 Q83.8707 768.729 83.8707 758.139 Q83.8707 752.004 82.366 746.275 Q80.8614 740.488 77.8522 734.817 L87.9216 734.817 Q90.3521 740.546 91.6252 746.565 Q92.8984 752.583 92.8984 758.775 Q92.8984 774.284 83.8707 783.37 Q74.8429 792.398 59.4495 792.398 Q43.5352 792.398 34.2181 783.833 Q24.8432 775.21 24.8432 760.627 Q24.8432 747.548 33.2922 739.967 Q41.6834 732.329 56.1509 732.329 M53.0259 742.977 Q44.2875 743.092 39.0792 747.896 Q33.8709 752.641 33.8709 760.511 Q33.8709 769.423 38.9056 774.805 Q43.9403 780.129 53.0838 780.939 L53.0259 742.977 Z" fill="#000000" fill-rule="nonzero" fill-opacity="1" /><path clip-path="url(#clip500)" d="M58.8708 670.813 Q70.6184 670.813 77.3313 666.01 Q83.9864 661.148 83.9864 652.699 Q83.9864 644.25 77.3313 639.389 Q70.6184 634.528 58.8708 634.528 Q47.1232 634.528 40.4681 639.389 Q33.7552 644.25 33.7552 652.699 Q33.7552 661.148 40.4681 666.01 Q47.1232 670.813 58.8708 670.813 M81.498 634.528 Q87.285 637.885 90.1206 643.035 Q92.8984 648.128 92.8984 655.304 Q92.8984 667.051 83.5234 674.459 Q74.1485 681.808 58.8708 681.808 Q43.5931 681.808 34.2181 674.459 Q24.8432 667.051 24.8432 655.304 Q24.8432 648.128 27.6788 643.035 Q30.4566 637.885 36.2436 634.528 L26.4057 634.528 L26.4057 623.88 L115.873 623.88 L115.873 634.528 L81.498 634.528 Z" fill="#000000" fill-rule="nonzero" fill-opacity="1" /><path clip-path="url(#clip500)" d="M65.6416 603.047 L26.4057 603.047 L26.4057 592.399 L65.2365 592.399 Q74.4378 592.399 79.0674 588.811 Q83.6392 585.223 83.6392 578.047 Q83.6392 569.424 78.1415 564.448 Q72.6439 559.413 63.1532 559.413 L26.4057 559.413 L26.4057 548.765 L91.2202 548.765 L91.2202 559.413 L81.2665 559.413 Q87.1693 563.29 90.0628 568.441 Q92.8984 573.533 92.8984 580.304 Q92.8984 591.473 85.954 597.26 Q79.0096 603.047 65.6416 603.047 M24.8432 576.253 L24.8432 576.253 Z" fill="#000000" fill-rule="nonzero" fill-opacity="1" /><path clip-path="url(#clip500)" d="M58.6393 497.376 Q58.6393 510.281 61.5907 515.258 Q64.5421 520.235 71.6601 520.235 Q77.3313 520.235 80.6878 516.531 Q83.9864 512.77 83.9864 506.346 Q83.9864 497.492 77.7364 492.168 Q71.4286 486.786 61.012 486.786 L58.6393 486.786 L58.6393 497.376 M54.2412 476.138 L91.2202 476.138 L91.2202 486.786 L81.3822 486.786 Q87.285 490.432 90.1206 495.872 Q92.8984 501.311 92.8984 509.182 Q92.8984 519.135 87.3429 525.038 Q81.7295 530.883 72.3545 530.883 Q61.4171 530.883 55.8616 523.591 Q50.306 516.242 50.306 501.716 L50.306 486.786 L49.2644 486.786 Q41.9149 486.786 37.9218 491.647 Q33.8709 496.45 33.8709 505.189 Q33.8709 510.744 35.2019 516.01 Q36.533 521.276 39.195 526.138 L29.3571 526.138 Q27.1001 520.293 26.0006 514.795 Q24.8432 509.297 24.8432 504.089 Q24.8432 490.027 32.1348 483.082 Q39.4265 476.138 54.2412 476.138 Z" fill="#000000" fill-rule="nonzero" fill-opacity="1" /><path clip-path="url(#clip500)" d="M52.1 400.328 L91.2202 400.328 L91.2202 410.976 L52.4472 410.976 Q43.2459 410.976 38.6741 414.564 Q34.1024 418.152 34.1024 425.328 Q34.1024 433.951 39.6001 438.927 Q45.0977 443.904 54.5884 443.904 L91.2202 443.904 L91.2202 454.61 L26.4057 454.61 L26.4057 443.904 L36.4751 443.904 Q30.6302 440.085 27.7367 434.934 Q24.8432 429.726 24.8432 422.955 Q24.8432 411.786 31.7876 406.057 Q38.6741 400.328 52.1 400.328 Z" fill="#000000" fill-rule="nonzero" fill-opacity="1" /><path clip-path="url(#clip500)" d="M8.00301 368.557 L26.4057 368.557 L26.4057 346.625 L34.6811 346.625 L34.6811 368.557 L69.8661 368.557 Q77.7943 368.557 80.0512 366.416 Q82.3082 364.217 82.3082 357.562 L82.3082 346.625 L91.2202 346.625 L91.2202 357.562 Q91.2202 369.888 86.6484 374.576 Q82.0188 379.263 69.8661 379.263 L34.6811 379.263 L34.6811 387.076 L26.4057 387.076 L26.4057 379.263 L8.00301 379.263 L8.00301 368.557 Z" fill="#000000" fill-rule="nonzero" fill-opacity="1" /><path clip-path="url(#clip500)" d="M26.4057 332.62 L26.4057 321.972 L91.2202 321.972 L91.2202 332.62 L26.4057 332.62 M1.17434 332.62 L1.17434 321.972 L14.6581 321.972 L14.6581 332.62 L1.17434 332.62 Z" fill="#000000" fill-rule="nonzero" fill-opacity="1" /><path clip-path="url(#clip500)" d="M8.00301 289.16 L26.4057 289.16 L26.4057 267.227 L34.6811 267.227 L34.6811 289.16 L69.8661 289.16 Q77.7943 289.16 80.0512 287.018 Q82.3082 284.819 82.3082 278.164 L82.3082 267.227 L91.2202 267.227 L91.2202 278.164 Q91.2202 290.491 86.6484 295.178 Q82.0188 299.866 69.8661 299.866 L34.6811 299.866 L34.6811 307.678 L26.4057 307.678 L26.4057 299.866 L8.00301 299.866 L8.00301 289.16 Z" fill="#000000" fill-rule="nonzero" fill-opacity="1" /><path clip-path="url(#clip500)" d="M97.2386 226.255 Q108.813 230.769 112.343 235.051 Q115.873 239.334 115.873 246.509 L115.873 255.016 L106.961 255.016 L106.961 248.766 Q106.961 244.368 104.877 241.938 Q102.794 239.507 95.0396 236.556 L90.1785 234.646 L26.4057 260.861 L26.4057 249.577 L77.0999 229.322 L26.4057 209.068 L26.4057 197.783 L97.2386 226.255 Z" fill="#000000" fill-rule="nonzero" fill-opacity="1" /><polyline clip-path="url(#clip502)" style="stroke:#009af9; stroke-linecap:round; stroke-linejoin:round; stroke-width:12; stroke-opacity:1; fill:none" points="383.645,811.099 1020.9,83.6181 1658.15,568.605 2295.4,1296.09 "/>
<circle clip-path="url(#clip502)" cx="383.645" cy="811.099" r="14.4" fill="#009af9" fill-rule="evenodd" fill-opacity="1" stroke="#000000" stroke-opacity="1" stroke-width="3.2"/>
<circle clip-path="url(#clip502)" cx="1020.9" cy="83.6181" r="14.4" fill="#009af9" fill-rule="evenodd" fill-opacity="1" stroke="#000000" stroke-opacity="1" stroke-width="3.2"/>
<circle clip-path="url(#clip502)" cx="1658.15" cy="568.605" r="14.4" fill="#009af9" fill-rule="evenodd" fill-opacity="1" stroke="#000000" stroke-opacity="1" stroke-width="3.2"/>
<circle clip-path="url(#clip502)" cx="2295.4" cy="1296.09" r="14.4" fill="#009af9" fill-rule="evenodd" fill-opacity="1" stroke="#000000" stroke-opacity="1" stroke-width="3.2"/>
<path clip-path="url(#clip500)" d="M1951.49 349.285 L2285.21 349.285 L2285.21 90.0846 L1951.49 90.0846  Z" fill="#ffffff" fill-rule="evenodd" fill-opacity="1"/>
<polyline clip-path="url(#clip500)" style="stroke:#000000; stroke-linecap:round; stroke-linejoin:round; stroke-width:4; stroke-opacity:1; fill:none" points="1951.49,349.285 2285.21,349.285 2285.21,90.0846 1951.49,90.0846 1951.49,349.285 "/>
<polyline clip-path="url(#clip500)" style="stroke:#009af9; stroke-linecap:round; stroke-linejoin:round; stroke-width:30; stroke-opacity:1; fill:none" points="1974,219.685 2109.1,219.685 "/>
<circle clip-path="url(#clip500)" cx="2041.55" cy="219.685" r="7.50542" fill="#009af9" fill-rule="evenodd" fill-opacity="1" stroke="#000000" stroke-opacity="1" stroke-width="6.67149"/>
<path clip-path="url(#clip500)" d="M2166.22 268.903 Q2161.71 280.477 2157.43 284.007 Q2153.14 287.537 2145.97 287.537 L2137.46 287.537 L2137.46 278.625 L2143.71 278.625 Q2148.11 278.625 2150.54 276.542 Q2152.97 274.459 2155.92 266.704 L2157.83 261.843 L2131.62 198.07 L2142.9 198.07 L2163.15 248.764 L2183.41 198.07 L2194.69 198.07 L2166.22 268.903 Z" fill="#000000" fill-rule="nonzero" fill-opacity="1" /><path clip-path="url(#clip500)" d="M2212.92 253.047 L2232.02 253.047 L2232.02 187.133 L2211.24 191.299 L2211.24 180.651 L2231.9 176.485 L2243.59 176.485 L2243.59 253.047 L2262.69 253.047 L2262.69 262.885 L2212.92 262.885 L2212.92 253.047 Z" fill="#000000" fill-rule="nonzero" fill-opacity="1" /></svg>
