<?xml version="1.0" encoding="utf-8"?>
<svg xmlns="http://www.w3.org/2000/svg" xmlns:xlink="http://www.w3.org/1999/xlink" width="600" height="400" viewBox="0 0 2400 1600">
<defs>
  <clipPath id="clip410">
    <rect x="0" y="0" width="2400" height="1600"/>
  </clipPath>
</defs>
<path clip-path="url(#clip410)" d="M0 1600 L2400 1600 L2400 0 L0 0  Z" fill="#ffffff" fill-rule="evenodd" fill-opacity="1"/>
<defs>
  <clipPath id="clip411">
    <rect x="480" y="0" width="1681" height="1600"/>
  </clipPath>
</defs>
<path clip-path="url(#clip410)" d="M326.292 1332.46 L2352.76 1332.46 L2352.76 47.2441 L326.292 47.2441  Z" fill="#ffffff" fill-rule="evenodd" fill-opacity="1"/>
<defs>
  <clipPath id="clip412">
    <rect x="326" y="47" width="2027" height="1286"/>
  </clipPath>
</defs>
<polyline clip-path="url(#clip412)" style="stroke:#000000; stroke-linecap:round; stroke-linejoin:round; stroke-width:2; stroke-opacity:0.1; fill:none" points="383.645,1332.46 383.645,47.2441 "/>
<polyline clip-path="url(#clip412)" style="stroke:#000000; stroke-linecap:round; stroke-linejoin:round; stroke-width:2; stroke-opacity:0.1; fill:none" points="1020.9,1332.46 1020.9,47.2441 "/>
<polyline clip-path="url(#clip412)" style="stroke:#000000; stroke-linecap:round; stroke-linejoin:round; stroke-width:2; stroke-opacity:0.1; fill:none" points="1658.15,1332.46 1658.15,47.2441 "/>
<polyline clip-path="url(#clip412)" style="stroke:#000000; stroke-linecap:round; stroke-linejoin:round; stroke-width:2; stroke-opacity:0.1; fill:none" points="2295.4,1332.46 2295.4,47.2441 "/>
<polyline clip-path="url(#clip412)" style="stroke:#000000; stroke-linecap:round; stroke-linejoin:round; stroke-width:2; stroke-opacity:0.1; fill:none" points="326.292,1296.09 2352.76,1296.09 "/>
<polyline clip-path="url(#clip412)" style="stroke:#000000; stroke-linecap:round; stroke-linejoin:round; stroke-width:2; stroke-opacity:0.1; fill:none" points="326.292,1094.01 2352.76,1094.01 "/>
<polyline clip-path="url(#clip412)" style="stroke:#000000; stroke-linecap:round; stroke-linejoin:round; stroke-width:2; stroke-opacity:0.1; fill:none" points="326.292,891.93 2352.76,891.93 "/>
<polyline clip-path="url(#clip412)" style="stroke:#000000; stroke-linecap:round; stroke-linejoin:round; stroke-width:2; stroke-opacity:0.1; fill:none" points="326.292,689.852 2352.76,689.852 "/>
<polyline clip-path="url(#clip412)" style="stroke:#000000; stroke-linecap:round; stroke-linejoin:round; stroke-width:2; stroke-opacity:0.1; fill:none" points="326.292,487.774 2352.76,487.774 "/>
<polyline clip-path="url(#clip412)" style="stroke:#000000; stroke-linecap:round; stroke-linejoin:round; stroke-width:2; stroke-opacity:0.1; fill:none" points="326.292,285.696 2352.76,285.696 "/>
<polyline clip-path="url(#clip412)" style="stroke:#000000; stroke-linecap:round; stroke-linejoin:round; stroke-width:2; stroke-opacity:0.1; fill:none" points="326.292,83.6181 2352.76,83.6181 "/>
<polyline clip-path="url(#clip410)" style="stroke:#000000; stroke-linecap:round; stroke-linejoin:round; stroke-width:4; stroke-opacity:1; fill:none" points="326.292,1332.46 2352.76,1332.46 "/>
<polyline clip-path="url(#clip410)" style="stroke:#000000; stroke-linecap:round; stroke-linejoin:round; stroke-width:4; stroke-opacity:1; fill:none" points="383.645,1332.46 383.645,1313.56 "/>
<polyline clip-path="url(#clip410)" style="stroke:#000000; stroke-linecap:round; stroke-linejoin:round; stroke-width:4; stroke-opacity:1; fill:none" points="1020.9,1332.46 1020.9,1313.56 "/>
<polyline clip-path="url(#clip410)" style="stroke:#000000; stroke-linecap:round; stroke-linejoin:round; stroke-width:4; stroke-opacity:1; fill:none" points="1658.15,1332.46 1658.15,1313.56 "/>
<polyline clip-path="url(#clip410)" style="stroke:#000000; stroke-linecap:round; stroke-linejoin:round; stroke-width:4; stroke-opacity:1; fill:none" points="2295.4,1332.46 2295.4,1313.56 "/>
<path clip-path="url(#clip410)" d="M359.6 1449.82 L378.697 1449.82 L378.697 1383.91 L357.922 1388.07 L357.922 1377.43 L378.581 1373.26 L390.271 1373.26 L390.271 1449.82 L409.368 1449.82 L409.368 1459.66 L359.6 1459.66 L359.6 1449.82 Z" fill="#000000" fill-rule="nonzero" fill-opacity="1" /><path clip-path="url(#clip410)" d="M1007.53 1449.82 L1048.33 1449.82 L1048.33 1459.66 L993.467 1459.66 L993.467 1449.82 Q1000.12 1442.94 1011.58 1431.36 Q1023.1 1419.73 1026.05 1416.37 Q1031.66 1410.07 1033.86 1405.72 Q1036.12 1401.33 1036.12 1397.1 Q1036.12 1390.22 1031.26 1385.88 Q1026.45 1381.54 1018.7 1381.54 Q1013.2 1381.54 1007.07 1383.44 Q1000.99 1385.35 994.046 1389.23 L994.046 1377.43 Q1001.11 1374.59 1007.24 1373.14 Q1013.37 1371.7 1018.47 1371.7 Q1031.89 1371.7 1039.88 1378.41 Q1047.87 1385.12 1047.87 1396.35 Q1047.87 1401.67 1045.84 1406.48 Q1043.87 1411.22 1038.61 1417.7 Q1037.16 1419.38 1029.4 1427.43 Q1021.65 1435.41 1007.53 1449.82 Z" fill="#000000" fill-rule="nonzero" fill-opacity="1" /><path clip-path="url(#clip410)" d="M1668.77 1413.07 Q1677.16 1414.87 1681.85 1420.54 Q1686.59 1426.21 1686.59 1434.54 Q1686.59 1447.33 1677.8 1454.34 Q1669 1461.34 1652.8 1461.34 Q1647.36 1461.34 1641.57 1460.24 Q1635.84 1459.2 1629.71 1457.06 L1629.71 1445.77 Q1634.57 1448.61 1640.36 1450.05 Q1646.14 1451.5 1652.45 1451.5 Q1663.45 1451.5 1669.17 1447.16 Q1674.96 1442.82 1674.96 1434.54 Q1674.96 1426.91 1669.58 1422.62 Q1664.26 1418.28 1654.71 1418.28 L1644.64 1418.28 L1644.64 1408.68 L1655.17 1408.68 Q1663.79 1408.68 1668.36 1405.26 Q1672.94 1401.79 1672.94 1395.31 Q1672.94 1388.65 1668.19 1385.12 Q1663.5 1381.54 1654.71 1381.54 Q1649.9 1381.54 1644.41 1382.58 Q1638.91 1383.62 1632.31 1385.82 L1632.31 1375.4 Q1638.97 1373.55 1644.75 1372.62 Q1650.6 1371.7 1655.75 1371.7 Q1669.06 1371.7 1676.81 1377.77 Q1684.57 1383.79 1684.57 1394.09 Q1684.57 1401.27 1680.46 1406.25 Q1676.35 1411.16 1668.77 1413.07 Z" fill="#000000" fill-rule="nonzero" fill-opacity="1" /><path clip-path="url(#clip410)" d="M2302.93 1383.44 L2273.41 1429.57 L2302.93 1429.57 L2302.93 1383.44 M2299.86 1373.26 L2314.56 1373.26 L2314.56 1429.57 L2326.88 1429.57 L2326.88 1439.29 L2314.56 1439.29 L2314.56 1459.66 L2302.93 1459.66 L2302.93 1439.29 L2263.92 1439.29 L2263.92 1428 L2299.86 1373.26 Z" fill="#000000" fill-rule="nonzero" fill-opacity="1" /><path clip-path="url(#clip410)" d="M1337.82 1518.52 L1337.82 1536.93 L1359.75 1536.93 L1359.75 1545.2 L1337.82 1545.2 L1337.82 1580.39 Q1337.82 1588.31 1339.96 1590.57 Q1342.16 1592.83 1348.81 1592.83 L1359.75 1592.83 L1359.75 1601.74 L1348.81 1601.74 Q1336.49 1601.74 1331.8 1597.17 Q1327.11 1592.54 1327.11 1580.39 L1327.11 1545.2 L1319.3 1545.2 L1319.3 1536.93 L1327.11 1536.93 L1327.11 1518.52 L1337.82 1518.52 Z" fill="#000000" fill-rule="nonzero" fill-opacity="1" /><polyline clip-path="url(#clip410)" style="stroke:#000000; stroke-linecap:round; stroke-linejoin:round; stroke-width:4; stroke-opacity:1; fill:none" points="326.292,1332.46 326.292,47.2441 "/>
<polyline clip-path="url(#clip410)" style="stroke:#000000; stroke-linecap:round; stroke-linejoin:round; stroke-width:4; stroke-opacity:1; fill:none" points="326.292,1296.09 345.19,1296.09 "/>
<polyline clip-path="url(#clip410)" style="stroke:#000000; stroke-linecap:round; stroke-linejoin:round; stroke-width:4; stroke-opacity:1; fill:none" points="326.292,1094.01 345.19,1094.01 "/>
<polyline clip-path="url(#clip410)" style="stroke:#000000; stroke-linecap:round; stroke-linejoin:round; stroke-width:4; stroke-opacity:1; fill:none" points="326.292,891.93 345.19,891.93 "/>
<polyline clip-path="url(#clip410)" style="stroke:#000000; stroke-linecap:round; stroke-linejoin:round; stroke-width:4; stroke-opacity:1; fill:none" points="326.292,689.852 345.19,689.852 "/>
<polyline clip-path="url(#clip410)" style="stroke:#000000; stroke-linecap:round; stroke-linejoin:round; stroke-width:4; stroke-opacity:1; fill:none" points="326.292,487.774 345.19,487.774 "/>
<polyline clip-path="url(#clip410)" style="stroke:#000000; stroke-linecap:round; stroke-linejoin:round; stroke-width:4; stroke-opacity:1; fill:none" points="326.292,285.696 345.19,285.696 "/>
<polyline clip-path="url(#clip410)" style="stroke:#000000; stroke-linecap:round; stroke-linejoin:round; stroke-width:4; stroke-opacity:1; fill:none" points="326.292,83.6181 345.19,83.6181 "/>
<path clip-path="url(#clip410)" d="M260.431 1260.58 Q251.404 1260.58 246.832 1269.49 Q242.318 1278.35 242.318 1296.17 Q242.318 1313.94 246.832 1322.85 Q251.404 1331.7 260.431 1331.7 Q269.517 1331.7 274.031 1322.85 Q278.602 1313.94 278.602 1296.17 Q278.602 1278.35 274.031 1269.49 Q269.517 1260.58 260.431 1260.58 M260.431 1251.32 Q274.957 1251.32 282.595 1262.84 Q290.292 1274.3 290.292 1296.17 Q290.292 1317.99 282.595 1329.51 Q274.957 1340.96 260.431 1340.96 Q245.906 1340.96 238.209 1329.51 Q230.57 1317.99 230.57 1296.17 Q230.57 1274.3 238.209 1262.84 Q245.906 1251.32 260.431 1251.32 Z" fill="#000000" fill-rule="nonzero" fill-opacity="1" /><path clip-path="url(#clip410)" d="M162.052 1127.37 L181.149 1127.37 L181.149 1061.46 L160.374 1065.62 L160.374 1054.97 L181.034 1050.81 L192.723 1050.81 L192.723 1127.37 L211.82 1127.37 L211.82 1137.21 L162.052 1137.21 L162.052 1127.37 Z" fill="#000000" fill-rule="nonzero" fill-opacity="1" /><path clip-path="url(#clip410)" d="M260.431 1058.5 Q251.404 1058.5 246.832 1067.42 Q242.318 1076.27 242.318 1094.09 Q242.318 1111.86 246.832 1120.77 Q251.404 1129.63 260.431 1129.63 Q269.517 1129.63 274.031 1120.77 Q278.602 1111.86 278.602 1094.09 Q278.602 1076.27 274.031 1067.42 Q269.517 1058.5 260.431 1058.5 M260.431 1049.25 Q274.957 1049.25 282.595 1060.76 Q290.292 1072.22 290.292 1094.09 Q290.292 1115.91 282.595 1127.43 Q274.957 1138.89 260.431 1138.89 Q245.906 1138.89 238.209 1127.43 Q230.57 1115.91 230.57 1094.09 Q230.57 1072.22 238.209 1060.76 Q245.906 1049.25 260.431 1049.25 Z" fill="#000000" fill-rule="nonzero" fill-opacity="1" /><path clip-path="url(#clip410)" d="M170.096 925.292 L210.894 925.292 L210.894 935.13 L156.034 935.13 L156.034 925.292 Q162.689 918.405 174.147 906.831 Q185.663 895.2 188.615 891.843 Q194.228 885.535 196.427 881.195 Q198.684 876.797 198.684 872.572 Q198.684 865.686 193.823 861.346 Q189.02 857.005 181.265 857.005 Q175.767 857.005 169.633 858.915 Q163.557 860.825 156.612 864.702 L156.612 852.897 Q163.673 850.061 169.807 848.614 Q175.941 847.167 181.034 847.167 Q194.459 847.167 202.445 853.88 Q210.432 860.593 210.432 871.82 Q210.432 877.144 208.406 881.947 Q206.438 886.693 201.172 893.174 Q199.726 894.852 191.971 902.896 Q184.216 910.882 170.096 925.292 Z" fill="#000000" fill-rule="nonzero" fill-opacity="1" /><path clip-path="url(#clip410)" d="M260.431 856.427 Q251.404 856.427 246.832 865.339 Q242.318 874.193 242.318 892.017 Q242.318 909.783 246.832 918.695 Q251.404 927.549 260.431 927.549 Q269.517 927.549 274.031 918.695 Q278.602 909.783 278.602 892.017 Q278.602 874.193 274.031 865.339 Q269.517 856.427 260.431 856.427 M260.431 847.167 Q274.957 847.167 282.595 858.684 Q290.292 870.142 290.292 892.017 Q290.292 913.834 282.595 925.35 Q274.957 936.808 260.431 936.808 Q245.906 936.808 238.209 925.35 Q230.57 913.834 230.57 892.017 Q230.57 870.142 238.209 858.684 Q245.906 847.167 260.431 847.167 Z" fill="#000000" fill-rule="nonzero" fill-opacity="1" /><path clip-path="url(#clip410)" d="M195.443 686.467 Q203.834 688.261 208.522 693.932 Q213.267 699.603 213.267 707.936 Q213.267 720.726 204.471 727.728 Q195.675 734.73 179.471 734.73 Q174.031 734.73 168.244 733.631 Q162.515 732.589 156.381 730.448 L156.381 719.163 Q161.242 721.999 167.029 723.446 Q172.816 724.892 179.124 724.892 Q190.119 724.892 195.848 720.552 Q201.635 716.212 201.635 707.936 Q201.635 700.298 196.253 696.015 Q190.929 691.675 181.381 691.675 L171.311 691.675 L171.311 682.068 L181.844 682.068 Q190.466 682.068 195.038 678.654 Q199.61 675.182 199.61 668.7 Q199.61 662.045 194.864 658.515 Q190.177 654.927 181.381 654.927 Q176.578 654.927 171.08 655.969 Q165.582 657.011 158.985 659.21 L158.985 648.793 Q165.64 646.941 171.427 646.015 Q177.272 645.089 182.422 645.089 Q195.733 645.089 203.487 651.166 Q211.242 657.184 211.242 667.485 Q211.242 674.661 207.133 679.638 Q203.024 684.557 195.443 686.467 Z" fill="#000000" fill-rule="nonzero" fill-opacity="1" /><path clip-path="url(#clip410)" d="M260.431 654.349 Q251.404 654.349 246.832 663.261 Q242.318 672.115 242.318 689.939 Q242.318 707.705 246.832 716.617 Q251.404 725.471 260.431 725.471 Q269.517 725.471 274.031 716.617 Q278.602 707.705 278.602 689.939 Q278.602 672.115 274.031 663.261 Q269.517 654.349 260.431 654.349 M260.431 645.089 Q274.957 645.089 282.595 656.606 Q290.292 668.064 290.292 689.939 Q290.292 711.756 282.595 723.272 Q274.957 734.73 260.431 734.73 Q245.906 734.73 238.209 723.272 Q230.57 711.756 230.57 689.939 Q230.57 668.064 238.209 656.606 Q245.906 645.089 260.431 645.089 Z" fill="#000000" fill-rule="nonzero" fill-opacity="1" /><path clip-path="url(#clip410)" d="M192.145 454.759 L162.631 500.882 L192.145 500.882 L192.145 454.759 M189.077 444.574 L203.776 444.574 L203.776 500.882 L216.103 500.882 L216.103 510.604 L203.776 510.604 L203.776 530.974 L192.145 530.974 L192.145 510.604 L153.14 510.604 L153.14 499.319 L189.077 444.574 Z" fill="#000000" fill-rule="nonzero" fill-opacity="1" /><path clip-path="url(#clip410)" d="M260.431 452.271 Q251.404 452.271 246.832 461.183 Q242.318 470.037 242.318 487.861 Q242.318 505.627 246.832 514.539 Q251.404 523.393 260.431 523.393 Q269.517 523.393 274.031 514.539 Q278.602 505.627 278.602 487.861 Q278.602 470.037 274.031 461.183 Q269.517 452.271 260.431 452.271 M260.431 443.012 Q274.957 443.012 282.595 454.528 Q290.292 465.986 290.292 487.861 Q290.292 509.678 282.595 521.194 Q274.957 532.652 260.431 532.652 Q245.906 532.652 238.209 521.194 Q230.57 509.678 230.57 487.861 Q230.57 465.986 238.209 454.528 Q245.906 443.012 260.431 443.012 Z" fill="#000000" fill-rule="nonzero" fill-opacity="1" /><path clip-path="url(#clip410)" d="M160.142 242.496 L206.033 242.496 L206.033 252.334 L170.848 252.334 L170.848 273.514 Q173.395 272.646 175.941 272.241 Q178.487 271.778 181.034 271.778 Q195.501 271.778 203.95 279.707 Q212.399 287.635 212.399 301.176 Q212.399 315.123 203.719 322.878 Q195.038 330.574 179.24 330.574 Q173.8 330.574 168.129 329.648 Q162.515 328.722 156.497 326.871 L156.497 315.123 Q161.705 317.959 167.26 319.348 Q172.816 320.736 179.008 320.736 Q189.02 320.736 194.864 315.47 Q200.709 310.204 200.709 301.176 Q200.709 292.149 194.864 286.882 Q189.02 281.616 179.008 281.616 Q174.321 281.616 169.633 282.658 Q165.004 283.7 160.142 285.899 L160.142 242.496 Z" fill="#000000" fill-rule="nonzero" fill-opacity="1" /><path clip-path="url(#clip410)" d="M260.431 250.193 Q251.404 250.193 246.832 259.105 Q242.318 267.959 242.318 285.783 Q242.318 303.549 246.832 312.461 Q251.404 321.315 260.431 321.315 Q269.517 321.315 274.031 312.461 Q278.602 303.549 278.602 285.783 Q278.602 267.959 274.031 259.105 Q269.517 250.193 260.431 250.193 M260.431 240.934 Q274.957 240.934 282.595 252.45 Q290.292 263.908 290.292 285.783 Q290.292 307.6 282.595 319.116 Q274.957 330.574 260.431 330.574 Q245.906 330.574 238.209 319.116 Q230.57 307.6 230.57 285.783 Q230.57 263.908 238.209 252.45 Q245.906 240.934 260.431 240.934 Z" fill="#000000" fill-rule="nonzero" fill-opacity="1" /><path clip-path="url(#clip410)" d="M186.473 78.9596 Q178.603 78.9596 173.973 84.3415 Q169.402 89.7234 169.402 99.0984 Q169.402 108.415 173.973 113.855 Q178.603 119.237 186.473 119.237 Q194.344 119.237 198.915 113.855 Q203.545 108.415 203.545 99.0984 Q203.545 89.7234 198.915 84.3415 Q194.344 78.9596 186.473 78.9596 M209.679 42.3278 L209.679 52.9759 Q205.281 50.8926 200.767 49.7931 Q196.311 48.6935 191.913 48.6935 Q180.339 48.6935 174.205 56.506 Q168.129 64.3185 167.26 80.117 Q170.675 75.0823 175.825 72.4203 Q180.976 69.7004 187.168 69.7004 Q200.189 69.7004 207.712 77.6286 Q215.293 85.4989 215.293 99.0984 Q215.293 112.408 207.422 120.452 Q199.552 128.496 186.473 128.496 Q171.485 128.496 163.557 117.038 Q155.629 105.522 155.629 83.7049 Q155.629 63.2189 165.351 51.0662 Q175.073 38.8556 191.45 38.8556 Q195.848 38.8556 200.304 39.7237 Q204.818 40.5917 209.679 42.3278 Z" fill="#000000" fill-rule="nonzero" fill-opacity="1" /><path clip-path="url(#clip410)" d="M260.431 48.1148 Q251.404 48.1148 246.832 57.0268 Q242.318 65.881 242.318 83.7049 Q242.318 101.471 246.832 110.383 Q251.404 119.237 260.431 119.237 Q269.517 119.237 274.031 110.383 Q278.602 101.471 278.602 83.7049 Q278.602 65.881 274.031 57.0268 Q269.517 48.1148 260.431 48.1148 M260.431 38.8556 Q274.957 38.8556 282.595 50.3718 Q290.292 61.83 290.292 83.7049 Q290.292 105.522 282.595 117.038 Q274.957 128.496 260.431 128.496 Q245.906 128.496 238.209 117.038 Q230.57 105.522 230.57 83.7049 Q230.57 61.83 238.209 50.3718 Q245.906 38.8556 260.431 38.8556 Z" fill="#000000" fill-rule="nonzero" fill-opacity="1" /><path clip-path="url(#clip410)" d="M14.4266 1260.77 L46.8917 1260.77 L46.8917 1246.07 Q46.8917 1237.91 42.6672 1233.45 Q38.4427 1229 30.6302 1229 Q22.8756 1229 18.6511 1233.45 Q14.4266 1237.91 14.4266 1246.07 L14.4266 1260.77 M4.82016 1272.46 L4.82016 1246.07 Q4.82016 1231.54 11.4173 1224.14 Q17.9567 1216.67 30.6302 1216.67 Q43.4195 1216.67 49.9588 1224.14 Q56.4981 1231.54 56.4981 1246.07 L56.4981 1260.77 L91.2202 1260.77 L91.2202 1272.46 L4.82016 1272.46 Z" fill="#000000" fill-rule="nonzero" fill-opacity="1" /><path clip-path="url(#clip410)" d="M36.3593 1165.98 Q35.3177 1167.77 34.8547 1169.91 Q34.3339 1172 34.3339 1174.54 Q34.3339 1183.57 40.2366 1188.43 Q46.0815 1193.23 57.0768 1193.23 L91.2202 1193.23 L91.2202 1203.94 L26.4057 1203.94 L26.4057 1193.23 L36.4751 1193.23 Q30.5723 1189.88 27.7367 1184.5 Q24.8432 1179.11 24.8432 1171.42 Q24.8432 1170.32 25.0168 1168.99 Q25.1325 1167.66 25.4219 1166.04 L36.3593 1165.98 Z" fill="#000000" fill-rule="nonzero" fill-opacity="1" /><path clip-path="url(#clip410)" d="M33.8709 1132.3 Q33.8709 1140.86 40.5839 1145.84 Q47.2389 1150.82 58.8708 1150.82 Q70.5027 1150.82 77.2156 1145.9 Q83.8707 1140.92 83.8707 1132.3 Q83.8707 1123.79 77.1577 1118.81 Q70.4448 1113.84 58.8708 1113.84 Q47.3547 1113.84 40.6417 1118.81 Q33.8709 1123.79 33.8709 1132.3 M24.8432 1132.3 Q24.8432 1118.41 33.8709 1110.48 Q42.8987 1102.55 58.8708 1102.55 Q74.7851 1102.55 83.8707 1110.48 Q92.8984 1118.41 92.8984 1132.3 Q92.8984 1146.24 83.8707 1154.17 Q74.7851 1162.04 58.8708 1162.04 Q42.8987 1162.04 33.8709 1154.17 Q24.8432 1146.24 24.8432 1132.3 Z" fill="#000000" fill-rule="nonzero" fill-opacity="1" /><path clip-path="url(#clip410)" d="M36.2436 1042.25 L1.17434 1042.25 L1.17434 1031.6 L91.2202 1031.6 L91.2202 1042.25 L81.498 1042.25 Q87.285 1045.61 90.1206 1050.76 Q92.8984 1055.85 92.8984 1063.03 Q92.8984 1074.77 83.5234 1082.18 Q74.1485 1089.53 58.8708 1089.53 Q43.5931 1089.53 34.2181 1082.18 Q24.8432 1074.77 24.8432 1063.03 Q24.8432 1055.85 27.6788 1050.76 Q30.4566 1045.61 36.2436 1042.25 M58.8708 1078.54 Q70.6184 1078.54 77.3313 1073.73 Q83.9864 1068.87 83.9864 1060.42 Q83.9864 1051.97 77.3313 1047.11 Q70.6184 1042.25 58.8708 1042.25 Q47.1232 1042.25 40.4681 1047.11 Q33.7552 1051.97 33.7552 1060.42 Q33.7552 1068.87 40.4681 1073.73 Q47.1232 1078.54 58.8708 1078.54 Z" fill="#000000" fill-rule="nonzero" fill-opacity="1" /><path clip-path="url(#clip410)" d="M65.6416 1010.77 L26.4057 1010.77 L26.4057 1000.12 L65.2365 1000.12 Q74.4378 1000.12 79.0674 996.534 Q83.6392 992.946 83.6392 985.771 Q83.6392 977.148 78.1415 972.171 Q72.6439 967.136 63.1532 967.136 L26.4057 967.136 L26.4057 956.488 L91.2202 956.488 L91.2202 967.136 L81.2665 967.136 Q87.1693 971.014 90.0628 976.164 Q92.8984 981.257 92.8984 988.027 Q92.8984 999.196 85.954 1004.98 Q79.0096 1010.77 65.6416 1010.77 M24.8432 983.977 L24.8432 983.977 Z" fill="#000000" fill-rule="nonzero" fill-opacity="1" /><path clip-path="url(#clip410)" d="M28.8941 887.912 L38.8478 887.912 Q36.3593 892.426 35.1441 896.998 Q33.8709 901.512 33.8709 906.141 Q33.8709 916.5 40.4681 922.229 Q47.0074 927.958 58.8708 927.958 Q70.7342 927.958 77.3313 922.229 Q83.8707 916.5 83.8707 906.141 Q83.8707 901.512 82.6554 896.998 Q81.3822 892.426 78.8938 887.912 L88.7317 887.912 Q90.8151 892.368 91.8567 897.171 Q92.8984 901.917 92.8984 907.299 Q92.8984 921.94 83.697 930.562 Q74.4957 939.185 58.8708 939.185 Q43.0144 939.185 33.9288 930.505 Q24.8432 921.766 24.8432 906.604 Q24.8432 901.685 25.8849 896.998 Q26.8687 892.31 28.8941 887.912 Z" fill="#000000" fill-rule="nonzero" fill-opacity="1" /><path clip-path="url(#clip410)" d="M8.00301 858.861 L26.4057 858.861 L26.4057 836.929 L34.6811 836.929 L34.6811 858.861 L69.8661 858.861 Q77.7943 858.861 80.0512 856.72 Q82.3082 854.521 82.3082 847.866 L82.3082 836.929 L91.2202 836.929 L91.2202 847.866 Q91.2202 860.192 86.6484 864.88 Q82.0188 869.567 69.8661 869.567 L34.6811 869.567 L34.6811 877.38 L26.4057 877.38 L26.4057 869.567 L8.00301 869.567 L8.00301 858.861 Z" fill="#000000" fill-rule="nonzero" fill-opacity="1" /><path clip-path="url(#clip410)" d="M26.4057 822.924 L26.4057 812.276 L91.2202 812.276 L91.2202 822.924 L26.4057 822.924 M1.17434 822.924 L1.17434 812.276 L14.6581 812.276 L14.6581 822.924 L1.17434 822.924 Z" fill="#000000" fill-rule="nonzero" fill-opacity="1" /><path clip-path="url(#clip410)" d="M33.8709 764.881 Q33.8709 773.445 40.5839 778.422 Q47.2389 783.399 58.8708 783.399 Q70.5027 783.399 77.2156 778.48 Q83.8707 773.503 83.8707 764.881 Q83.8707 756.374 77.1577 751.397 Q70.4448 746.42 58.8708 746.42 Q47.3547 746.42 40.6417 751.397 Q33.8709 756.374 33.8709 764.881 M24.8432 764.881 Q24.8432 750.992 33.8709 743.063 Q42.8987 735.135 58.8708 735.135 Q74.7851 735.135 83.8707 743.063 Q92.8984 750.992 92.8984 764.881 Q92.8984 778.827 83.8707 786.755 Q74.7851 794.626 58.8708 794.626 Q42.8987 794.626 33.8709 786.755 Q24.8432 778.827 24.8432 764.881 Z" fill="#000000" fill-rule="nonzero" fill-opacity="1" /><path clip-path="url(#clip410)" d="M52.1 663.608 L91.2202 663.608 L91.2202 674.256 L52.4472 674.256 Q43.2459 674.256 38.6741 677.844 Q34.1024 681.432 34.1024 688.608 Q34.1024 697.23 39.6001 702.207 Q45.0977 707.184 54.5884 707.184 L91.2202 707.184 L91.2202 717.89 L26.4057 717.89 L26.4057 707.184 L36.4751 707.184 Q30.6302 703.365 27.7367 698.214 Q24.8432 693.006 24.8432 686.235 Q24.8432 675.066 31.7876 669.337 Q38.6741 663.608 52.1 663.608 Z" fill="#000000" fill-rule="nonzero" fill-opacity="1" /><path clip-path="url(#clip410)" d="M12.7484 569.164 Q12.7484 581.895 22.239 589.418 Q31.7297 596.884 48.107 596.884 Q64.4263 596.884 73.917 589.418 Q83.4077 581.895 83.4077 569.164 Q83.4077 556.433 73.917 549.025 Q64.4263 541.56 48.107 541.56 Q31.7297 541.56 22.239 549.025 Q12.7484 556.433 12.7484 569.164 M89.6577 552.787 L106.498 537.393 L106.498 551.514 L92.6669 564.303 Q92.7826 566.213 92.8405 567.254 Q92.8984 568.238 92.8984 569.164 Q92.8984 587.393 80.7457 598.33 Q68.5351 609.21 48.107 609.21 Q27.621 609.21 15.4682 598.33 Q3.25767 587.393 3.25767 569.164 Q3.25767 550.993 15.4682 540.113 Q27.621 529.234 48.107 529.234 Q63.1532 529.234 73.8591 535.31 Q84.5651 541.328 89.6577 552.787 Z" fill="#000000" fill-rule="nonzero" fill-opacity="1" /><path clip-path="url(#clip410)" d="M65.6416 512.509 L26.4057 512.509 L26.4057 501.861 L65.2365 501.861 Q74.4378 501.861 79.0674 498.273 Q83.6392 494.685 83.6392 487.509 Q83.6392 478.887 78.1415 473.91 Q72.6439 468.875 63.1532 468.875 L26.4057 468.875 L26.4057 458.227 L91.2202 458.227 L91.2202 468.875 L81.2665 468.875 Q87.1693 472.752 90.0628 477.903 Q92.8984 482.995 92.8984 489.766 Q92.8984 500.935 85.954 506.722 Q79.0096 512.509 65.6416 512.509 M24.8432 485.715 L24.8432 485.715 Z" fill="#000000" fill-rule="nonzero" fill-opacity="1" /><path clip-path="url(#clip410)" d="M58.6393 406.838 Q58.6393 419.743 61.5907 424.72 Q64.5421 429.697 71.6601 429.697 Q77.3313 429.697 80.6878 425.993 Q83.9864 422.232 83.9864 415.808 Q83.9864 406.954 77.7364 401.63 Q71.4286 396.248 61.012 396.248 L58.6393 396.248 L58.6393 406.838 M54.2412 385.6 L91.2202 385.6 L91.2202 396.248 L81.3822 396.248 Q87.285 399.894 90.1206 405.334 Q92.8984 410.774 92.8984 418.644 Q92.8984 428.598 87.3429 434.5 Q81.7295 440.345 72.3545 440.345 Q61.4171 440.345 55.8616 433.054 Q50.306 425.704 50.306 411.179 L50.306 396.248 L49.2644 396.248 Q41.9149 396.248 37.9218 401.109 Q33.8709 405.913 33.8709 414.651 Q33.8709 420.206 35.2019 425.473 Q36.533 430.739 39.195 435.6 L29.3571 435.6 Q27.1001 429.755 26.0006 424.257 Q24.8432 418.76 24.8432 413.551 Q24.8432 399.489 32.1348 392.545 Q39.4265 385.6 54.2412 385.6 Z" fill="#000000" fill-rule="nonzero" fill-opacity="1" /><path clip-path="url(#clip410)" d="M52.1 309.79 L91.2202 309.79 L91.2202 320.438 L52.4472 320.438 Q43.2459 320.438 38.6741 324.026 Q34.1024 327.614 34.1024 334.79 Q34.1024 343.413 39.6001 348.39 Q45.0977 353.367 54.5884 353.367 L91.2202 353.367 L91.2202 364.072 L26.4057 364.072 L26.4057 353.367 L36.4751 353.367 Q30.6302 349.547 27.7367 344.397 Q24.8432 339.188 24.8432 332.418 Q24.8432 321.249 31.7876 315.519 Q38.6741 309.79 52.1 309.79 Z" fill="#000000" fill-rule="nonzero" fill-opacity="1" /><path clip-path="url(#clip410)" d="M8.00301 278.02 L26.4057 278.02 L26.4057 256.087 L34.6811 256.087 L34.6811 278.02 L69.8661 278.02 Q77.7943 278.02 80.0512 275.878 Q82.3082 273.679 82.3082 267.024 L82.3082 256.087 L91.2202 256.087 L91.2202 267.024 Q91.2202 279.351 86.6484 284.038 Q82.0188 288.726 69.8661 288.726 L34.6811 288.726 L34.6811 296.538 L26.4057 296.538 L26.4057 288.726 L8.00301 288.726 L8.00301 278.02 Z" fill="#000000" fill-rule="nonzero" fill-opacity="1" /><path clip-path="url(#clip410)" d="M26.4057 242.082 L26.4057 231.434 L91.2202 231.434 L91.2202 242.082 L26.4057 242.082 M1.17434 242.082 L1.17434 231.434 L14.6581 231.434 L14.6581 242.082 L1.17434 242.082 Z" fill="#000000" fill-rule="nonzero" fill-opacity="1" /><path clip-path="url(#clip410)" d="M8.00301 198.622 L26.4057 198.622 L26.4057 176.689 L34.6811 176.689 L34.6811 198.622 L69.8661 198.622 Q77.7943 198.622 80.0512 196.481 Q82.3082 194.282 82.3082 187.627 L82.3082 176.689 L91.2202 176.689 L91.2202 187.627 Q91.2202 199.953 86.6484 204.64 Q82.0188 209.328 69.8661 209.328 L34.6811 209.328 L34.6811 217.14 L26.4057 217.14 L26.4057 209.328 L8.00301 209.328 L8.00301 198.622 Z" fill="#000000" fill-rule="nonzero" fill-opacity="1" /><path clip-path="url(#clip410)" d="M97.2386 135.717 Q108.813 140.231 112.343 144.513 Q115.873 148.796 115.873 155.972 L115.873 164.479 L106.961 164.479 L106.961 158.229 Q106.961 153.831 104.877 151.4 Q102.794 148.969 95.0396 146.018 L90.1785 144.108 L26.4057 170.324 L26.4057 159.039 L77.0999 138.784 L26.4057 118.53 L26.4057 107.245 L97.2386 135.717 Z" fill="#000000" fill-rule="nonzero" fill-opacity="1" /><polyline clip-path="url(#clip412)" style="stroke:#009af9; stroke-linecap:round; stroke-linejoin:round; stroke-width:12; stroke-opacity:1; fill:none" points="383.645,83.6181 1020.9,83.6181 1658.15,891.93 2295.4,1296.09 "/>
<circle clip-path="url(#clip412)" cx="383.645" cy="83.6181" r="14.4" fill="#009af9" fill-rule="evenodd" fill-opacity="1" stroke="#000000" stroke-opacity="1" stroke-width="3.2"/>
<circle clip-path="url(#clip412)" cx="1020.9" cy="83.6181" r="14.4" fill="#009af9" fill-rule="evenodd" fill-opacity="1" stroke="#000000" stroke-opacity="1" stroke-width="3.2"/>
<circle clip-path="url(#clip412)" cx="1658.15" cy="891.93" r="14.4" fill="#009af9" fill-rule="evenodd" fill-opacity="1" stroke="#000000" stroke-opacity="1" stroke-width="3.2"/>
<circle clip-path="url(#clip412)" cx="2295.4" cy="1296.09" r="14.4" fill="#009af9" fill-rule="evenodd" fill-opacity="1" stroke="#000000" stroke-opacity="1" stroke-width="3.2"/>
<path clip-path="url(#clip410)" d="M1951.49 349.285 L2285.21 349.285 L2285.21 90.0846 L1951.49 90.0846  Z" fill="#ffffff" fill-rule="evenodd" fill-opacity="1"/>
<polyline clip-path="url(#clip410)" style="stroke:#000000; stroke-linecap:round; stroke-linejoin:round; stroke-width:4; stroke-opacity:1; fill:none" points="1951.49,349.285 2285.21,349.285 2285.21,90.0846 1951.49,90.0846 1951.49,349.285 "/>
<polyline clip-path="url(#clip410)" style="stroke:#009af9; stroke-linecap:round; stroke-linejoin:round; stroke-width:30; stroke-opacity:1; fill:none" points="1974,219.685 2109.1,219.685 "/>
<circle clip-path="url(#clip410)" cx="2041.55" cy="219.685" r="7.50542" fill="#009af9" fill-rule="evenodd" fill-opacity="1" stroke="#000000" stroke-opacity="1" stroke-width="6.67149"/>
<path clip-path="url(#clip410)" d="M2166.22 268.903 Q2161.71 280.477 2157.43 284.007 Q2153.14 287.537 2145.97 287.537 L2137.46 287.537 L2137.46 278.625 L2143.71 278.625 Q2148.11 278.625 2150.54 276.542 Q2152.97 274.459 2155.92 266.704 L2157.83 261.843 L2131.62 198.07 L2142.9 198.07 L2163.15 248.764 L2183.41 198.07 L2194.69 198.07 L2166.22 268.903 Z" fill="#000000" fill-rule="nonzero" fill-opacity="1" /><path clip-path="url(#clip410)" d="M2212.92 253.047 L2232.02 253.047 L2232.02 187.133 L2211.24 191.299 L2211.24 180.651 L2231.9 176.485 L2243.59 176.485 L2243.59 253.047 L2262.69 253.047 L2262.69 262.885 L2212.92 262.885 L2212.92 253.047 Z" fill="#000000" fill-rule="nonzero" fill-opacity="1" /></svg>
