<?xml version="1.0" encoding="utf-8"?>
<svg xmlns="http://www.w3.org/2000/svg" xmlns:xlink="http://www.w3.org/1999/xlink" width="600" height="400" viewBox="0 0 2400 1600">
<defs>
  <clipPath id="clip440">
    <rect x="0" y="0" width="2400" height="1600"/>
  </clipPath>
</defs>
<path clip-path="url(#clip440)" d="M0 1600 L2400 1600 L2400 0 L0 0  Z" fill="#ffffff" fill-rule="evenodd" fill-opacity="1"/>
<defs>
  <clipPath id="clip441">
    <rect x="480" y="0" width="1681" height="1600"/>
  </clipPath>
</defs>
<path clip-path="url(#clip440)" d="M326.292 1332.46 L2352.76 1332.46 L2352.76 47.2441 L326.292 47.2441  Z" fill="#ffffff" fill-rule="evenodd" fill-opacity="1"/>
<defs>
  <clipPath id="clip442">
    <rect x="326" y="47" width="2027" height="1286"/>
  </clipPath>
</defs>
<polyline clip-path="url(#clip442)" style="stroke:#000000; stroke-linecap:round; stroke-linejoin:round; stroke-width:2; stroke-opacity:0.1; fill:none" points="383.645,1332.46 383.645,47.2441 "/>
<polyline clip-path="url(#clip442)" style="stroke:#000000; stroke-linecap:round; stroke-linejoin:round; stroke-width:2; stroke-opacity:0.1; fill:none" points="1020.9,1332.46 1020.9,47.2441 "/>
<polyline clip-path="url(#clip442)" style="stroke:#000000; stroke-linecap:round; stroke-linejoin:round; stroke-width:2; stroke-opacity:0.1; fill:none" points="1658.15,1332.46 1658.15,47.2441 "/>
<polyline clip-path="url(#clip442)" style="stroke:#000000; stroke-linecap:round; stroke-linejoin:round; stroke-width:2; stroke-opacity:0.1; fill:none" points="2295.4,1332.46 2295.4,47.2441 "/>
<polyline clip-path="url(#clip442)" style="stroke:#000000; stroke-linecap:round; stroke-linejoin:round; stroke-width:2; stroke-opacity:0.1; fill:none" points="326.292,1296.09 2352.76,1296.09 "/>
<polyline clip-path="url(#clip442)" style="stroke:#000000; stroke-linecap:round; stroke-linejoin:round; stroke-width:2; stroke-opacity:0.1; fill:none" points="326.292,1094.01 2352.76,1094.01 "/>
<polyline clip-path="url(#clip442)" style="stroke:#000000; stroke-linecap:round; stroke-linejoin:round; stroke-width:2; stroke-opacity:0.1; fill:none" points="326.292,891.93 2352.76,891.93 "/>
<polyline clip-path="url(#clip442)" style="stroke:#000000; stroke-linecap:round; stroke-linejoin:round; stroke-width:2; stroke-opacity:0.1; fill:none" points="326.292,689.852 2352.76,689.852 "/>
<polyline clip-path="url(#clip442)" style="stroke:#000000; stroke-linecap:round; stroke-linejoin:round; stroke-width:2; stroke-opacity:0.1; fill:none" points="326.292,487.774 2352.76,487.774 "/>
<polyline clip-path="url(#clip442)" style="stroke:#000000; stroke-linecap:round; stroke-linejoin:round; stroke-width:2; stroke-opacity:0.1; fill:none" points="326.292,285.696 2352.76,285.696 "/>
<polyline clip-path="url(#clip442)" style="stroke:#000000; stroke-linecap:round; stroke-linejoin:round; stroke-width:2; stroke-opacity:0.1; fill:none" points="326.292,83.6181 2352.76,83.6181 "/>
<polyline clip-path="url(#clip440)" style="stroke:#000000; stroke-linecap:round; stroke-linejoin:round; stroke-width:4; stroke-opacity:1; fill:none" points="326.292,1332.46 2352.76,1332.46 "/>
<polyline clip-path="url(#clip440)" style="stroke:#000000; stroke-linecap:round; stroke-linejoin:round; stroke-width:4; stroke-opacity:1; fill:none" points="383.645,1332.46 383.645,1313.56 "/>
<polyline clip-path="url(#clip440)" style="stroke:#000000; stroke-linecap:round; stroke-linejoin:round; stroke-width:4; stroke-opacity:1; fill:none" points="1020.9,1332.46 1020.9,1313.56 "/>
<polyline clip-path="url(#clip440)" style="stroke:#000000; stroke-linecap:round; stroke-linejoin:round; stroke-width:4; stroke-opacity:1; fill:none" points="1658.15,1332.46 1658.15,1313.56 "/>
<polyline clip-path="url(#clip440)" style="stroke:#000000; stroke-linecap:round; stroke-linejoin:round; stroke-width:4; stroke-opacity:1; fill:none" points="2295.4,1332.46 2295.4,1313.56 "/>
<path clip-path="url(#clip440)" d="M359.6 1449.82 L378.697 1449.82 L378.697 1383.91 L357.922 1388.07 L357.922 1377.43 L378.581 1373.26 L390.271 1373.26 L390.271 1449.82 L409.368 1449.82 L409.368 1459.66 L359.6 1459.66 L359.6 1449.82 Z" fill="#000000" fill-rule="nonzero" fill-opacity="1" /><path clip-path="url(#clip440)" d="M1007.53 1449.82 L1048.33 1449.82 L1048.33 1459.66 L993.467 1459.66 L993.467 1449.82 Q1000.12 1442.94 1011.58 1431.36 Q1023.1 1419.73 1026.05 1416.37 Q1031.66 1410.07 1033.86 1405.72 Q1036.12 1401.33 1036.12 1397.1 Q1036.12 1390.22 1031.26 1385.88 Q1026.45 1381.54 1018.7 1381.54 Q1013.2 1381.54 1007.07 1383.44 Q1000.99 1385.35 994.046 1389.23 L994.046 1377.43 Q1001.11 1374.59 1007.24 1373.14 Q1013.37 1371.7 1018.47 1371.7 Q1031.89 1371.7 1039.88 1378.41 Q1047.87 1385.12 1047.87 1396.35 Q1047.87 1401.67 1045.84 1406.48 Q1043.87 1411.22 1038.61 1417.7 Q1037.16 1419.38 1029.4 1427.43 Q1021.65 1435.41 1007.53 1449.82 Z" fill="#000000" fill-rule="nonzero" fill-opacity="1" /><path clip-path="url(#clip440)" d="M1668.77 1413.07 Q1677.16 1414.87 1681.85 1420.54 Q1686.59 1426.21 1686.59 1434.54 Q1686.59 1447.33 1677.8 1454.34 Q1669 1461.34 1652.8 1461.34 Q1647.36 1461.34 1641.57 1460.24 Q1635.84 1459.2 1629.71 1457.06 L1629.71 1445.77 Q1634.57 1448.61 1640.36 1450.05 Q1646.14 1451.5 1652.45 1451.5 Q1663.45 1451.5 1669.17 1447.16 Q1674.96 1442.82 1674.96 1434.54 Q1674.96 1426.91 1669.58 1422.62 Q1664.26 1418.28 1654.71 1418.28 L1644.64 1418.28 L1644.64 1408.68 L1655.17 1408.68 Q1663.79 1408.68 1668.36 1405.26 Q1672.94 1401.79 1672.94 1395.31 Q1672.94 1388.65 1668.19 1385.12 Q1663.5 1381.54 1654.71 1381.54 Q1649.9 1381.54 1644.41 1382.58 Q1638.91 1383.62 1632.31 1385.82 L1632.31 1375.4 Q1638.97 1373.55 1644.75 1372.62 Q1650.6 1371.7 1655.75 1371.7 Q1669.06 1371.7 1676.81 1377.77 Q1684.57 1383.79 1684.57 1394.09 Q1684.57 1401.27 1680.46 1406.25 Q1676.35 1411.16 1668.77 1413.07 Z" fill="#000000" fill-rule="nonzero" fill-opacity="1" /><path clip-path="url(#clip440)" d="M2302.93 1383.44 L2273.41 1429.57 L2302.93 1429.57 L2302.93 1383.44 M2299.86 1373.26 L2314.56 1373.26 L2314.56 1429.57 L2326.88 1429.57 L2326.88 1439.29 L2314.56 1439.29 L2314.56 1459.66 L2302.93 1459.66 L2302.93 1439.29 L2263.92 1439.29 L2263.92 1428 L2299.86 1373.26 Z" fill="#000000" fill-rule="nonzero" fill-opacity="1" /><path clip-path="url(#clip440)" d="M1337.82 1518.52 L1337.82 1536.93 L1359.75 1536.93 L1359.75 1545.2 L1337.82 1545.2 L1337.82 1580.39 Q1337.82 1588.31 1339.96 1590.57 Q1342.16 1592.83 1348.81 1592.83 L1359.75 1592.83 L1359.75 1601.74 L1348.81 1601.74 Q1336.49 1601.74 1331.8 1597.17 Q1327.11 1592.54 1327.11 1580.39 L1327.11 1545.2 L1319.3 1545.2 L1319.3 1536.93 L1327.11 1536.93 L1327.11 1518.52 L1337.82 1518.52 Z" fill="#000000" fill-rule="nonzero" fill-opacity="1" /><polyline clip-path="url(#clip440)" style="stroke:#000000; stroke-linecap:round; stroke-linejoin:round; stroke-width:4; stroke-opacity:1; fill:none" points="326.292,1332.46 326.292,47.2441 "/>
<polyline clip-path="url(#clip440)" style="stroke:#000000; stroke-linecap:round; stroke-linejoin:round; stroke-width:4; stroke-opacity:1; fill:none" points="326.292,1296.09 345.19,1296.09 "/>
<polyline clip-path="url(#clip440)" style="stroke:#000000; stroke-linecap:round; stroke-linejoin:round; stroke-width:4; stroke-opacity:1; fill:none" points="326.292,1094.01 345.19,1094.01 "/>
<polyline clip-path="url(#clip440)" style="stroke:#000000; stroke-linecap:round; stroke-linejoin:round; stroke-width:4; stroke-opacity:1; fill:none" points="326.292,891.93 345.19,891.93 "/>
<polyline clip-path="url(#clip440)" style="stroke:#000000; stroke-linecap:round; stroke-linejoin:round; stroke-width:4; stroke-opacity:1; fill:none" points="326.292,689.852 345.19,689.852 "/>
<polyline clip-path="url(#clip440)" style="stroke:#000000; stroke-linecap:round; stroke-linejoin:round; stroke-width:4; stroke-opacity:1; fill:none" points="326.292,487.774 345.19,487.774 "/>
<polyline clip-path="url(#clip440)" style="stroke:#000000; stroke-linecap:round; stroke-linejoin:round; stroke-width:4; stroke-opacity:1; fill:none" points="326.292,285.696 345.19,285.696 "/>
<polyline clip-path="url(#clip440)" style="stroke:#000000; stroke-linecap:round; stroke-linejoin:round; stroke-width:4; stroke-opacity:1; fill:none" points="326.292,83.6181 345.19,83.6181 "/>
<path clip-path="url(#clip440)" d="M260.431 1260.58 Q251.404 1260.58 246.832 1269.49 Q242.318 1278.35 242.318 1296.17 Q242.318 1313.94 246.832 1322.85 Q251.404 1331.7 260.431 1331.7 Q269.517 1331.7 274.031 1322.85 Q278.602 1313.94 278.602 1296.17 Q278.602 1278.35 274.031 1269.49 Q269.517 1260.58 260.431 1260.58 M260.431 1251.32 Q274.957 1251.32 282.595 1262.84 Q290.292 1274.3 290.292 1296.17 Q290.292 1317.99 282.595 1329.51 Q274.957 1340.96 260.431 1340.96 Q245.906 1340.96 238.209 1329.51 Q230.57 1317.99 230.57 1296.17 Q230.57 1274.3 238.209 1262.84 Q245.906 1251.32 260.431 1251.32 Z" fill="#000000" fill-rule="nonzero" fill-opacity="1" /><path clip-path="url(#clip440)" d="M162.052 1127.37 L181.149 1127.37 L181.149 1061.46 L160.374 1065.62 L160.374 1054.97 L181.034 1050.81 L192.723 1050.81 L192.723 1127.37 L211.82 1127.37 L211.82 1137.21 L162.052 1137.21 L162.052 1127.37 Z" fill="#000000" fill-rule="nonzero" fill-opacity="1" /><path clip-path="url(#clip440)" d="M260.431 1058.5 Q251.404 1058.5 246.832 1067.42 Q242.318 1076.27 242.318 1094.09 Q242.318 1111.86 246.832 1120.77 Q251.404 1129.63 260.431 1129.63 Q269.517 1129.63 274.031 1120.77 Q278.602 1111.86 278.602 1094.09 Q278.602 1076.27 274.031 1067.42 Q269.517 1058.5 260.431 1058.5 M260.431 1049.25 Q274.957 1049.25 282.595 1060.76 Q290.292 1072.22 290.292 1094.09 Q290.292 1115.91 282.595 1127.43 Q274.957 1138.89 260.431 1138.89 Q245.906 1138.89 238.209 1127.43 Q230.57 1115.91 230.57 1094.09 Q230.57 1072.22 238.209 1060.76 Q245.906 1049.25 260.431 1049.25 Z" fill="#000000" fill-rule="nonzero" fill-opacity="1" /><path clip-path="url(#clip440)" d="M170.096 925.292 L210.894 925.292 L210.894 935.13 L156.034 935.13 L156.034 925.292 Q162.689 918.405 174.147 906.831 Q185.663 895.2 188.615 891.843 Q194.228 885.535 196.427 881.195 Q198.684 876.797 198.684 872.572 Q198.684 865.686 193.823 861.346 Q189.02 857.005 181.265 857.005 Q175.767 857.005 169.633 858.915 Q163.557 860.825 156.612 864.702 L156.612 852.897 Q163.673 850.061 169.807 848.614 Q175.941 847.167 181.034 847.167 Q194.459 847.167 202.445 853.88 Q210.432 860.593 210.432 871.82 Q210.432 877.144 208.406 881.947 Q206.438 886.693 201.172 893.174 Q199.726 894.852 191.971 902.896 Q184.216 910.882 170.096 925.292 Z" fill="#000000" fill-rule="nonzero" fill-opacity="1" /><path clip-path="url(#clip440)" d="M260.431 856.427 Q251.404 856.427 246.832 865.339 Q242.318 874.193 242.318 892.017 Q242.318 909.783 246.832 918.695 Q251.404 927.549 260.431 927.549 Q269.517 927.549 274.031 918.695 Q278.602 909.783 278.602 892.017 Q278.602 874.193 274.031 865.339 Q269.517 856.427 260.431 856.427 M260.431 847.167 Q274.957 847.167 282.595 858.684 Q290.292 870.142 290.292 892.017 Q290.292 913.834 282.595 925.35 Q274.957 936.808 260.431 936.808 Q245.906 936.808 238.209 925.35 Q230.57 913.834 230.57 892.017 Q230.57 870.142 238.209 858.684 Q245.906 847.167 260.431 847.167 Z" fill="#000000" fill-rule="nonzero" fill-opacity="1" /><path clip-path="url(#clip440)" d="M195.443 686.467 Q203.834 688.261 208.522 693.932 Q213.267 699.603 213.267 707.936 Q213.267 720.726 204.471 727.728 Q195.675 734.73 179.471 734.73 Q174.031 734.73 168.244 733.631 Q162.515 732.589 156.381 730.448 L156.381 719.163 Q161.242 721.999 167.029 723.446 Q172.816 724.892 179.124 724.892 Q190.119 724.892 195.848 720.552 Q201.635 716.212 201.635 707.936 Q201.635 700.298 196.253 696.015 Q190.929 691.675 181.381 691.675 L171.311 691.675 L171.311 682.068 L181.844 682.068 Q190.466 682.068 195.038 678.654 Q199.61 675.182 199.61 668.7 Q199.61 662.045 194.864 658.515 Q190.177 654.927 181.381 654.927 Q176.578 654.927 171.08 655.969 Q165.582 657.011 158.985 659.21 L158.985 648.793 Q165.64 646.941 171.427 646.015 Q177.272 645.089 182.422 645.089 Q195.733 645.089 203.487 651.166 Q211.242 657.184 211.242 667.485 Q211.242 674.661 207.133 679.638 Q203.024 684.557 195.443 686.467 Z" fill="#000000" fill-rule="nonzero" fill-opacity="1" /><path clip-path="url(#clip440)" d="M260.431 654.349 Q251.404 654.349 246.832 663.261 Q242.318 672.115 242.318 689.939 Q242.318 707.705 246.832 716.617 Q251.404 725.471 260.431 725.471 Q269.517 725.471 274.031 716.617 Q278.602 707.705 278.602 689.939 Q278.602 672.115 274.031 663.261 Q269.517 654.349 260.431 654.349 M260.431 645.089 Q274.957 645.089 282.595 656.606 Q290.292 668.064 290.292 689.939 Q290.292 711.756 282.595 723.272 Q274.957 734.73 260.431 734.73 Q245.906 734.73 238.209 723.272 Q230.57 711.756 230.57 689.939 Q230.57 668.064 238.209 656.606 Q245.906 645.089 260.431 645.089 Z" fill="#000000" fill-rule="nonzero" fill-opacity="1" /><path clip-path="url(#clip440)" d="M192.145 454.759 L162.631 500.882 L192.145 500.882 L192.145 454.759 M189.077 444.574 L203.776 444.574 L203.776 500.882 L216.103 500.882 L216.103 510.604 L203.776 510.604 L203.776 530.974 L192.145 530.974 L192.145 510.604 L153.14 510.604 L153.14 499.319 L189.077 444.574 Z" fill="#000000" fill-rule="nonzero" fill-opacity="1" /><path clip-path="url(#clip440)" d="M260.431 452.271 Q251.404 452.271 246.832 461.183 Q242.318 470.037 242.318 487.861 Q242.318 505.627 246.832 514.539 Q251.404 523.393 260.431 523.393 Q269.517 523.393 274.031 514.539 Q278.602 505.627 278.602 487.861 Q278.602 470.037 274.031 461.183 Q269.517 452.271 260.431 452.271 M260.431 443.012 Q274.957 443.012 282.595 454.528 Q290.292 465.986 290.292 487.861 Q290.292 509.678 282.595 521.194 Q274.957 532.652 260.431 532.652 Q245.906 532.652 238.209 521.194 Q230.57 509.678 230.57 487.861 Q230.57 465.986 238.209 454.528 Q245.906 443.012 260.431 443.012 Z" fill="#000000" fill-rule="nonzero" fill-opacity="1" /><path clip-path="url(#clip440)" d="M160.142 242.496 L206.033 242.496 L206.033 252.334 L170.848 252.334 L170.848 273.514 Q173.395 272.646 175.941 272.241 Q178.487 271.778 181.034 271.778 Q195.501 271.778 203.95 279.707 Q212.399 287.635 212.399 301.176 Q212.399 315.123 203.719 322.878 Q195.038 330.574 179.24 330.574 Q173.8 330.574 168.129 329.648 Q162.515 328.722 156.497 326.871 L156.497 315.123 Q161.705 317.959 167.26 319.348 Q172.816 320.736 179.008 320.736 Q189.02 320.736 194.864 315.47 Q200.709 310.204 200.709 301.176 Q200.709 292.149 194.864 286.882 Q189.02 281.616 179.008 281.616 Q174.321 281.616 169.633 282.658 Q165.004 283.7 160.142 285.899 L160.142 242.496 Z" fill="#000000" fill-rule="nonzero" fill-opacity="1" /><path clip-path="url(#clip440)" d="M260.431 250.193 Q251.404 250.193 246.832 259.105 Q242.318 267.959 242.318 285.783 Q242.318 303.549 246.832 312.461 Q251.404 321.315 260.431 321.315 Q269.517 321.315 274.031 312.461 Q278.602 303.549 278.602 285.783 Q278.602 267.959 274.031 259.105 Q269.517 250.193 260.431 250.193 M260.431 240.934 Q274.957 240.934 282.595 252.45 Q290.292 263.908 290.292 285.783 Q290.292 307.6 282.595 319.116 Q274.957 330.574 260.431 330.574 Q245.906 330.574 238.209 319.116 Q230.57 307.6 230.57 285.783 Q230.57 263.908 238.209 252.45 Q245.906 240.934 260.431 240.934 Z" fill="#000000" fill-rule="nonzero" fill-opacity="1" /><path clip-path="url(#clip440)" d="M186.473 78.9596 Q178.603 78.9596 173.973 84.3415 Q169.402 89.7234 169.402 99.0984 Q169.402 108.415 173.973 113.855 Q178.603 119.237 186.473 119.237 Q194.344 119.237 198.915 113.855 Q203.545 108.415 203.545 99.0984 Q203.545 89.7234 198.915 84.3415 Q194.344 78.9596 186.473 78.9596 M209.679 42.3278 L209.679 52.9759 Q205.281 50.8926 200.767 49.7931 Q196.311 48.6935 191.913 48.6935 Q180.339 48.6935 174.205 56.506 Q168.129 64.3185 167.26 80.117 Q170.675 75.0823 175.825 72.4203 Q180.976 69.7004 187.168 69.7004 Q200.189 69.7004 207.712 77.6286 Q215.293 85.4989 215.293 99.0984 Q215.293 112.408 207.422 120.452 Q199.552 128.496 186.473 128.496 Q171.485 128.496 163.557 117.038 Q155.629 105.522 155.629 83.7049 Q155.629 63.2189 165.351 51.0662 Q175.073 38.8556 191.45 38.8556 Q195.848 38.8556 200.304 39.7237 Q204.818 40.5917 209.679 42.3278 Z" fill="#000000" fill-rule="nonzero" fill-opacity="1" /><path clip-path="url(#clip440)" d="M260.431 48.1148 Q251.404 48.1148 246.832 57.0268 Q242.318 65.881 242.318 83.7049 Q242.318 101.471 246.832 110.383 Q251.404 119.237 260.431 119.237 Q269.517 119.237 274.031 110.383 Q278.602 101.471 278.602 83.7049 Q278.602 65.881 274.031 57.0268 Q269.517 48.1148 260.431 48.1148 M260.431 38.8556 Q274.957 38.8556 282.595 50.3718 Q290.292 61.83 290.292 83.7049 Q290.292 105.522 282.595 117.038 Q274.957 128.496 260.431 128.496 Q245.906 128.496 238.209 117.038 Q230.57 105.522 230.57 83.7049 Q230.57 61.83 238.209 50.3718 Q245.906 38.8556 260.431 38.8556 Z" fill="#000000" fill-rule="nonzero" fill-opacity="1" /><path clip-path="url(#clip440)" d="M12.7484 1088.03 Q12.7484 1100.76 22.239 1108.28 Q31.7297 1115.75 48.107 1115.75 Q64.4263 1115.75 73.917 1108.28 Q83.4077 1100.76 83.4077 1088.03 Q83.4077 1075.3 73.917 1067.89 Q64.4263 1060.42 48.107 1060.42 Q31.7297 1060.42 22.239 1067.89 Q12.7484 1075.3 12.7484 1088.03 M3.25767 1088.03 Q3.25767 1069.86 15.4682 1058.98 Q27.621 1048.1 48.107 1048.1 Q68.5351 1048.1 80.7457 1058.98 Q92.8984 1069.86 92.8984 1088.03 Q92.8984 1106.26 80.7457 1117.19 Q68.593 1128.07 48.107 1128.07 Q27.621 1128.07 15.4682 1117.19 Q3.25767 1106.26 3.25767 1088.03 Z" fill="#000000" fill-rule="nonzero" fill-opacity="1" /><path clip-path="url(#clip440)" d="M36.3593 992.715 Q35.3177 994.509 34.8547 996.65 Q34.3339 998.733 34.3339 1001.28 Q34.3339 1010.31 40.2366 1015.17 Q46.0815 1019.97 57.0768 1019.97 L91.2202 1019.97 L91.2202 1030.68 L26.4057 1030.68 L26.4057 1019.97 L36.4751 1019.97 Q30.5723 1016.62 27.7367 1011.23 Q24.8432 1005.85 24.8432 998.155 Q24.8432 997.055 25.0168 995.724 Q25.1325 994.393 25.4219 992.773 L36.3593 992.715 Z" fill="#000000" fill-rule="nonzero" fill-opacity="1" /><path clip-path="url(#clip440)" d="M36.2436 940.979 L1.17434 940.979 L1.17434 930.331 L91.2202 930.331 L91.2202 940.979 L81.498 940.979 Q87.285 944.336 90.1206 949.486 Q92.8984 954.579 92.8984 961.754 Q92.8984 973.502 83.5234 980.909 Q74.1485 988.259 58.8708 988.259 Q43.5931 988.259 34.2181 980.909 Q24.8432 973.502 24.8432 961.754 Q24.8432 954.579 27.6788 949.486 Q30.4566 944.336 36.2436 940.979 M58.8708 977.264 Q70.6184 977.264 77.3313 972.46 Q83.9864 967.599 83.9864 959.15 Q83.9864 950.701 77.3313 945.84 Q70.6184 940.979 58.8708 940.979 Q47.1232 940.979 40.4681 945.84 Q33.7552 950.701 33.7552 959.15 Q33.7552 967.599 40.4681 972.46 Q47.1232 977.264 58.8708 977.264 Z" fill="#000000" fill-rule="nonzero" fill-opacity="1" /><path clip-path="url(#clip440)" d="M56.1509 852.959 L61.3592 852.959 L61.3592 901.917 Q72.3545 901.222 78.1415 895.32 Q83.8707 889.359 83.8707 878.769 Q83.8707 872.635 82.366 866.905 Q80.8614 861.118 77.8522 855.447 L87.9216 855.447 Q90.3521 861.176 91.6252 867.195 Q92.8984 873.213 92.8984 879.405 Q92.8984 894.915 83.8707 904 Q74.8429 913.028 59.4495 913.028 Q43.5352 913.028 34.2181 904.463 Q24.8432 895.84 24.8432 881.257 Q24.8432 868.179 33.2922 860.598 Q41.6834 852.959 56.1509 852.959 M53.0259 863.607 Q44.2875 863.723 39.0792 868.526 Q33.8709 873.271 33.8709 881.141 Q33.8709 890.053 38.9056 895.435 Q43.9403 900.759 53.0838 901.57 L53.0259 863.607 Z" fill="#000000" fill-rule="nonzero" fill-opacity="1" /><path clip-path="url(#clip440)" d="M36.3593 797.924 Q35.3177 799.718 34.8547 801.859 Q34.3339 803.943 34.3339 806.489 Q34.3339 815.517 40.2366 820.378 Q46.0815 825.181 57.0768 825.181 L91.2202 825.181 L91.2202 835.887 L26.4057 835.887 L26.4057 825.181 L36.4751 825.181 Q30.5723 821.825 27.7367 816.443 Q24.8432 811.061 24.8432 803.364 Q24.8432 802.265 25.0168 800.934 Q25.1325 799.603 25.4219 797.982 L36.3593 797.924 Z" fill="#000000" fill-rule="nonzero" fill-opacity="1" /><path clip-path="url(#clip440)" d="M12.7484 713.55 Q12.7484 726.281 22.239 733.804 Q31.7297 741.27 48.107 741.27 Q64.4263 741.27 73.917 733.804 Q83.4077 726.281 83.4077 713.55 Q83.4077 700.818 73.917 693.411 Q64.4263 685.946 48.107 685.946 Q31.7297 685.946 22.239 693.411 Q12.7484 700.818 12.7484 713.55 M89.6577 697.173 L106.498 681.779 L106.498 695.899 L92.6669 708.689 Q92.7826 710.598 92.8405 711.64 Q92.8984 712.624 92.8984 713.55 Q92.8984 731.779 80.7457 742.716 Q68.5351 753.596 48.107 753.596 Q27.621 753.596 15.4682 742.716 Q3.25767 731.779 3.25767 713.55 Q3.25767 695.379 15.4682 684.499 Q27.621 673.619 48.107 673.619 Q63.1532 673.619 73.8591 679.696 Q84.5651 685.714 89.6577 697.173 Z" fill="#000000" fill-rule="nonzero" fill-opacity="1" /><path clip-path="url(#clip440)" d="M65.6416 656.895 L26.4057 656.895 L26.4057 646.247 L65.2365 646.247 Q74.4378 646.247 79.0674 642.659 Q83.6392 639.071 83.6392 631.895 Q83.6392 623.272 78.1415 618.296 Q72.6439 613.261 63.1532 613.261 L26.4057 613.261 L26.4057 602.613 L91.2202 602.613 L91.2202 613.261 L81.2665 613.261 Q87.1693 617.138 90.0628 622.289 Q92.8984 627.381 92.8984 634.152 Q92.8984 645.321 85.954 651.108 Q79.0096 656.895 65.6416 656.895 M24.8432 630.101 L24.8432 630.101 Z" fill="#000000" fill-rule="nonzero" fill-opacity="1" /><path clip-path="url(#clip440)" d="M58.6393 551.224 Q58.6393 564.129 61.5907 569.106 Q64.5421 574.083 71.6601 574.083 Q77.3313 574.083 80.6878 570.379 Q83.9864 566.618 83.9864 560.194 Q83.9864 551.34 77.7364 546.016 Q71.4286 540.634 61.012 540.634 L58.6393 540.634 L58.6393 551.224 M54.2412 529.986 L91.2202 529.986 L91.2202 540.634 L81.3822 540.634 Q87.285 544.28 90.1206 549.72 Q92.8984 555.159 92.8984 563.03 Q92.8984 572.983 87.3429 578.886 Q81.7295 584.731 72.3545 584.731 Q61.4171 584.731 55.8616 577.439 Q50.306 570.09 50.306 555.564 L50.306 540.634 L49.2644 540.634 Q41.9149 540.634 37.9218 545.495 Q33.8709 550.298 33.8709 559.037 Q33.8709 564.592 35.2019 569.858 Q36.533 575.125 39.195 579.986 L29.3571 579.986 Q27.1001 574.141 26.0006 568.643 Q24.8432 563.145 24.8432 557.937 Q24.8432 543.875 32.1348 536.93 Q39.4265 529.986 54.2412 529.986 Z" fill="#000000" fill-rule="nonzero" fill-opacity="1" /><path clip-path="url(#clip440)" d="M52.1 454.176 L91.2202 454.176 L91.2202 464.824 L52.4472 464.824 Q43.2459 464.824 38.6741 468.412 Q34.1024 472 34.1024 479.176 Q34.1024 487.799 39.6001 492.775 Q45.0977 497.752 54.5884 497.752 L91.2202 497.752 L91.2202 508.458 L26.4057 508.458 L26.4057 497.752 L36.4751 497.752 Q30.6302 493.933 27.7367 488.782 Q24.8432 483.574 24.8432 476.803 Q24.8432 465.634 31.7876 459.905 Q38.6741 454.176 52.1 454.176 Z" fill="#000000" fill-rule="nonzero" fill-opacity="1" /><path clip-path="url(#clip440)" d="M8.00301 422.405 L26.4057 422.405 L26.4057 400.473 L34.6811 400.473 L34.6811 422.405 L69.8661 422.405 Q77.7943 422.405 80.0512 420.264 Q82.3082 418.065 82.3082 411.41 L82.3082 400.473 L91.2202 400.473 L91.2202 411.41 Q91.2202 423.736 86.6484 428.424 Q82.0188 433.111 69.8661 433.111 L34.6811 433.111 L34.6811 440.924 L26.4057 440.924 L26.4057 433.111 L8.00301 433.111 L8.00301 422.405 Z" fill="#000000" fill-rule="nonzero" fill-opacity="1" /><path clip-path="url(#clip440)" d="M26.4057 386.468 L26.4057 375.82 L91.2202 375.82 L91.2202 386.468 L26.4057 386.468 M1.17434 386.468 L1.17434 375.82 L14.6581 375.82 L14.6581 386.468 L1.17434 386.468 Z" fill="#000000" fill-rule="nonzero" fill-opacity="1" /><path clip-path="url(#clip440)" d="M8.00301 343.008 L26.4057 343.008 L26.4057 321.075 L34.6811 321.075 L34.6811 343.008 L69.8661 343.008 Q77.7943 343.008 80.0512 340.867 Q82.3082 338.668 82.3082 332.012 L82.3082 321.075 L91.2202 321.075 L91.2202 332.012 Q91.2202 344.339 86.6484 349.026 Q82.0188 353.714 69.8661 353.714 L34.6811 353.714 L34.6811 361.526 L26.4057 361.526 L26.4057 353.714 L8.00301 353.714 L8.00301 343.008 Z" fill="#000000" fill-rule="nonzero" fill-opacity="1" /><path clip-path="url(#clip440)" d="M97.2386 280.103 Q108.813 284.617 112.343 288.899 Q115.873 293.182 115.873 300.358 L115.873 308.864 L106.961 308.864 L106.961 302.614 Q106.961 298.216 104.877 295.786 Q102.794 293.355 95.0396 290.404 L90.1785 288.494 L26.4057 314.709 L26.4057 303.425 L77.0999 283.17 L26.4057 262.916 L26.4057 251.631 L97.2386 280.103 Z" fill="#000000" fill-rule="nonzero" fill-opacity="1" /><polyline clip-path="url(#clip442)" style="stroke:#009af9; stroke-linecap:round; stroke-linejoin:round; stroke-width:12; stroke-opacity:1; fill:none" points="383.645,285.696 1020.9,83.6181 1658.15,1094.01 2295.4,1296.09 "/>
<circle clip-path="url(#clip442)" cx="383.645" cy="285.696" r="14.4" fill="#009af9" fill-rule="evenodd" fill-opacity="1" stroke="#000000" stroke-opacity="1" stroke-width="3.2"/>
<circle clip-path="url(#clip442)" cx="1020.9" cy="83.6181" r="14.4" fill="#009af9" fill-rule="evenodd" fill-opacity="1" stroke="#000000" stroke-opacity="1" stroke-width="3.2"/>
<circle clip-path="url(#clip442)" cx="1658.15" cy="1094.01" r="14.4" fill="#009af9" fill-rule="evenodd" fill-opacity="1" stroke="#000000" stroke-opacity="1" stroke-width="3.2"/>
<circle clip-path="url(#clip442)" cx="2295.4" cy="1296.09" r="14.4" fill="#009af9" fill-rule="evenodd" fill-opacity="1" stroke="#000000" stroke-opacity="1" stroke-width="3.2"/>
<path clip-path="url(#clip440)" d="M1951.49 349.285 L2285.21 349.285 L2285.21 90.0846 L1951.49 90.0846  Z" fill="#ffffff" fill-rule="evenodd" fill-opacity="1"/>
<polyline clip-path="url(#clip440)" style="stroke:#000000; stroke-linecap:round; stroke-linejoin:round; stroke-width:4; stroke-opacity:1; fill:none" points="1951.49,349.285 2285.21,349.285 2285.21,90.0846 1951.49,90.0846 1951.49,349.285 "/>
<polyline clip-path="url(#clip440)" style="stroke:#009af9; stroke-linecap:round; stroke-linejoin:round; stroke-width:30; stroke-opacity:1; fill:none" points="1974,219.685 2109.1,219.685 "/>
<circle clip-path="url(#clip440)" cx="2041.55" cy="219.685" r="7.50542" fill="#009af9" fill-rule="evenodd" fill-opacity="1" stroke="#000000" stroke-opacity="1" stroke-width="6.67149"/>
<path clip-path="url(#clip440)" d="M2166.22 268.903 Q2161.71 280.477 2157.43 284.007 Q2153.14 287.537 2145.97 287.537 L2137.46 287.537 L2137.46 278.625 L2143.71 278.625 Q2148.11 278.625 2150.54 276.542 Q2152.97 274.459 2155.92 266.704 L2157.83 261.843 L2131.62 198.07 L2142.9 198.07 L2163.15 248.764 L2183.41 198.07 L2194.69 198.07 L2166.22 268.903 Z" fill="#000000" fill-rule="nonzero" fill-opacity="1" /><path clip-path="url(#clip440)" d="M2212.92 253.047 L2232.02 253.047 L2232.02 187.133 L2211.24 191.299 L2211.24 180.651 L2231.9 176.485 L2243.59 176.485 L2243.59 253.047 L2262.69 253.047 L2262.69 262.885 L2212.92 262.885 L2212.92 253.047 Z" fill="#000000" fill-rule="nonzero" fill-opacity="1" /></svg>
